%TF.GenerationSoftware,KiCad,Pcbnew,8.0.7*%
%TF.CreationDate,2025-10-24T17:03:05+02:00*%
%TF.ProjectId,Medidor_clk_PCB,4d656469-646f-4725-9f63-6c6b5f504342,rev?*%
%TF.SameCoordinates,Original*%
%TF.FileFunction,Legend,Top*%
%TF.FilePolarity,Positive*%
%FSLAX46Y46*%
G04 Gerber Fmt 4.6, Leading zero omitted, Abs format (unit mm)*
G04 Created by KiCad (PCBNEW 8.0.7) date 2025-10-24 17:03:05*
%MOMM*%
%LPD*%
G01*
G04 APERTURE LIST*
G04 Aperture macros list*
%AMRoundRect*
0 Rectangle with rounded corners*
0 $1 Rounding radius*
0 $2 $3 $4 $5 $6 $7 $8 $9 X,Y pos of 4 corners*
0 Add a 4 corners polygon primitive as box body*
4,1,4,$2,$3,$4,$5,$6,$7,$8,$9,$2,$3,0*
0 Add four circle primitives for the rounded corners*
1,1,$1+$1,$2,$3*
1,1,$1+$1,$4,$5*
1,1,$1+$1,$6,$7*
1,1,$1+$1,$8,$9*
0 Add four rect primitives between the rounded corners*
20,1,$1+$1,$2,$3,$4,$5,0*
20,1,$1+$1,$4,$5,$6,$7,0*
20,1,$1+$1,$6,$7,$8,$9,0*
20,1,$1+$1,$8,$9,$2,$3,0*%
%AMFreePoly0*
4,1,19,0.500000,-0.750000,0.000000,-0.750000,0.000000,-0.744911,-0.071157,-0.744911,-0.207708,-0.704816,-0.327430,-0.627875,-0.420627,-0.520320,-0.479746,-0.390866,-0.500000,-0.250000,-0.500000,0.250000,-0.479746,0.390866,-0.420627,0.520320,-0.327430,0.627875,-0.207708,0.704816,-0.071157,0.744911,0.000000,0.744911,0.000000,0.750000,0.500000,0.750000,0.500000,-0.750000,0.500000,-0.750000,
$1*%
%AMFreePoly1*
4,1,19,0.000000,0.744911,0.071157,0.744911,0.207708,0.704816,0.327430,0.627875,0.420627,0.520320,0.479746,0.390866,0.500000,0.250000,0.500000,-0.250000,0.479746,-0.390866,0.420627,-0.520320,0.327430,-0.627875,0.207708,-0.704816,0.071157,-0.744911,0.000000,-0.744911,0.000000,-0.750000,-0.500000,-0.750000,-0.500000,0.750000,0.000000,0.750000,0.000000,0.744911,0.000000,0.744911,
$1*%
G04 Aperture macros list end*
%ADD10C,0.200000*%
%ADD11C,0.150000*%
%ADD12C,0.120000*%
%ADD13C,0.127000*%
%ADD14RoundRect,0.250000X0.250000X0.475000X-0.250000X0.475000X-0.250000X-0.475000X0.250000X-0.475000X0*%
%ADD15RoundRect,0.250000X0.450000X-0.262500X0.450000X0.262500X-0.450000X0.262500X-0.450000X-0.262500X0*%
%ADD16R,1.500000X1.050000*%
%ADD17O,1.500000X1.050000*%
%ADD18RoundRect,0.250000X-0.475000X0.250000X-0.475000X-0.250000X0.475000X-0.250000X0.475000X0.250000X0*%
%ADD19C,4.300000*%
%ADD20RoundRect,0.100000X-0.225000X-0.100000X0.225000X-0.100000X0.225000X0.100000X-0.225000X0.100000X0*%
%ADD21RoundRect,0.100500X-0.986500X-0.301500X0.986500X-0.301500X0.986500X0.301500X-0.986500X0.301500X0*%
%ADD22RoundRect,0.250000X-0.250000X-0.475000X0.250000X-0.475000X0.250000X0.475000X-0.250000X0.475000X0*%
%ADD23FreePoly0,0.000000*%
%ADD24FreePoly1,0.000000*%
%ADD25RoundRect,0.150000X-0.650000X-0.150000X0.650000X-0.150000X0.650000X0.150000X-0.650000X0.150000X0*%
%ADD26RoundRect,0.250000X-0.262500X-0.450000X0.262500X-0.450000X0.262500X0.450000X-0.262500X0.450000X0*%
%ADD27R,1.700000X1.700000*%
%ADD28O,1.700000X1.700000*%
%ADD29C,2.400000*%
%ADD30O,2.400000X2.400000*%
%ADD31RoundRect,0.150000X-0.150000X0.725000X-0.150000X-0.725000X0.150000X-0.725000X0.150000X0.725000X0*%
%ADD32FreePoly0,270.000000*%
%ADD33FreePoly1,270.000000*%
%ADD34R,5.080000X1.500000*%
%ADD35RoundRect,0.250000X-0.450000X0.262500X-0.450000X-0.262500X0.450000X-0.262500X0.450000X0.262500X0*%
%ADD36C,1.400000*%
%ADD37O,1.400000X1.400000*%
%ADD38RoundRect,0.250000X0.262500X0.450000X-0.262500X0.450000X-0.262500X-0.450000X0.262500X-0.450000X0*%
G04 APERTURE END LIST*
D10*
X172657275Y-98857142D02*
X171657275Y-98857142D01*
X171657275Y-98857142D02*
X171657275Y-98476190D01*
X171657275Y-98476190D02*
X171704894Y-98380952D01*
X171704894Y-98380952D02*
X171752513Y-98333333D01*
X171752513Y-98333333D02*
X171847751Y-98285714D01*
X171847751Y-98285714D02*
X171990608Y-98285714D01*
X171990608Y-98285714D02*
X172085846Y-98333333D01*
X172085846Y-98333333D02*
X172133465Y-98380952D01*
X172133465Y-98380952D02*
X172181084Y-98476190D01*
X172181084Y-98476190D02*
X172181084Y-98857142D01*
X172657275Y-97428571D02*
X172133465Y-97428571D01*
X172133465Y-97428571D02*
X172038227Y-97476190D01*
X172038227Y-97476190D02*
X171990608Y-97571428D01*
X171990608Y-97571428D02*
X171990608Y-97761904D01*
X171990608Y-97761904D02*
X172038227Y-97857142D01*
X172609656Y-97428571D02*
X172657275Y-97523809D01*
X172657275Y-97523809D02*
X172657275Y-97761904D01*
X172657275Y-97761904D02*
X172609656Y-97857142D01*
X172609656Y-97857142D02*
X172514417Y-97904761D01*
X172514417Y-97904761D02*
X172419179Y-97904761D01*
X172419179Y-97904761D02*
X172323941Y-97857142D01*
X172323941Y-97857142D02*
X172276322Y-97761904D01*
X172276322Y-97761904D02*
X172276322Y-97523809D01*
X172276322Y-97523809D02*
X172228703Y-97428571D01*
X172657275Y-96952380D02*
X171657275Y-96952380D01*
X172038227Y-96952380D02*
X171990608Y-96857142D01*
X171990608Y-96857142D02*
X171990608Y-96666666D01*
X171990608Y-96666666D02*
X172038227Y-96571428D01*
X172038227Y-96571428D02*
X172085846Y-96523809D01*
X172085846Y-96523809D02*
X172181084Y-96476190D01*
X172181084Y-96476190D02*
X172466798Y-96476190D01*
X172466798Y-96476190D02*
X172562036Y-96523809D01*
X172562036Y-96523809D02*
X172609656Y-96571428D01*
X172609656Y-96571428D02*
X172657275Y-96666666D01*
X172657275Y-96666666D02*
X172657275Y-96857142D01*
X172657275Y-96857142D02*
X172609656Y-96952380D01*
X172657275Y-95904761D02*
X172609656Y-95999999D01*
X172609656Y-95999999D02*
X172514417Y-96047618D01*
X172514417Y-96047618D02*
X171657275Y-96047618D01*
X172657275Y-95380951D02*
X172609656Y-95476189D01*
X172609656Y-95476189D02*
X172562036Y-95523808D01*
X172562036Y-95523808D02*
X172466798Y-95571427D01*
X172466798Y-95571427D02*
X172181084Y-95571427D01*
X172181084Y-95571427D02*
X172085846Y-95523808D01*
X172085846Y-95523808D02*
X172038227Y-95476189D01*
X172038227Y-95476189D02*
X171990608Y-95380951D01*
X171990608Y-95380951D02*
X171990608Y-95238094D01*
X171990608Y-95238094D02*
X172038227Y-95142856D01*
X172038227Y-95142856D02*
X172085846Y-95095237D01*
X172085846Y-95095237D02*
X172181084Y-95047618D01*
X172181084Y-95047618D02*
X172466798Y-95047618D01*
X172466798Y-95047618D02*
X172562036Y-95095237D01*
X172562036Y-95095237D02*
X172609656Y-95142856D01*
X172609656Y-95142856D02*
X172657275Y-95238094D01*
X172657275Y-95238094D02*
X172657275Y-95380951D01*
X172371560Y-93904760D02*
X172371560Y-93428570D01*
X172657275Y-93999998D02*
X171657275Y-93666665D01*
X171657275Y-93666665D02*
X172657275Y-93333332D01*
X171276322Y-93571427D02*
X171419179Y-93714284D01*
X172562036Y-92999998D02*
X172609656Y-92952379D01*
X172609656Y-92952379D02*
X172657275Y-92999998D01*
X172657275Y-92999998D02*
X172609656Y-93047617D01*
X172609656Y-93047617D02*
X172562036Y-92999998D01*
X172562036Y-92999998D02*
X172657275Y-92999998D01*
X172657275Y-91761903D02*
X171657275Y-91761903D01*
X171657275Y-91761903D02*
X171657275Y-91523808D01*
X171657275Y-91523808D02*
X171704894Y-91380951D01*
X171704894Y-91380951D02*
X171800132Y-91285713D01*
X171800132Y-91285713D02*
X171895370Y-91238094D01*
X171895370Y-91238094D02*
X172085846Y-91190475D01*
X172085846Y-91190475D02*
X172228703Y-91190475D01*
X172228703Y-91190475D02*
X172419179Y-91238094D01*
X172419179Y-91238094D02*
X172514417Y-91285713D01*
X172514417Y-91285713D02*
X172609656Y-91380951D01*
X172609656Y-91380951D02*
X172657275Y-91523808D01*
X172657275Y-91523808D02*
X172657275Y-91761903D01*
X172657275Y-90619046D02*
X172609656Y-90714284D01*
X172609656Y-90714284D02*
X172562036Y-90761903D01*
X172562036Y-90761903D02*
X172466798Y-90809522D01*
X172466798Y-90809522D02*
X172181084Y-90809522D01*
X172181084Y-90809522D02*
X172085846Y-90761903D01*
X172085846Y-90761903D02*
X172038227Y-90714284D01*
X172038227Y-90714284D02*
X171990608Y-90619046D01*
X171990608Y-90619046D02*
X171990608Y-90476189D01*
X171990608Y-90476189D02*
X172038227Y-90380951D01*
X172038227Y-90380951D02*
X172085846Y-90333332D01*
X172085846Y-90333332D02*
X172181084Y-90285713D01*
X172181084Y-90285713D02*
X172466798Y-90285713D01*
X172466798Y-90285713D02*
X172562036Y-90333332D01*
X172562036Y-90333332D02*
X172609656Y-90380951D01*
X172609656Y-90380951D02*
X172657275Y-90476189D01*
X172657275Y-90476189D02*
X172657275Y-90619046D01*
X172657275Y-89857141D02*
X171990608Y-89857141D01*
X172085846Y-89857141D02*
X172038227Y-89809522D01*
X172038227Y-89809522D02*
X171990608Y-89714284D01*
X171990608Y-89714284D02*
X171990608Y-89571427D01*
X171990608Y-89571427D02*
X172038227Y-89476189D01*
X172038227Y-89476189D02*
X172133465Y-89428570D01*
X172133465Y-89428570D02*
X172657275Y-89428570D01*
X172133465Y-89428570D02*
X172038227Y-89380951D01*
X172038227Y-89380951D02*
X171990608Y-89285713D01*
X171990608Y-89285713D02*
X171990608Y-89142856D01*
X171990608Y-89142856D02*
X172038227Y-89047617D01*
X172038227Y-89047617D02*
X172133465Y-88999998D01*
X172133465Y-88999998D02*
X172657275Y-88999998D01*
X172657275Y-88523808D02*
X171990608Y-88523808D01*
X171609656Y-88428570D02*
X171752513Y-88571427D01*
X171990608Y-88047618D02*
X172657275Y-88047618D01*
X172085846Y-88047618D02*
X172038227Y-87999999D01*
X172038227Y-87999999D02*
X171990608Y-87904761D01*
X171990608Y-87904761D02*
X171990608Y-87761904D01*
X171990608Y-87761904D02*
X172038227Y-87666666D01*
X172038227Y-87666666D02*
X172133465Y-87619047D01*
X172133465Y-87619047D02*
X172657275Y-87619047D01*
X171990608Y-86714285D02*
X172800132Y-86714285D01*
X172800132Y-86714285D02*
X172895370Y-86761904D01*
X172895370Y-86761904D02*
X172942989Y-86809523D01*
X172942989Y-86809523D02*
X172990608Y-86904761D01*
X172990608Y-86904761D02*
X172990608Y-87047618D01*
X172990608Y-87047618D02*
X172942989Y-87142856D01*
X172609656Y-86714285D02*
X172657275Y-86809523D01*
X172657275Y-86809523D02*
X172657275Y-86999999D01*
X172657275Y-86999999D02*
X172609656Y-87095237D01*
X172609656Y-87095237D02*
X172562036Y-87142856D01*
X172562036Y-87142856D02*
X172466798Y-87190475D01*
X172466798Y-87190475D02*
X172181084Y-87190475D01*
X172181084Y-87190475D02*
X172085846Y-87142856D01*
X172085846Y-87142856D02*
X172038227Y-87095237D01*
X172038227Y-87095237D02*
X171990608Y-86999999D01*
X171990608Y-86999999D02*
X171990608Y-86809523D01*
X171990608Y-86809523D02*
X172038227Y-86714285D01*
X171990608Y-85809523D02*
X172657275Y-85809523D01*
X171990608Y-86238094D02*
X172514417Y-86238094D01*
X172514417Y-86238094D02*
X172609656Y-86190475D01*
X172609656Y-86190475D02*
X172657275Y-86095237D01*
X172657275Y-86095237D02*
X172657275Y-85952380D01*
X172657275Y-85952380D02*
X172609656Y-85857142D01*
X172609656Y-85857142D02*
X172562036Y-85809523D01*
X172609656Y-84952380D02*
X172657275Y-85047618D01*
X172657275Y-85047618D02*
X172657275Y-85238094D01*
X172657275Y-85238094D02*
X172609656Y-85333332D01*
X172609656Y-85333332D02*
X172514417Y-85380951D01*
X172514417Y-85380951D02*
X172133465Y-85380951D01*
X172133465Y-85380951D02*
X172038227Y-85333332D01*
X172038227Y-85333332D02*
X171990608Y-85238094D01*
X171990608Y-85238094D02*
X171990608Y-85047618D01*
X171990608Y-85047618D02*
X172038227Y-84952380D01*
X172038227Y-84952380D02*
X172133465Y-84904761D01*
X172133465Y-84904761D02*
X172228703Y-84904761D01*
X172228703Y-84904761D02*
X172323941Y-85380951D01*
X171990608Y-84571427D02*
X171990608Y-84047618D01*
X171990608Y-84047618D02*
X172657275Y-84571427D01*
X172657275Y-84571427D02*
X172657275Y-84047618D01*
X174171980Y-94857143D02*
X174219600Y-94904762D01*
X174219600Y-94904762D02*
X174267219Y-95047619D01*
X174267219Y-95047619D02*
X174267219Y-95142857D01*
X174267219Y-95142857D02*
X174219600Y-95285714D01*
X174219600Y-95285714D02*
X174124361Y-95380952D01*
X174124361Y-95380952D02*
X174029123Y-95428571D01*
X174029123Y-95428571D02*
X173838647Y-95476190D01*
X173838647Y-95476190D02*
X173695790Y-95476190D01*
X173695790Y-95476190D02*
X173505314Y-95428571D01*
X173505314Y-95428571D02*
X173410076Y-95380952D01*
X173410076Y-95380952D02*
X173314838Y-95285714D01*
X173314838Y-95285714D02*
X173267219Y-95142857D01*
X173267219Y-95142857D02*
X173267219Y-95047619D01*
X173267219Y-95047619D02*
X173314838Y-94904762D01*
X173314838Y-94904762D02*
X173362457Y-94857143D01*
X174267219Y-94285714D02*
X174219600Y-94380952D01*
X174219600Y-94380952D02*
X174124361Y-94428571D01*
X174124361Y-94428571D02*
X173267219Y-94428571D01*
X174267219Y-93761904D02*
X174219600Y-93857142D01*
X174219600Y-93857142D02*
X174171980Y-93904761D01*
X174171980Y-93904761D02*
X174076742Y-93952380D01*
X174076742Y-93952380D02*
X173791028Y-93952380D01*
X173791028Y-93952380D02*
X173695790Y-93904761D01*
X173695790Y-93904761D02*
X173648171Y-93857142D01*
X173648171Y-93857142D02*
X173600552Y-93761904D01*
X173600552Y-93761904D02*
X173600552Y-93619047D01*
X173600552Y-93619047D02*
X173648171Y-93523809D01*
X173648171Y-93523809D02*
X173695790Y-93476190D01*
X173695790Y-93476190D02*
X173791028Y-93428571D01*
X173791028Y-93428571D02*
X174076742Y-93428571D01*
X174076742Y-93428571D02*
X174171980Y-93476190D01*
X174171980Y-93476190D02*
X174219600Y-93523809D01*
X174219600Y-93523809D02*
X174267219Y-93619047D01*
X174267219Y-93619047D02*
X174267219Y-93761904D01*
X174171980Y-92428571D02*
X174219600Y-92476190D01*
X174219600Y-92476190D02*
X174267219Y-92619047D01*
X174267219Y-92619047D02*
X174267219Y-92714285D01*
X174267219Y-92714285D02*
X174219600Y-92857142D01*
X174219600Y-92857142D02*
X174124361Y-92952380D01*
X174124361Y-92952380D02*
X174029123Y-92999999D01*
X174029123Y-92999999D02*
X173838647Y-93047618D01*
X173838647Y-93047618D02*
X173695790Y-93047618D01*
X173695790Y-93047618D02*
X173505314Y-92999999D01*
X173505314Y-92999999D02*
X173410076Y-92952380D01*
X173410076Y-92952380D02*
X173314838Y-92857142D01*
X173314838Y-92857142D02*
X173267219Y-92714285D01*
X173267219Y-92714285D02*
X173267219Y-92619047D01*
X173267219Y-92619047D02*
X173314838Y-92476190D01*
X173314838Y-92476190D02*
X173362457Y-92428571D01*
X174267219Y-91999999D02*
X173267219Y-91999999D01*
X174267219Y-91571428D02*
X173743409Y-91571428D01*
X173743409Y-91571428D02*
X173648171Y-91619047D01*
X173648171Y-91619047D02*
X173600552Y-91714285D01*
X173600552Y-91714285D02*
X173600552Y-91857142D01*
X173600552Y-91857142D02*
X173648171Y-91952380D01*
X173648171Y-91952380D02*
X173695790Y-91999999D01*
X173267219Y-90476189D02*
X174267219Y-90142856D01*
X174267219Y-90142856D02*
X173267219Y-89809523D01*
X174267219Y-88952380D02*
X174267219Y-89523808D01*
X174267219Y-89238094D02*
X173267219Y-89238094D01*
X173267219Y-89238094D02*
X173410076Y-89333332D01*
X173410076Y-89333332D02*
X173505314Y-89428570D01*
X173505314Y-89428570D02*
X173552933Y-89523808D01*
X174171980Y-88523808D02*
X174219600Y-88476189D01*
X174219600Y-88476189D02*
X174267219Y-88523808D01*
X174267219Y-88523808D02*
X174219600Y-88571427D01*
X174219600Y-88571427D02*
X174171980Y-88523808D01*
X174171980Y-88523808D02*
X174267219Y-88523808D01*
X173267219Y-88142856D02*
X173267219Y-87523809D01*
X173267219Y-87523809D02*
X173648171Y-87857142D01*
X173648171Y-87857142D02*
X173648171Y-87714285D01*
X173648171Y-87714285D02*
X173695790Y-87619047D01*
X173695790Y-87619047D02*
X173743409Y-87571428D01*
X173743409Y-87571428D02*
X173838647Y-87523809D01*
X173838647Y-87523809D02*
X174076742Y-87523809D01*
X174076742Y-87523809D02*
X174171980Y-87571428D01*
X174171980Y-87571428D02*
X174219600Y-87619047D01*
X174219600Y-87619047D02*
X174267219Y-87714285D01*
X174267219Y-87714285D02*
X174267219Y-87999999D01*
X174267219Y-87999999D02*
X174219600Y-88095237D01*
X174219600Y-88095237D02*
X174171980Y-88142856D01*
D11*
X157033333Y-92159580D02*
X156985714Y-92207200D01*
X156985714Y-92207200D02*
X156842857Y-92254819D01*
X156842857Y-92254819D02*
X156747619Y-92254819D01*
X156747619Y-92254819D02*
X156604762Y-92207200D01*
X156604762Y-92207200D02*
X156509524Y-92111961D01*
X156509524Y-92111961D02*
X156461905Y-92016723D01*
X156461905Y-92016723D02*
X156414286Y-91826247D01*
X156414286Y-91826247D02*
X156414286Y-91683390D01*
X156414286Y-91683390D02*
X156461905Y-91492914D01*
X156461905Y-91492914D02*
X156509524Y-91397676D01*
X156509524Y-91397676D02*
X156604762Y-91302438D01*
X156604762Y-91302438D02*
X156747619Y-91254819D01*
X156747619Y-91254819D02*
X156842857Y-91254819D01*
X156842857Y-91254819D02*
X156985714Y-91302438D01*
X156985714Y-91302438D02*
X157033333Y-91350057D01*
X157604762Y-91683390D02*
X157509524Y-91635771D01*
X157509524Y-91635771D02*
X157461905Y-91588152D01*
X157461905Y-91588152D02*
X157414286Y-91492914D01*
X157414286Y-91492914D02*
X157414286Y-91445295D01*
X157414286Y-91445295D02*
X157461905Y-91350057D01*
X157461905Y-91350057D02*
X157509524Y-91302438D01*
X157509524Y-91302438D02*
X157604762Y-91254819D01*
X157604762Y-91254819D02*
X157795238Y-91254819D01*
X157795238Y-91254819D02*
X157890476Y-91302438D01*
X157890476Y-91302438D02*
X157938095Y-91350057D01*
X157938095Y-91350057D02*
X157985714Y-91445295D01*
X157985714Y-91445295D02*
X157985714Y-91492914D01*
X157985714Y-91492914D02*
X157938095Y-91588152D01*
X157938095Y-91588152D02*
X157890476Y-91635771D01*
X157890476Y-91635771D02*
X157795238Y-91683390D01*
X157795238Y-91683390D02*
X157604762Y-91683390D01*
X157604762Y-91683390D02*
X157509524Y-91731009D01*
X157509524Y-91731009D02*
X157461905Y-91778628D01*
X157461905Y-91778628D02*
X157414286Y-91873866D01*
X157414286Y-91873866D02*
X157414286Y-92064342D01*
X157414286Y-92064342D02*
X157461905Y-92159580D01*
X157461905Y-92159580D02*
X157509524Y-92207200D01*
X157509524Y-92207200D02*
X157604762Y-92254819D01*
X157604762Y-92254819D02*
X157795238Y-92254819D01*
X157795238Y-92254819D02*
X157890476Y-92207200D01*
X157890476Y-92207200D02*
X157938095Y-92159580D01*
X157938095Y-92159580D02*
X157985714Y-92064342D01*
X157985714Y-92064342D02*
X157985714Y-91873866D01*
X157985714Y-91873866D02*
X157938095Y-91778628D01*
X157938095Y-91778628D02*
X157890476Y-91731009D01*
X157890476Y-91731009D02*
X157795238Y-91683390D01*
X160654819Y-81266666D02*
X160178628Y-81599999D01*
X160654819Y-81838094D02*
X159654819Y-81838094D01*
X159654819Y-81838094D02*
X159654819Y-81457142D01*
X159654819Y-81457142D02*
X159702438Y-81361904D01*
X159702438Y-81361904D02*
X159750057Y-81314285D01*
X159750057Y-81314285D02*
X159845295Y-81266666D01*
X159845295Y-81266666D02*
X159988152Y-81266666D01*
X159988152Y-81266666D02*
X160083390Y-81314285D01*
X160083390Y-81314285D02*
X160131009Y-81361904D01*
X160131009Y-81361904D02*
X160178628Y-81457142D01*
X160178628Y-81457142D02*
X160178628Y-81838094D01*
X159654819Y-80933332D02*
X159654819Y-80314285D01*
X159654819Y-80314285D02*
X160035771Y-80647618D01*
X160035771Y-80647618D02*
X160035771Y-80504761D01*
X160035771Y-80504761D02*
X160083390Y-80409523D01*
X160083390Y-80409523D02*
X160131009Y-80361904D01*
X160131009Y-80361904D02*
X160226247Y-80314285D01*
X160226247Y-80314285D02*
X160464342Y-80314285D01*
X160464342Y-80314285D02*
X160559580Y-80361904D01*
X160559580Y-80361904D02*
X160607200Y-80409523D01*
X160607200Y-80409523D02*
X160654819Y-80504761D01*
X160654819Y-80504761D02*
X160654819Y-80790475D01*
X160654819Y-80790475D02*
X160607200Y-80885713D01*
X160607200Y-80885713D02*
X160559580Y-80933332D01*
X143650057Y-95945238D02*
X143602438Y-96040476D01*
X143602438Y-96040476D02*
X143507200Y-96135714D01*
X143507200Y-96135714D02*
X143364342Y-96278571D01*
X143364342Y-96278571D02*
X143316723Y-96373809D01*
X143316723Y-96373809D02*
X143316723Y-96469047D01*
X143554819Y-96421428D02*
X143507200Y-96516666D01*
X143507200Y-96516666D02*
X143411961Y-96611904D01*
X143411961Y-96611904D02*
X143221485Y-96659523D01*
X143221485Y-96659523D02*
X142888152Y-96659523D01*
X142888152Y-96659523D02*
X142697676Y-96611904D01*
X142697676Y-96611904D02*
X142602438Y-96516666D01*
X142602438Y-96516666D02*
X142554819Y-96421428D01*
X142554819Y-96421428D02*
X142554819Y-96230952D01*
X142554819Y-96230952D02*
X142602438Y-96135714D01*
X142602438Y-96135714D02*
X142697676Y-96040476D01*
X142697676Y-96040476D02*
X142888152Y-95992857D01*
X142888152Y-95992857D02*
X143221485Y-95992857D01*
X143221485Y-95992857D02*
X143411961Y-96040476D01*
X143411961Y-96040476D02*
X143507200Y-96135714D01*
X143507200Y-96135714D02*
X143554819Y-96230952D01*
X143554819Y-96230952D02*
X143554819Y-96421428D01*
X143554819Y-95040476D02*
X143554819Y-95611904D01*
X143554819Y-95326190D02*
X142554819Y-95326190D01*
X142554819Y-95326190D02*
X142697676Y-95421428D01*
X142697676Y-95421428D02*
X142792914Y-95516666D01*
X142792914Y-95516666D02*
X142840533Y-95611904D01*
X162289580Y-106616666D02*
X162337200Y-106664285D01*
X162337200Y-106664285D02*
X162384819Y-106807142D01*
X162384819Y-106807142D02*
X162384819Y-106902380D01*
X162384819Y-106902380D02*
X162337200Y-107045237D01*
X162337200Y-107045237D02*
X162241961Y-107140475D01*
X162241961Y-107140475D02*
X162146723Y-107188094D01*
X162146723Y-107188094D02*
X161956247Y-107235713D01*
X161956247Y-107235713D02*
X161813390Y-107235713D01*
X161813390Y-107235713D02*
X161622914Y-107188094D01*
X161622914Y-107188094D02*
X161527676Y-107140475D01*
X161527676Y-107140475D02*
X161432438Y-107045237D01*
X161432438Y-107045237D02*
X161384819Y-106902380D01*
X161384819Y-106902380D02*
X161384819Y-106807142D01*
X161384819Y-106807142D02*
X161432438Y-106664285D01*
X161432438Y-106664285D02*
X161480057Y-106616666D01*
X161384819Y-106283332D02*
X161384819Y-105664285D01*
X161384819Y-105664285D02*
X161765771Y-105997618D01*
X161765771Y-105997618D02*
X161765771Y-105854761D01*
X161765771Y-105854761D02*
X161813390Y-105759523D01*
X161813390Y-105759523D02*
X161861009Y-105711904D01*
X161861009Y-105711904D02*
X161956247Y-105664285D01*
X161956247Y-105664285D02*
X162194342Y-105664285D01*
X162194342Y-105664285D02*
X162289580Y-105711904D01*
X162289580Y-105711904D02*
X162337200Y-105759523D01*
X162337200Y-105759523D02*
X162384819Y-105854761D01*
X162384819Y-105854761D02*
X162384819Y-106140475D01*
X162384819Y-106140475D02*
X162337200Y-106235713D01*
X162337200Y-106235713D02*
X162289580Y-106283332D01*
X165438095Y-114504819D02*
X165438095Y-113504819D01*
X165438095Y-113981009D02*
X166009523Y-113981009D01*
X166009523Y-114504819D02*
X166009523Y-113504819D01*
X166390476Y-113504819D02*
X167009523Y-113504819D01*
X167009523Y-113504819D02*
X166676190Y-113885771D01*
X166676190Y-113885771D02*
X166819047Y-113885771D01*
X166819047Y-113885771D02*
X166914285Y-113933390D01*
X166914285Y-113933390D02*
X166961904Y-113981009D01*
X166961904Y-113981009D02*
X167009523Y-114076247D01*
X167009523Y-114076247D02*
X167009523Y-114314342D01*
X167009523Y-114314342D02*
X166961904Y-114409580D01*
X166961904Y-114409580D02*
X166914285Y-114457200D01*
X166914285Y-114457200D02*
X166819047Y-114504819D01*
X166819047Y-114504819D02*
X166533333Y-114504819D01*
X166533333Y-114504819D02*
X166438095Y-114457200D01*
X166438095Y-114457200D02*
X166390476Y-114409580D01*
X130338095Y-90504819D02*
X130338095Y-91314342D01*
X130338095Y-91314342D02*
X130385714Y-91409580D01*
X130385714Y-91409580D02*
X130433333Y-91457200D01*
X130433333Y-91457200D02*
X130528571Y-91504819D01*
X130528571Y-91504819D02*
X130719047Y-91504819D01*
X130719047Y-91504819D02*
X130814285Y-91457200D01*
X130814285Y-91457200D02*
X130861904Y-91409580D01*
X130861904Y-91409580D02*
X130909523Y-91314342D01*
X130909523Y-91314342D02*
X130909523Y-90504819D01*
X131909523Y-91504819D02*
X131338095Y-91504819D01*
X131623809Y-91504819D02*
X131623809Y-90504819D01*
X131623809Y-90504819D02*
X131528571Y-90647676D01*
X131528571Y-90647676D02*
X131433333Y-90742914D01*
X131433333Y-90742914D02*
X131338095Y-90790533D01*
X131793095Y-94994819D02*
X131793095Y-95804342D01*
X131793095Y-95804342D02*
X131840714Y-95899580D01*
X131840714Y-95899580D02*
X131888333Y-95947200D01*
X131888333Y-95947200D02*
X131983571Y-95994819D01*
X131983571Y-95994819D02*
X132174047Y-95994819D01*
X132174047Y-95994819D02*
X132269285Y-95947200D01*
X132269285Y-95947200D02*
X132316904Y-95899580D01*
X132316904Y-95899580D02*
X132364523Y-95804342D01*
X132364523Y-95804342D02*
X132364523Y-94994819D01*
X132793095Y-95090057D02*
X132840714Y-95042438D01*
X132840714Y-95042438D02*
X132935952Y-94994819D01*
X132935952Y-94994819D02*
X133174047Y-94994819D01*
X133174047Y-94994819D02*
X133269285Y-95042438D01*
X133269285Y-95042438D02*
X133316904Y-95090057D01*
X133316904Y-95090057D02*
X133364523Y-95185295D01*
X133364523Y-95185295D02*
X133364523Y-95280533D01*
X133364523Y-95280533D02*
X133316904Y-95423390D01*
X133316904Y-95423390D02*
X132745476Y-95994819D01*
X132745476Y-95994819D02*
X133364523Y-95994819D01*
X141033333Y-100979580D02*
X140985714Y-101027200D01*
X140985714Y-101027200D02*
X140842857Y-101074819D01*
X140842857Y-101074819D02*
X140747619Y-101074819D01*
X140747619Y-101074819D02*
X140604762Y-101027200D01*
X140604762Y-101027200D02*
X140509524Y-100931961D01*
X140509524Y-100931961D02*
X140461905Y-100836723D01*
X140461905Y-100836723D02*
X140414286Y-100646247D01*
X140414286Y-100646247D02*
X140414286Y-100503390D01*
X140414286Y-100503390D02*
X140461905Y-100312914D01*
X140461905Y-100312914D02*
X140509524Y-100217676D01*
X140509524Y-100217676D02*
X140604762Y-100122438D01*
X140604762Y-100122438D02*
X140747619Y-100074819D01*
X140747619Y-100074819D02*
X140842857Y-100074819D01*
X140842857Y-100074819D02*
X140985714Y-100122438D01*
X140985714Y-100122438D02*
X141033333Y-100170057D01*
X141938095Y-100074819D02*
X141461905Y-100074819D01*
X141461905Y-100074819D02*
X141414286Y-100551009D01*
X141414286Y-100551009D02*
X141461905Y-100503390D01*
X141461905Y-100503390D02*
X141557143Y-100455771D01*
X141557143Y-100455771D02*
X141795238Y-100455771D01*
X141795238Y-100455771D02*
X141890476Y-100503390D01*
X141890476Y-100503390D02*
X141938095Y-100551009D01*
X141938095Y-100551009D02*
X141985714Y-100646247D01*
X141985714Y-100646247D02*
X141985714Y-100884342D01*
X141985714Y-100884342D02*
X141938095Y-100979580D01*
X141938095Y-100979580D02*
X141890476Y-101027200D01*
X141890476Y-101027200D02*
X141795238Y-101074819D01*
X141795238Y-101074819D02*
X141557143Y-101074819D01*
X141557143Y-101074819D02*
X141461905Y-101027200D01*
X141461905Y-101027200D02*
X141414286Y-100979580D01*
X156404761Y-104159580D02*
X156357142Y-104207200D01*
X156357142Y-104207200D02*
X156214285Y-104254819D01*
X156214285Y-104254819D02*
X156119047Y-104254819D01*
X156119047Y-104254819D02*
X155976190Y-104207200D01*
X155976190Y-104207200D02*
X155880952Y-104111961D01*
X155880952Y-104111961D02*
X155833333Y-104016723D01*
X155833333Y-104016723D02*
X155785714Y-103826247D01*
X155785714Y-103826247D02*
X155785714Y-103683390D01*
X155785714Y-103683390D02*
X155833333Y-103492914D01*
X155833333Y-103492914D02*
X155880952Y-103397676D01*
X155880952Y-103397676D02*
X155976190Y-103302438D01*
X155976190Y-103302438D02*
X156119047Y-103254819D01*
X156119047Y-103254819D02*
X156214285Y-103254819D01*
X156214285Y-103254819D02*
X156357142Y-103302438D01*
X156357142Y-103302438D02*
X156404761Y-103350057D01*
X157309523Y-104254819D02*
X156833333Y-104254819D01*
X156833333Y-104254819D02*
X156833333Y-103254819D01*
X157642857Y-104254819D02*
X157642857Y-103254819D01*
X158214285Y-104254819D02*
X157785714Y-103683390D01*
X158214285Y-103254819D02*
X157642857Y-103826247D01*
X159488095Y-92342319D02*
X159488095Y-93151842D01*
X159488095Y-93151842D02*
X159535714Y-93247080D01*
X159535714Y-93247080D02*
X159583333Y-93294700D01*
X159583333Y-93294700D02*
X159678571Y-93342319D01*
X159678571Y-93342319D02*
X159869047Y-93342319D01*
X159869047Y-93342319D02*
X159964285Y-93294700D01*
X159964285Y-93294700D02*
X160011904Y-93247080D01*
X160011904Y-93247080D02*
X160059523Y-93151842D01*
X160059523Y-93151842D02*
X160059523Y-92342319D01*
X161011904Y-92342319D02*
X160535714Y-92342319D01*
X160535714Y-92342319D02*
X160488095Y-92818509D01*
X160488095Y-92818509D02*
X160535714Y-92770890D01*
X160535714Y-92770890D02*
X160630952Y-92723271D01*
X160630952Y-92723271D02*
X160869047Y-92723271D01*
X160869047Y-92723271D02*
X160964285Y-92770890D01*
X160964285Y-92770890D02*
X161011904Y-92818509D01*
X161011904Y-92818509D02*
X161059523Y-92913747D01*
X161059523Y-92913747D02*
X161059523Y-93151842D01*
X161059523Y-93151842D02*
X161011904Y-93247080D01*
X161011904Y-93247080D02*
X160964285Y-93294700D01*
X160964285Y-93294700D02*
X160869047Y-93342319D01*
X160869047Y-93342319D02*
X160630952Y-93342319D01*
X160630952Y-93342319D02*
X160535714Y-93294700D01*
X160535714Y-93294700D02*
X160488095Y-93247080D01*
X164333333Y-110404819D02*
X164000000Y-109928628D01*
X163761905Y-110404819D02*
X163761905Y-109404819D01*
X163761905Y-109404819D02*
X164142857Y-109404819D01*
X164142857Y-109404819D02*
X164238095Y-109452438D01*
X164238095Y-109452438D02*
X164285714Y-109500057D01*
X164285714Y-109500057D02*
X164333333Y-109595295D01*
X164333333Y-109595295D02*
X164333333Y-109738152D01*
X164333333Y-109738152D02*
X164285714Y-109833390D01*
X164285714Y-109833390D02*
X164238095Y-109881009D01*
X164238095Y-109881009D02*
X164142857Y-109928628D01*
X164142857Y-109928628D02*
X163761905Y-109928628D01*
X165238095Y-109404819D02*
X164761905Y-109404819D01*
X164761905Y-109404819D02*
X164714286Y-109881009D01*
X164714286Y-109881009D02*
X164761905Y-109833390D01*
X164761905Y-109833390D02*
X164857143Y-109785771D01*
X164857143Y-109785771D02*
X165095238Y-109785771D01*
X165095238Y-109785771D02*
X165190476Y-109833390D01*
X165190476Y-109833390D02*
X165238095Y-109881009D01*
X165238095Y-109881009D02*
X165285714Y-109976247D01*
X165285714Y-109976247D02*
X165285714Y-110214342D01*
X165285714Y-110214342D02*
X165238095Y-110309580D01*
X165238095Y-110309580D02*
X165190476Y-110357200D01*
X165190476Y-110357200D02*
X165095238Y-110404819D01*
X165095238Y-110404819D02*
X164857143Y-110404819D01*
X164857143Y-110404819D02*
X164761905Y-110357200D01*
X164761905Y-110357200D02*
X164714286Y-110309580D01*
X135314286Y-95854819D02*
X135314286Y-94854819D01*
X135314286Y-94854819D02*
X135552381Y-94854819D01*
X135552381Y-94854819D02*
X135695238Y-94902438D01*
X135695238Y-94902438D02*
X135790476Y-94997676D01*
X135790476Y-94997676D02*
X135838095Y-95092914D01*
X135838095Y-95092914D02*
X135885714Y-95283390D01*
X135885714Y-95283390D02*
X135885714Y-95426247D01*
X135885714Y-95426247D02*
X135838095Y-95616723D01*
X135838095Y-95616723D02*
X135790476Y-95711961D01*
X135790476Y-95711961D02*
X135695238Y-95807200D01*
X135695238Y-95807200D02*
X135552381Y-95854819D01*
X135552381Y-95854819D02*
X135314286Y-95854819D01*
X136171429Y-94854819D02*
X136742857Y-94854819D01*
X136457143Y-95854819D02*
X136457143Y-94854819D01*
X136838096Y-95950057D02*
X137600000Y-95950057D01*
X137838096Y-95854819D02*
X137838096Y-94854819D01*
X138314286Y-95854819D02*
X138314286Y-94854819D01*
X138314286Y-94854819D02*
X138885714Y-95854819D01*
X138885714Y-95854819D02*
X138885714Y-94854819D01*
X171371666Y-104174819D02*
X171371666Y-104889104D01*
X171371666Y-104889104D02*
X171324047Y-105031961D01*
X171324047Y-105031961D02*
X171228809Y-105127200D01*
X171228809Y-105127200D02*
X171085952Y-105174819D01*
X171085952Y-105174819D02*
X170990714Y-105174819D01*
X171800238Y-104270057D02*
X171847857Y-104222438D01*
X171847857Y-104222438D02*
X171943095Y-104174819D01*
X171943095Y-104174819D02*
X172181190Y-104174819D01*
X172181190Y-104174819D02*
X172276428Y-104222438D01*
X172276428Y-104222438D02*
X172324047Y-104270057D01*
X172324047Y-104270057D02*
X172371666Y-104365295D01*
X172371666Y-104365295D02*
X172371666Y-104460533D01*
X172371666Y-104460533D02*
X172324047Y-104603390D01*
X172324047Y-104603390D02*
X171752619Y-105174819D01*
X171752619Y-105174819D02*
X172371666Y-105174819D01*
X160604819Y-86116666D02*
X160128628Y-86449999D01*
X160604819Y-86688094D02*
X159604819Y-86688094D01*
X159604819Y-86688094D02*
X159604819Y-86307142D01*
X159604819Y-86307142D02*
X159652438Y-86211904D01*
X159652438Y-86211904D02*
X159700057Y-86164285D01*
X159700057Y-86164285D02*
X159795295Y-86116666D01*
X159795295Y-86116666D02*
X159938152Y-86116666D01*
X159938152Y-86116666D02*
X160033390Y-86164285D01*
X160033390Y-86164285D02*
X160081009Y-86211904D01*
X160081009Y-86211904D02*
X160128628Y-86307142D01*
X160128628Y-86307142D02*
X160128628Y-86688094D01*
X159938152Y-85259523D02*
X160604819Y-85259523D01*
X159557200Y-85497618D02*
X160271485Y-85735713D01*
X160271485Y-85735713D02*
X160271485Y-85116666D01*
X128824819Y-117883333D02*
X129539104Y-117883333D01*
X129539104Y-117883333D02*
X129681961Y-117930952D01*
X129681961Y-117930952D02*
X129777200Y-118026190D01*
X129777200Y-118026190D02*
X129824819Y-118169047D01*
X129824819Y-118169047D02*
X129824819Y-118264285D01*
X128824819Y-117502380D02*
X128824819Y-116883333D01*
X128824819Y-116883333D02*
X129205771Y-117216666D01*
X129205771Y-117216666D02*
X129205771Y-117073809D01*
X129205771Y-117073809D02*
X129253390Y-116978571D01*
X129253390Y-116978571D02*
X129301009Y-116930952D01*
X129301009Y-116930952D02*
X129396247Y-116883333D01*
X129396247Y-116883333D02*
X129634342Y-116883333D01*
X129634342Y-116883333D02*
X129729580Y-116930952D01*
X129729580Y-116930952D02*
X129777200Y-116978571D01*
X129777200Y-116978571D02*
X129824819Y-117073809D01*
X129824819Y-117073809D02*
X129824819Y-117359523D01*
X129824819Y-117359523D02*
X129777200Y-117454761D01*
X129777200Y-117454761D02*
X129729580Y-117502380D01*
X134861904Y-119902438D02*
X134766666Y-119854819D01*
X134766666Y-119854819D02*
X134623809Y-119854819D01*
X134623809Y-119854819D02*
X134480952Y-119902438D01*
X134480952Y-119902438D02*
X134385714Y-119997676D01*
X134385714Y-119997676D02*
X134338095Y-120092914D01*
X134338095Y-120092914D02*
X134290476Y-120283390D01*
X134290476Y-120283390D02*
X134290476Y-120426247D01*
X134290476Y-120426247D02*
X134338095Y-120616723D01*
X134338095Y-120616723D02*
X134385714Y-120711961D01*
X134385714Y-120711961D02*
X134480952Y-120807200D01*
X134480952Y-120807200D02*
X134623809Y-120854819D01*
X134623809Y-120854819D02*
X134719047Y-120854819D01*
X134719047Y-120854819D02*
X134861904Y-120807200D01*
X134861904Y-120807200D02*
X134909523Y-120759580D01*
X134909523Y-120759580D02*
X134909523Y-120426247D01*
X134909523Y-120426247D02*
X134719047Y-120426247D01*
X135338095Y-120854819D02*
X135338095Y-119854819D01*
X135338095Y-119854819D02*
X135909523Y-120854819D01*
X135909523Y-120854819D02*
X135909523Y-119854819D01*
X136385714Y-120854819D02*
X136385714Y-119854819D01*
X136385714Y-119854819D02*
X136623809Y-119854819D01*
X136623809Y-119854819D02*
X136766666Y-119902438D01*
X136766666Y-119902438D02*
X136861904Y-119997676D01*
X136861904Y-119997676D02*
X136909523Y-120092914D01*
X136909523Y-120092914D02*
X136957142Y-120283390D01*
X136957142Y-120283390D02*
X136957142Y-120426247D01*
X136957142Y-120426247D02*
X136909523Y-120616723D01*
X136909523Y-120616723D02*
X136861904Y-120711961D01*
X136861904Y-120711961D02*
X136766666Y-120807200D01*
X136766666Y-120807200D02*
X136623809Y-120854819D01*
X136623809Y-120854819D02*
X136385714Y-120854819D01*
X137623809Y-121188152D02*
X137623809Y-119759580D01*
X138576190Y-121188152D02*
X138576190Y-119759580D01*
X139957142Y-120950057D02*
X139861904Y-120902438D01*
X139861904Y-120902438D02*
X139766666Y-120807200D01*
X139766666Y-120807200D02*
X139623809Y-120664342D01*
X139623809Y-120664342D02*
X139528571Y-120616723D01*
X139528571Y-120616723D02*
X139433333Y-120616723D01*
X139480952Y-120854819D02*
X139385714Y-120807200D01*
X139385714Y-120807200D02*
X139290476Y-120711961D01*
X139290476Y-120711961D02*
X139242857Y-120521485D01*
X139242857Y-120521485D02*
X139242857Y-120188152D01*
X139242857Y-120188152D02*
X139290476Y-119997676D01*
X139290476Y-119997676D02*
X139385714Y-119902438D01*
X139385714Y-119902438D02*
X139480952Y-119854819D01*
X139480952Y-119854819D02*
X139671428Y-119854819D01*
X139671428Y-119854819D02*
X139766666Y-119902438D01*
X139766666Y-119902438D02*
X139861904Y-119997676D01*
X139861904Y-119997676D02*
X139909523Y-120188152D01*
X139909523Y-120188152D02*
X139909523Y-120521485D01*
X139909523Y-120521485D02*
X139861904Y-120711961D01*
X139861904Y-120711961D02*
X139766666Y-120807200D01*
X139766666Y-120807200D02*
X139671428Y-120854819D01*
X139671428Y-120854819D02*
X139480952Y-120854819D01*
X140242857Y-119854819D02*
X140861904Y-119854819D01*
X140861904Y-119854819D02*
X140528571Y-120235771D01*
X140528571Y-120235771D02*
X140671428Y-120235771D01*
X140671428Y-120235771D02*
X140766666Y-120283390D01*
X140766666Y-120283390D02*
X140814285Y-120331009D01*
X140814285Y-120331009D02*
X140861904Y-120426247D01*
X140861904Y-120426247D02*
X140861904Y-120664342D01*
X140861904Y-120664342D02*
X140814285Y-120759580D01*
X140814285Y-120759580D02*
X140766666Y-120807200D01*
X140766666Y-120807200D02*
X140671428Y-120854819D01*
X140671428Y-120854819D02*
X140385714Y-120854819D01*
X140385714Y-120854819D02*
X140290476Y-120807200D01*
X140290476Y-120807200D02*
X140242857Y-120759580D01*
X141290476Y-120473866D02*
X142052381Y-120473866D01*
X143195237Y-120950057D02*
X143099999Y-120902438D01*
X143099999Y-120902438D02*
X143004761Y-120807200D01*
X143004761Y-120807200D02*
X142861904Y-120664342D01*
X142861904Y-120664342D02*
X142766666Y-120616723D01*
X142766666Y-120616723D02*
X142671428Y-120616723D01*
X142719047Y-120854819D02*
X142623809Y-120807200D01*
X142623809Y-120807200D02*
X142528571Y-120711961D01*
X142528571Y-120711961D02*
X142480952Y-120521485D01*
X142480952Y-120521485D02*
X142480952Y-120188152D01*
X142480952Y-120188152D02*
X142528571Y-119997676D01*
X142528571Y-119997676D02*
X142623809Y-119902438D01*
X142623809Y-119902438D02*
X142719047Y-119854819D01*
X142719047Y-119854819D02*
X142909523Y-119854819D01*
X142909523Y-119854819D02*
X143004761Y-119902438D01*
X143004761Y-119902438D02*
X143099999Y-119997676D01*
X143099999Y-119997676D02*
X143147618Y-120188152D01*
X143147618Y-120188152D02*
X143147618Y-120521485D01*
X143147618Y-120521485D02*
X143099999Y-120711961D01*
X143099999Y-120711961D02*
X143004761Y-120807200D01*
X143004761Y-120807200D02*
X142909523Y-120854819D01*
X142909523Y-120854819D02*
X142719047Y-120854819D01*
X144099999Y-120854819D02*
X143528571Y-120854819D01*
X143814285Y-120854819D02*
X143814285Y-119854819D01*
X143814285Y-119854819D02*
X143719047Y-119997676D01*
X143719047Y-119997676D02*
X143623809Y-120092914D01*
X143623809Y-120092914D02*
X143528571Y-120140533D01*
X144433333Y-119854819D02*
X145052380Y-119854819D01*
X145052380Y-119854819D02*
X144719047Y-120235771D01*
X144719047Y-120235771D02*
X144861904Y-120235771D01*
X144861904Y-120235771D02*
X144957142Y-120283390D01*
X144957142Y-120283390D02*
X145004761Y-120331009D01*
X145004761Y-120331009D02*
X145052380Y-120426247D01*
X145052380Y-120426247D02*
X145052380Y-120664342D01*
X145052380Y-120664342D02*
X145004761Y-120759580D01*
X145004761Y-120759580D02*
X144957142Y-120807200D01*
X144957142Y-120807200D02*
X144861904Y-120854819D01*
X144861904Y-120854819D02*
X144576190Y-120854819D01*
X144576190Y-120854819D02*
X144480952Y-120807200D01*
X144480952Y-120807200D02*
X144433333Y-120759580D01*
X145719047Y-121188152D02*
X145719047Y-119759580D01*
X146671428Y-121188152D02*
X146671428Y-119759580D01*
X147385714Y-120854819D02*
X147385714Y-119854819D01*
X147385714Y-119854819D02*
X147623809Y-119854819D01*
X147623809Y-119854819D02*
X147766666Y-119902438D01*
X147766666Y-119902438D02*
X147861904Y-119997676D01*
X147861904Y-119997676D02*
X147909523Y-120092914D01*
X147909523Y-120092914D02*
X147957142Y-120283390D01*
X147957142Y-120283390D02*
X147957142Y-120426247D01*
X147957142Y-120426247D02*
X147909523Y-120616723D01*
X147909523Y-120616723D02*
X147861904Y-120711961D01*
X147861904Y-120711961D02*
X147766666Y-120807200D01*
X147766666Y-120807200D02*
X147623809Y-120854819D01*
X147623809Y-120854819D02*
X147385714Y-120854819D01*
X148242857Y-119854819D02*
X148814285Y-119854819D01*
X148528571Y-120854819D02*
X148528571Y-119854819D01*
X148909524Y-120950057D02*
X149671428Y-120950057D01*
X150100000Y-119854819D02*
X150290476Y-119854819D01*
X150290476Y-119854819D02*
X150385714Y-119902438D01*
X150385714Y-119902438D02*
X150480952Y-119997676D01*
X150480952Y-119997676D02*
X150528571Y-120188152D01*
X150528571Y-120188152D02*
X150528571Y-120521485D01*
X150528571Y-120521485D02*
X150480952Y-120711961D01*
X150480952Y-120711961D02*
X150385714Y-120807200D01*
X150385714Y-120807200D02*
X150290476Y-120854819D01*
X150290476Y-120854819D02*
X150100000Y-120854819D01*
X150100000Y-120854819D02*
X150004762Y-120807200D01*
X150004762Y-120807200D02*
X149909524Y-120711961D01*
X149909524Y-120711961D02*
X149861905Y-120521485D01*
X149861905Y-120521485D02*
X149861905Y-120188152D01*
X149861905Y-120188152D02*
X149909524Y-119997676D01*
X149909524Y-119997676D02*
X150004762Y-119902438D01*
X150004762Y-119902438D02*
X150100000Y-119854819D01*
X150957143Y-119854819D02*
X150957143Y-120664342D01*
X150957143Y-120664342D02*
X151004762Y-120759580D01*
X151004762Y-120759580D02*
X151052381Y-120807200D01*
X151052381Y-120807200D02*
X151147619Y-120854819D01*
X151147619Y-120854819D02*
X151338095Y-120854819D01*
X151338095Y-120854819D02*
X151433333Y-120807200D01*
X151433333Y-120807200D02*
X151480952Y-120759580D01*
X151480952Y-120759580D02*
X151528571Y-120664342D01*
X151528571Y-120664342D02*
X151528571Y-119854819D01*
X151861905Y-119854819D02*
X152433333Y-119854819D01*
X152147619Y-120854819D02*
X152147619Y-119854819D01*
X153004762Y-121188152D02*
X153004762Y-119759580D01*
X153957143Y-121188152D02*
X153957143Y-119759580D01*
X155242857Y-120854819D02*
X154909524Y-120378628D01*
X154671429Y-120854819D02*
X154671429Y-119854819D01*
X154671429Y-119854819D02*
X155052381Y-119854819D01*
X155052381Y-119854819D02*
X155147619Y-119902438D01*
X155147619Y-119902438D02*
X155195238Y-119950057D01*
X155195238Y-119950057D02*
X155242857Y-120045295D01*
X155242857Y-120045295D02*
X155242857Y-120188152D01*
X155242857Y-120188152D02*
X155195238Y-120283390D01*
X155195238Y-120283390D02*
X155147619Y-120331009D01*
X155147619Y-120331009D02*
X155052381Y-120378628D01*
X155052381Y-120378628D02*
X154671429Y-120378628D01*
X155623810Y-120807200D02*
X155766667Y-120854819D01*
X155766667Y-120854819D02*
X156004762Y-120854819D01*
X156004762Y-120854819D02*
X156100000Y-120807200D01*
X156100000Y-120807200D02*
X156147619Y-120759580D01*
X156147619Y-120759580D02*
X156195238Y-120664342D01*
X156195238Y-120664342D02*
X156195238Y-120569104D01*
X156195238Y-120569104D02*
X156147619Y-120473866D01*
X156147619Y-120473866D02*
X156100000Y-120426247D01*
X156100000Y-120426247D02*
X156004762Y-120378628D01*
X156004762Y-120378628D02*
X155814286Y-120331009D01*
X155814286Y-120331009D02*
X155719048Y-120283390D01*
X155719048Y-120283390D02*
X155671429Y-120235771D01*
X155671429Y-120235771D02*
X155623810Y-120140533D01*
X155623810Y-120140533D02*
X155623810Y-120045295D01*
X155623810Y-120045295D02*
X155671429Y-119950057D01*
X155671429Y-119950057D02*
X155719048Y-119902438D01*
X155719048Y-119902438D02*
X155814286Y-119854819D01*
X155814286Y-119854819D02*
X156052381Y-119854819D01*
X156052381Y-119854819D02*
X156195238Y-119902438D01*
X156480953Y-119854819D02*
X157052381Y-119854819D01*
X156766667Y-120854819D02*
X156766667Y-119854819D01*
X157623810Y-121188152D02*
X157623810Y-119759580D01*
X158576191Y-121188152D02*
X158576191Y-119759580D01*
X159290477Y-120473866D02*
X160052382Y-120473866D01*
X159671429Y-120854819D02*
X159671429Y-120092914D01*
X161004762Y-119854819D02*
X160528572Y-119854819D01*
X160528572Y-119854819D02*
X160480953Y-120331009D01*
X160480953Y-120331009D02*
X160528572Y-120283390D01*
X160528572Y-120283390D02*
X160623810Y-120235771D01*
X160623810Y-120235771D02*
X160861905Y-120235771D01*
X160861905Y-120235771D02*
X160957143Y-120283390D01*
X160957143Y-120283390D02*
X161004762Y-120331009D01*
X161004762Y-120331009D02*
X161052381Y-120426247D01*
X161052381Y-120426247D02*
X161052381Y-120664342D01*
X161052381Y-120664342D02*
X161004762Y-120759580D01*
X161004762Y-120759580D02*
X160957143Y-120807200D01*
X160957143Y-120807200D02*
X160861905Y-120854819D01*
X160861905Y-120854819D02*
X160623810Y-120854819D01*
X160623810Y-120854819D02*
X160528572Y-120807200D01*
X160528572Y-120807200D02*
X160480953Y-120759580D01*
X161338096Y-119854819D02*
X161671429Y-120854819D01*
X161671429Y-120854819D02*
X162004762Y-119854819D01*
X163438095Y-82504819D02*
X163438095Y-81504819D01*
X163438095Y-81981009D02*
X164009523Y-81981009D01*
X164009523Y-82504819D02*
X164009523Y-81504819D01*
X164438095Y-81600057D02*
X164485714Y-81552438D01*
X164485714Y-81552438D02*
X164580952Y-81504819D01*
X164580952Y-81504819D02*
X164819047Y-81504819D01*
X164819047Y-81504819D02*
X164914285Y-81552438D01*
X164914285Y-81552438D02*
X164961904Y-81600057D01*
X164961904Y-81600057D02*
X165009523Y-81695295D01*
X165009523Y-81695295D02*
X165009523Y-81790533D01*
X165009523Y-81790533D02*
X164961904Y-81933390D01*
X164961904Y-81933390D02*
X164390476Y-82504819D01*
X164390476Y-82504819D02*
X165009523Y-82504819D01*
X147088095Y-88204819D02*
X147088095Y-89014342D01*
X147088095Y-89014342D02*
X147135714Y-89109580D01*
X147135714Y-89109580D02*
X147183333Y-89157200D01*
X147183333Y-89157200D02*
X147278571Y-89204819D01*
X147278571Y-89204819D02*
X147469047Y-89204819D01*
X147469047Y-89204819D02*
X147564285Y-89157200D01*
X147564285Y-89157200D02*
X147611904Y-89109580D01*
X147611904Y-89109580D02*
X147659523Y-89014342D01*
X147659523Y-89014342D02*
X147659523Y-88204819D01*
X148040476Y-88204819D02*
X148659523Y-88204819D01*
X148659523Y-88204819D02*
X148326190Y-88585771D01*
X148326190Y-88585771D02*
X148469047Y-88585771D01*
X148469047Y-88585771D02*
X148564285Y-88633390D01*
X148564285Y-88633390D02*
X148611904Y-88681009D01*
X148611904Y-88681009D02*
X148659523Y-88776247D01*
X148659523Y-88776247D02*
X148659523Y-89014342D01*
X148659523Y-89014342D02*
X148611904Y-89109580D01*
X148611904Y-89109580D02*
X148564285Y-89157200D01*
X148564285Y-89157200D02*
X148469047Y-89204819D01*
X148469047Y-89204819D02*
X148183333Y-89204819D01*
X148183333Y-89204819D02*
X148088095Y-89157200D01*
X148088095Y-89157200D02*
X148040476Y-89109580D01*
X141583333Y-92254819D02*
X141250000Y-91778628D01*
X141011905Y-92254819D02*
X141011905Y-91254819D01*
X141011905Y-91254819D02*
X141392857Y-91254819D01*
X141392857Y-91254819D02*
X141488095Y-91302438D01*
X141488095Y-91302438D02*
X141535714Y-91350057D01*
X141535714Y-91350057D02*
X141583333Y-91445295D01*
X141583333Y-91445295D02*
X141583333Y-91588152D01*
X141583333Y-91588152D02*
X141535714Y-91683390D01*
X141535714Y-91683390D02*
X141488095Y-91731009D01*
X141488095Y-91731009D02*
X141392857Y-91778628D01*
X141392857Y-91778628D02*
X141011905Y-91778628D01*
X142535714Y-92254819D02*
X141964286Y-92254819D01*
X142250000Y-92254819D02*
X142250000Y-91254819D01*
X142250000Y-91254819D02*
X142154762Y-91397676D01*
X142154762Y-91397676D02*
X142059524Y-91492914D01*
X142059524Y-91492914D02*
X141964286Y-91540533D01*
X127438095Y-84004819D02*
X127438095Y-83004819D01*
X127438095Y-83481009D02*
X128009523Y-83481009D01*
X128009523Y-84004819D02*
X128009523Y-83004819D01*
X129009523Y-84004819D02*
X128438095Y-84004819D01*
X128723809Y-84004819D02*
X128723809Y-83004819D01*
X128723809Y-83004819D02*
X128628571Y-83147676D01*
X128628571Y-83147676D02*
X128533333Y-83242914D01*
X128533333Y-83242914D02*
X128438095Y-83290533D01*
X154383333Y-99209580D02*
X154335714Y-99257200D01*
X154335714Y-99257200D02*
X154192857Y-99304819D01*
X154192857Y-99304819D02*
X154097619Y-99304819D01*
X154097619Y-99304819D02*
X153954762Y-99257200D01*
X153954762Y-99257200D02*
X153859524Y-99161961D01*
X153859524Y-99161961D02*
X153811905Y-99066723D01*
X153811905Y-99066723D02*
X153764286Y-98876247D01*
X153764286Y-98876247D02*
X153764286Y-98733390D01*
X153764286Y-98733390D02*
X153811905Y-98542914D01*
X153811905Y-98542914D02*
X153859524Y-98447676D01*
X153859524Y-98447676D02*
X153954762Y-98352438D01*
X153954762Y-98352438D02*
X154097619Y-98304819D01*
X154097619Y-98304819D02*
X154192857Y-98304819D01*
X154192857Y-98304819D02*
X154335714Y-98352438D01*
X154335714Y-98352438D02*
X154383333Y-98400057D01*
X155240476Y-98304819D02*
X155050000Y-98304819D01*
X155050000Y-98304819D02*
X154954762Y-98352438D01*
X154954762Y-98352438D02*
X154907143Y-98400057D01*
X154907143Y-98400057D02*
X154811905Y-98542914D01*
X154811905Y-98542914D02*
X154764286Y-98733390D01*
X154764286Y-98733390D02*
X154764286Y-99114342D01*
X154764286Y-99114342D02*
X154811905Y-99209580D01*
X154811905Y-99209580D02*
X154859524Y-99257200D01*
X154859524Y-99257200D02*
X154954762Y-99304819D01*
X154954762Y-99304819D02*
X155145238Y-99304819D01*
X155145238Y-99304819D02*
X155240476Y-99257200D01*
X155240476Y-99257200D02*
X155288095Y-99209580D01*
X155288095Y-99209580D02*
X155335714Y-99114342D01*
X155335714Y-99114342D02*
X155335714Y-98876247D01*
X155335714Y-98876247D02*
X155288095Y-98781009D01*
X155288095Y-98781009D02*
X155240476Y-98733390D01*
X155240476Y-98733390D02*
X155145238Y-98685771D01*
X155145238Y-98685771D02*
X154954762Y-98685771D01*
X154954762Y-98685771D02*
X154859524Y-98733390D01*
X154859524Y-98733390D02*
X154811905Y-98781009D01*
X154811905Y-98781009D02*
X154764286Y-98876247D01*
X152539819Y-110861904D02*
X153349342Y-110861904D01*
X153349342Y-110861904D02*
X153444580Y-110814285D01*
X153444580Y-110814285D02*
X153492200Y-110766666D01*
X153492200Y-110766666D02*
X153539819Y-110671428D01*
X153539819Y-110671428D02*
X153539819Y-110480952D01*
X153539819Y-110480952D02*
X153492200Y-110385714D01*
X153492200Y-110385714D02*
X153444580Y-110338095D01*
X153444580Y-110338095D02*
X153349342Y-110290476D01*
X153349342Y-110290476D02*
X152539819Y-110290476D01*
X152539819Y-109385714D02*
X152539819Y-109576190D01*
X152539819Y-109576190D02*
X152587438Y-109671428D01*
X152587438Y-109671428D02*
X152635057Y-109719047D01*
X152635057Y-109719047D02*
X152777914Y-109814285D01*
X152777914Y-109814285D02*
X152968390Y-109861904D01*
X152968390Y-109861904D02*
X153349342Y-109861904D01*
X153349342Y-109861904D02*
X153444580Y-109814285D01*
X153444580Y-109814285D02*
X153492200Y-109766666D01*
X153492200Y-109766666D02*
X153539819Y-109671428D01*
X153539819Y-109671428D02*
X153539819Y-109480952D01*
X153539819Y-109480952D02*
X153492200Y-109385714D01*
X153492200Y-109385714D02*
X153444580Y-109338095D01*
X153444580Y-109338095D02*
X153349342Y-109290476D01*
X153349342Y-109290476D02*
X153111247Y-109290476D01*
X153111247Y-109290476D02*
X153016009Y-109338095D01*
X153016009Y-109338095D02*
X152968390Y-109385714D01*
X152968390Y-109385714D02*
X152920771Y-109480952D01*
X152920771Y-109480952D02*
X152920771Y-109671428D01*
X152920771Y-109671428D02*
X152968390Y-109766666D01*
X152968390Y-109766666D02*
X153016009Y-109814285D01*
X153016009Y-109814285D02*
X153111247Y-109861904D01*
X166604819Y-93702380D02*
X165604819Y-93702380D01*
X165604819Y-93702380D02*
X165604819Y-93464285D01*
X165604819Y-93464285D02*
X165652438Y-93321428D01*
X165652438Y-93321428D02*
X165747676Y-93226190D01*
X165747676Y-93226190D02*
X165842914Y-93178571D01*
X165842914Y-93178571D02*
X166033390Y-93130952D01*
X166033390Y-93130952D02*
X166176247Y-93130952D01*
X166176247Y-93130952D02*
X166366723Y-93178571D01*
X166366723Y-93178571D02*
X166461961Y-93226190D01*
X166461961Y-93226190D02*
X166557200Y-93321428D01*
X166557200Y-93321428D02*
X166604819Y-93464285D01*
X166604819Y-93464285D02*
X166604819Y-93702380D01*
X165604819Y-92845237D02*
X165604819Y-92273809D01*
X166604819Y-92559523D02*
X165604819Y-92559523D01*
X166700057Y-92178571D02*
X166700057Y-91416666D01*
X165604819Y-90988094D02*
X165604819Y-90797618D01*
X165604819Y-90797618D02*
X165652438Y-90702380D01*
X165652438Y-90702380D02*
X165747676Y-90607142D01*
X165747676Y-90607142D02*
X165938152Y-90559523D01*
X165938152Y-90559523D02*
X166271485Y-90559523D01*
X166271485Y-90559523D02*
X166461961Y-90607142D01*
X166461961Y-90607142D02*
X166557200Y-90702380D01*
X166557200Y-90702380D02*
X166604819Y-90797618D01*
X166604819Y-90797618D02*
X166604819Y-90988094D01*
X166604819Y-90988094D02*
X166557200Y-91083332D01*
X166557200Y-91083332D02*
X166461961Y-91178570D01*
X166461961Y-91178570D02*
X166271485Y-91226189D01*
X166271485Y-91226189D02*
X165938152Y-91226189D01*
X165938152Y-91226189D02*
X165747676Y-91178570D01*
X165747676Y-91178570D02*
X165652438Y-91083332D01*
X165652438Y-91083332D02*
X165604819Y-90988094D01*
X165604819Y-90130951D02*
X166414342Y-90130951D01*
X166414342Y-90130951D02*
X166509580Y-90083332D01*
X166509580Y-90083332D02*
X166557200Y-90035713D01*
X166557200Y-90035713D02*
X166604819Y-89940475D01*
X166604819Y-89940475D02*
X166604819Y-89749999D01*
X166604819Y-89749999D02*
X166557200Y-89654761D01*
X166557200Y-89654761D02*
X166509580Y-89607142D01*
X166509580Y-89607142D02*
X166414342Y-89559523D01*
X166414342Y-89559523D02*
X165604819Y-89559523D01*
X165604819Y-89226189D02*
X165604819Y-88654761D01*
X166604819Y-88940475D02*
X165604819Y-88940475D01*
X125977319Y-103883333D02*
X126691604Y-103883333D01*
X126691604Y-103883333D02*
X126834461Y-103930952D01*
X126834461Y-103930952D02*
X126929700Y-104026190D01*
X126929700Y-104026190D02*
X126977319Y-104169047D01*
X126977319Y-104169047D02*
X126977319Y-104264285D01*
X126977319Y-102883333D02*
X126977319Y-103454761D01*
X126977319Y-103169047D02*
X125977319Y-103169047D01*
X125977319Y-103169047D02*
X126120176Y-103264285D01*
X126120176Y-103264285D02*
X126215414Y-103359523D01*
X126215414Y-103359523D02*
X126263033Y-103454761D01*
X123438095Y-113204819D02*
X123438095Y-112204819D01*
X123438095Y-112681009D02*
X124009523Y-112681009D01*
X124009523Y-113204819D02*
X124009523Y-112204819D01*
X124914285Y-112538152D02*
X124914285Y-113204819D01*
X124676190Y-112157200D02*
X124438095Y-112871485D01*
X124438095Y-112871485D02*
X125057142Y-112871485D01*
X166289580Y-106616666D02*
X166337200Y-106664285D01*
X166337200Y-106664285D02*
X166384819Y-106807142D01*
X166384819Y-106807142D02*
X166384819Y-106902380D01*
X166384819Y-106902380D02*
X166337200Y-107045237D01*
X166337200Y-107045237D02*
X166241961Y-107140475D01*
X166241961Y-107140475D02*
X166146723Y-107188094D01*
X166146723Y-107188094D02*
X165956247Y-107235713D01*
X165956247Y-107235713D02*
X165813390Y-107235713D01*
X165813390Y-107235713D02*
X165622914Y-107188094D01*
X165622914Y-107188094D02*
X165527676Y-107140475D01*
X165527676Y-107140475D02*
X165432438Y-107045237D01*
X165432438Y-107045237D02*
X165384819Y-106902380D01*
X165384819Y-106902380D02*
X165384819Y-106807142D01*
X165384819Y-106807142D02*
X165432438Y-106664285D01*
X165432438Y-106664285D02*
X165480057Y-106616666D01*
X165480057Y-106235713D02*
X165432438Y-106188094D01*
X165432438Y-106188094D02*
X165384819Y-106092856D01*
X165384819Y-106092856D02*
X165384819Y-105854761D01*
X165384819Y-105854761D02*
X165432438Y-105759523D01*
X165432438Y-105759523D02*
X165480057Y-105711904D01*
X165480057Y-105711904D02*
X165575295Y-105664285D01*
X165575295Y-105664285D02*
X165670533Y-105664285D01*
X165670533Y-105664285D02*
X165813390Y-105711904D01*
X165813390Y-105711904D02*
X166384819Y-106283332D01*
X166384819Y-106283332D02*
X166384819Y-105664285D01*
X144033333Y-76309580D02*
X143985714Y-76357200D01*
X143985714Y-76357200D02*
X143842857Y-76404819D01*
X143842857Y-76404819D02*
X143747619Y-76404819D01*
X143747619Y-76404819D02*
X143604762Y-76357200D01*
X143604762Y-76357200D02*
X143509524Y-76261961D01*
X143509524Y-76261961D02*
X143461905Y-76166723D01*
X143461905Y-76166723D02*
X143414286Y-75976247D01*
X143414286Y-75976247D02*
X143414286Y-75833390D01*
X143414286Y-75833390D02*
X143461905Y-75642914D01*
X143461905Y-75642914D02*
X143509524Y-75547676D01*
X143509524Y-75547676D02*
X143604762Y-75452438D01*
X143604762Y-75452438D02*
X143747619Y-75404819D01*
X143747619Y-75404819D02*
X143842857Y-75404819D01*
X143842857Y-75404819D02*
X143985714Y-75452438D01*
X143985714Y-75452438D02*
X144033333Y-75500057D01*
X144985714Y-76404819D02*
X144414286Y-76404819D01*
X144700000Y-76404819D02*
X144700000Y-75404819D01*
X144700000Y-75404819D02*
X144604762Y-75547676D01*
X144604762Y-75547676D02*
X144509524Y-75642914D01*
X144509524Y-75642914D02*
X144414286Y-75690533D01*
X159354819Y-89016666D02*
X158878628Y-89349999D01*
X159354819Y-89588094D02*
X158354819Y-89588094D01*
X158354819Y-89588094D02*
X158354819Y-89207142D01*
X158354819Y-89207142D02*
X158402438Y-89111904D01*
X158402438Y-89111904D02*
X158450057Y-89064285D01*
X158450057Y-89064285D02*
X158545295Y-89016666D01*
X158545295Y-89016666D02*
X158688152Y-89016666D01*
X158688152Y-89016666D02*
X158783390Y-89064285D01*
X158783390Y-89064285D02*
X158831009Y-89111904D01*
X158831009Y-89111904D02*
X158878628Y-89207142D01*
X158878628Y-89207142D02*
X158878628Y-89588094D01*
X158354819Y-88159523D02*
X158354819Y-88349999D01*
X158354819Y-88349999D02*
X158402438Y-88445237D01*
X158402438Y-88445237D02*
X158450057Y-88492856D01*
X158450057Y-88492856D02*
X158592914Y-88588094D01*
X158592914Y-88588094D02*
X158783390Y-88635713D01*
X158783390Y-88635713D02*
X159164342Y-88635713D01*
X159164342Y-88635713D02*
X159259580Y-88588094D01*
X159259580Y-88588094D02*
X159307200Y-88540475D01*
X159307200Y-88540475D02*
X159354819Y-88445237D01*
X159354819Y-88445237D02*
X159354819Y-88254761D01*
X159354819Y-88254761D02*
X159307200Y-88159523D01*
X159307200Y-88159523D02*
X159259580Y-88111904D01*
X159259580Y-88111904D02*
X159164342Y-88064285D01*
X159164342Y-88064285D02*
X158926247Y-88064285D01*
X158926247Y-88064285D02*
X158831009Y-88111904D01*
X158831009Y-88111904D02*
X158783390Y-88159523D01*
X158783390Y-88159523D02*
X158735771Y-88254761D01*
X158735771Y-88254761D02*
X158735771Y-88445237D01*
X158735771Y-88445237D02*
X158783390Y-88540475D01*
X158783390Y-88540475D02*
X158831009Y-88588094D01*
X158831009Y-88588094D02*
X158926247Y-88635713D01*
X172419286Y-101504819D02*
X172990714Y-101504819D01*
X172705000Y-102504819D02*
X172705000Y-101504819D01*
X173324048Y-102504819D02*
X173324048Y-101504819D01*
X173324048Y-101981009D02*
X173895476Y-101981009D01*
X173895476Y-102504819D02*
X173895476Y-101504819D01*
X174895476Y-102504819D02*
X174324048Y-102504819D01*
X174609762Y-102504819D02*
X174609762Y-101504819D01*
X174609762Y-101504819D02*
X174514524Y-101647676D01*
X174514524Y-101647676D02*
X174419286Y-101742914D01*
X174419286Y-101742914D02*
X174324048Y-101790533D01*
X154733333Y-95509580D02*
X154685714Y-95557200D01*
X154685714Y-95557200D02*
X154542857Y-95604819D01*
X154542857Y-95604819D02*
X154447619Y-95604819D01*
X154447619Y-95604819D02*
X154304762Y-95557200D01*
X154304762Y-95557200D02*
X154209524Y-95461961D01*
X154209524Y-95461961D02*
X154161905Y-95366723D01*
X154161905Y-95366723D02*
X154114286Y-95176247D01*
X154114286Y-95176247D02*
X154114286Y-95033390D01*
X154114286Y-95033390D02*
X154161905Y-94842914D01*
X154161905Y-94842914D02*
X154209524Y-94747676D01*
X154209524Y-94747676D02*
X154304762Y-94652438D01*
X154304762Y-94652438D02*
X154447619Y-94604819D01*
X154447619Y-94604819D02*
X154542857Y-94604819D01*
X154542857Y-94604819D02*
X154685714Y-94652438D01*
X154685714Y-94652438D02*
X154733333Y-94700057D01*
X155066667Y-94604819D02*
X155733333Y-94604819D01*
X155733333Y-94604819D02*
X155304762Y-95604819D01*
X147883333Y-103604819D02*
X147550000Y-103128628D01*
X147311905Y-103604819D02*
X147311905Y-102604819D01*
X147311905Y-102604819D02*
X147692857Y-102604819D01*
X147692857Y-102604819D02*
X147788095Y-102652438D01*
X147788095Y-102652438D02*
X147835714Y-102700057D01*
X147835714Y-102700057D02*
X147883333Y-102795295D01*
X147883333Y-102795295D02*
X147883333Y-102938152D01*
X147883333Y-102938152D02*
X147835714Y-103033390D01*
X147835714Y-103033390D02*
X147788095Y-103081009D01*
X147788095Y-103081009D02*
X147692857Y-103128628D01*
X147692857Y-103128628D02*
X147311905Y-103128628D01*
X148264286Y-102700057D02*
X148311905Y-102652438D01*
X148311905Y-102652438D02*
X148407143Y-102604819D01*
X148407143Y-102604819D02*
X148645238Y-102604819D01*
X148645238Y-102604819D02*
X148740476Y-102652438D01*
X148740476Y-102652438D02*
X148788095Y-102700057D01*
X148788095Y-102700057D02*
X148835714Y-102795295D01*
X148835714Y-102795295D02*
X148835714Y-102890533D01*
X148835714Y-102890533D02*
X148788095Y-103033390D01*
X148788095Y-103033390D02*
X148216667Y-103604819D01*
X148216667Y-103604819D02*
X148835714Y-103604819D01*
X141033333Y-97129580D02*
X140985714Y-97177200D01*
X140985714Y-97177200D02*
X140842857Y-97224819D01*
X140842857Y-97224819D02*
X140747619Y-97224819D01*
X140747619Y-97224819D02*
X140604762Y-97177200D01*
X140604762Y-97177200D02*
X140509524Y-97081961D01*
X140509524Y-97081961D02*
X140461905Y-96986723D01*
X140461905Y-96986723D02*
X140414286Y-96796247D01*
X140414286Y-96796247D02*
X140414286Y-96653390D01*
X140414286Y-96653390D02*
X140461905Y-96462914D01*
X140461905Y-96462914D02*
X140509524Y-96367676D01*
X140509524Y-96367676D02*
X140604762Y-96272438D01*
X140604762Y-96272438D02*
X140747619Y-96224819D01*
X140747619Y-96224819D02*
X140842857Y-96224819D01*
X140842857Y-96224819D02*
X140985714Y-96272438D01*
X140985714Y-96272438D02*
X141033333Y-96320057D01*
X141890476Y-96558152D02*
X141890476Y-97224819D01*
X141652381Y-96177200D02*
X141414286Y-96891485D01*
X141414286Y-96891485D02*
X142033333Y-96891485D01*
D12*
%TO.C,C8*%
X154561252Y-91115000D02*
X154038748Y-91115000D01*
X154561252Y-92585000D02*
X154038748Y-92585000D01*
%TO.C,R3*%
X161115000Y-81327064D02*
X161115000Y-80872936D01*
X162585000Y-81327064D02*
X162585000Y-80872936D01*
%TO.C,Q1*%
X148550000Y-99050000D02*
X148550000Y-95450000D01*
X144100000Y-97250000D02*
G75*
G02*
X148538478Y-95411522I2600000J0D01*
G01*
X148538478Y-99088478D02*
G75*
G02*
X144099999Y-97250000I-1838478J1838478D01*
G01*
%TO.C,C3*%
X159515000Y-106188748D02*
X159515000Y-106711252D01*
X160985000Y-106188748D02*
X160985000Y-106711252D01*
%TO.C,U1*%
X130390000Y-92140000D02*
X131800000Y-92140000D01*
X130400000Y-94460000D02*
X131800000Y-94460000D01*
X130020000Y-92190000D02*
X129780000Y-91860000D01*
X130260000Y-91860000D01*
X130020000Y-92190000D01*
G36*
X130020000Y-92190000D02*
G01*
X129780000Y-91860000D01*
X130260000Y-91860000D01*
X130020000Y-92190000D01*
G37*
D13*
%TO.C,U2*%
X131400000Y-96510000D02*
X135300000Y-96510000D01*
X131400000Y-106640000D02*
X135300000Y-106640000D01*
D10*
X129305000Y-96630000D02*
G75*
G02*
X129105000Y-96630000I-100000J0D01*
G01*
X129105000Y-96630000D02*
G75*
G02*
X129305000Y-96630000I100000J0D01*
G01*
D12*
%TO.C,C5*%
X140938748Y-101565000D02*
X141461252Y-101565000D01*
X140938748Y-103035000D02*
X141461252Y-103035000D01*
%TO.C,JP2*%
X155600000Y-101650000D02*
X155600000Y-101050000D01*
X156300000Y-100350000D02*
X157700000Y-100350000D01*
X157700000Y-102350000D02*
X156300000Y-102350000D01*
X158400000Y-101050000D02*
X158400000Y-101650000D01*
X155600000Y-101050000D02*
G75*
G02*
X156300000Y-100350000I699999J1D01*
G01*
X156300000Y-102350000D02*
G75*
G02*
X155600000Y-101650000I-1J699999D01*
G01*
X157700000Y-100350000D02*
G75*
G02*
X158400000Y-101050000I0J-700000D01*
G01*
X158400000Y-101650000D02*
G75*
G02*
X157700000Y-102350000I-700000J0D01*
G01*
%TO.C,U5*%
X160250000Y-93727500D02*
X159475000Y-93727500D01*
X160250000Y-93727500D02*
X161025000Y-93727500D01*
X160250000Y-96847500D02*
X159475000Y-96847500D01*
X160250000Y-96847500D02*
X161025000Y-96847500D01*
X158887500Y-93777500D02*
X158647500Y-93447500D01*
X159127500Y-93447500D01*
X158887500Y-93777500D01*
G36*
X158887500Y-93777500D02*
G01*
X158647500Y-93447500D01*
X159127500Y-93447500D01*
X158887500Y-93777500D01*
G37*
%TO.C,R5*%
X164272936Y-110865000D02*
X164727064Y-110865000D01*
X164272936Y-112335000D02*
X164727064Y-112335000D01*
%TO.C,JP3*%
X135450000Y-93450000D02*
X135450000Y-92850000D01*
X136150000Y-92150000D02*
X137550000Y-92150000D01*
X137550000Y-94150000D02*
X136150000Y-94150000D01*
X138250000Y-92850000D02*
X138250000Y-93450000D01*
X135450000Y-92850000D02*
G75*
G02*
X136150000Y-92150000I699999J1D01*
G01*
X136150000Y-94150000D02*
G75*
G02*
X135450000Y-93450000I-1J699999D01*
G01*
X137550000Y-92150000D02*
G75*
G02*
X138250000Y-92850000I0J-700000D01*
G01*
X138250000Y-93450000D02*
G75*
G02*
X137550000Y-94150000I-700000J0D01*
G01*
%TO.C,J2*%
X170375000Y-105720000D02*
X171705000Y-105720000D01*
X170375000Y-107050000D02*
X170375000Y-105720000D01*
X170375000Y-108320000D02*
X170375000Y-110920000D01*
X170375000Y-108320000D02*
X173035000Y-108320000D01*
X170375000Y-110920000D02*
X173035000Y-110920000D01*
X173035000Y-108320000D02*
X173035000Y-110920000D01*
%TO.C,R4*%
X161065000Y-86177064D02*
X161065000Y-85722936D01*
X162535000Y-86177064D02*
X162535000Y-85722936D01*
%TO.C,J3*%
X130370000Y-118880000D02*
X130370000Y-117550000D01*
X131700000Y-118880000D02*
X130370000Y-118880000D01*
X132970000Y-116220000D02*
X166050000Y-116220000D01*
X132970000Y-118880000D02*
X132970000Y-116220000D01*
X132970000Y-118880000D02*
X166050000Y-118880000D01*
X166050000Y-118880000D02*
X166050000Y-116220000D01*
%TO.C,U3*%
X150740000Y-87340000D02*
X152150000Y-87340000D01*
X150750000Y-89660000D02*
X152150000Y-89660000D01*
X150370000Y-87390000D02*
X150130000Y-87060000D01*
X150610000Y-87060000D01*
X150370000Y-87390000D01*
G36*
X150370000Y-87390000D02*
G01*
X150130000Y-87060000D01*
X150610000Y-87060000D01*
X150370000Y-87390000D01*
G37*
%TO.C,R1*%
X132780000Y-86430000D02*
X142920000Y-86430000D01*
X132780000Y-86910000D02*
X132780000Y-86430000D01*
X132780000Y-89790000D02*
X132780000Y-90270000D01*
X132780000Y-90270000D02*
X142920000Y-90270000D01*
X142920000Y-86430000D02*
X142920000Y-86910000D01*
X142920000Y-90270000D02*
X142920000Y-89790000D01*
%TO.C,C6*%
X151238748Y-99635000D02*
X151761252Y-99635000D01*
X151238748Y-98165000D02*
X151761252Y-98165000D01*
%TO.C,U6*%
X142125000Y-110100000D02*
X142125000Y-108150000D01*
X142125000Y-110100000D02*
X142125000Y-112050000D01*
X152245000Y-110100000D02*
X152245000Y-108150000D01*
X152245000Y-110100000D02*
X152245000Y-112050000D01*
X152520000Y-107640000D02*
X152190000Y-107400000D01*
X152520000Y-107160000D01*
X152520000Y-107640000D01*
G36*
X152520000Y-107640000D02*
G01*
X152190000Y-107400000D01*
X152520000Y-107160000D01*
X152520000Y-107640000D01*
G37*
%TO.C,JP1*%
X162800000Y-92000000D02*
X162800000Y-90600000D01*
X163500000Y-89900000D02*
X164100000Y-89900000D01*
X164100000Y-92700000D02*
X163500000Y-92700000D01*
X164800000Y-90600000D02*
X164800000Y-92000000D01*
X162800000Y-90600000D02*
G75*
G02*
X163500000Y-89900000I699999J1D01*
G01*
X163500000Y-92700000D02*
G75*
G02*
X162800000Y-92000000I0J700000D01*
G01*
X164100000Y-89900000D02*
G75*
G02*
X164800000Y-90600000I1J-699999D01*
G01*
X164800000Y-92000000D02*
G75*
G02*
X164100000Y-92700000I-700000J0D01*
G01*
%TO.C,J1*%
X125772500Y-100550000D02*
X126272500Y-100800000D01*
X126272500Y-100300000D02*
X125772500Y-100550000D01*
X126272500Y-100800000D02*
X126272500Y-100300000D01*
%TO.C,C2*%
X163515000Y-106188748D02*
X163515000Y-106711252D01*
X164985000Y-106188748D02*
X164985000Y-106711252D01*
%TO.C,C1*%
X130080000Y-77080000D02*
X130080000Y-85320000D01*
X130080000Y-77080000D02*
X158320000Y-77080000D01*
X130080000Y-85320000D02*
X158320000Y-85320000D01*
X158320000Y-77080000D02*
X158320000Y-85320000D01*
%TO.C,R6*%
X156515000Y-88622936D02*
X156515000Y-89077064D01*
X157985000Y-88622936D02*
X157985000Y-89077064D01*
%TO.C,TH1*%
X169120095Y-102799359D02*
G75*
G02*
X169217133Y-101350000I-320095J749359D01*
G01*
%TO.C,C7*%
X151288748Y-95885000D02*
X151811252Y-95885000D01*
X151288748Y-94415000D02*
X151811252Y-94415000D01*
%TO.C,R2*%
X148277064Y-100765000D02*
X147822936Y-100765000D01*
X148277064Y-102235000D02*
X147822936Y-102235000D01*
%TO.C,C4*%
X140938748Y-97715000D02*
X141461252Y-97715000D01*
X140938748Y-99185000D02*
X141461252Y-99185000D01*
%TD*%
%LPC*%
D14*
%TO.C,C8*%
X153350000Y-91850000D03*
X155250000Y-91850000D03*
%TD*%
D15*
%TO.C,R3*%
X161850000Y-82012500D03*
X161850000Y-80187500D03*
%TD*%
D16*
%TO.C,Q1*%
X146700000Y-98520000D03*
D17*
X146700000Y-97250000D03*
X146700000Y-95980000D03*
%TD*%
D18*
%TO.C,C3*%
X160250000Y-105500000D03*
X160250000Y-107400000D03*
%TD*%
D19*
%TO.C,H3*%
X171700000Y-117550000D03*
%TD*%
D20*
%TO.C,U1*%
X130150000Y-92650000D03*
X130150000Y-93300000D03*
X130150000Y-93950000D03*
X132050000Y-93950000D03*
X132050000Y-92650000D03*
%TD*%
D21*
%TO.C,U2*%
X130875000Y-97130000D03*
X130875000Y-98400000D03*
X130875000Y-99670000D03*
X130875000Y-100940000D03*
X130875000Y-102210000D03*
X130875000Y-103480000D03*
X130875000Y-104750000D03*
X130875000Y-106020000D03*
X135825000Y-106020000D03*
X135825000Y-104750000D03*
X135825000Y-103480000D03*
X135825000Y-102210000D03*
X135825000Y-100940000D03*
X135825000Y-99670000D03*
X135825000Y-98400000D03*
X135825000Y-97130000D03*
%TD*%
D22*
%TO.C,C5*%
X140250000Y-102300000D03*
X142150000Y-102300000D03*
%TD*%
D23*
%TO.C,JP2*%
X156350000Y-101350000D03*
D24*
X157650000Y-101350000D03*
%TD*%
D25*
%TO.C,U5*%
X159100000Y-94337500D03*
X159100000Y-95287500D03*
X159100000Y-96237500D03*
X161400000Y-96237500D03*
X161400000Y-94337500D03*
%TD*%
D26*
%TO.C,R5*%
X163587500Y-111600000D03*
X165412500Y-111600000D03*
%TD*%
D23*
%TO.C,JP3*%
X136200000Y-93150000D03*
D24*
X137500000Y-93150000D03*
%TD*%
D27*
%TO.C,J2*%
X171705000Y-107050000D03*
D28*
X171705000Y-109590000D03*
%TD*%
D15*
%TO.C,R4*%
X161800000Y-86862500D03*
X161800000Y-85037500D03*
%TD*%
D27*
%TO.C,J3*%
X131700000Y-117550000D03*
D28*
X134240000Y-117550000D03*
X136780000Y-117550000D03*
X139320000Y-117550000D03*
X141860000Y-117550000D03*
X144400000Y-117550000D03*
X146940000Y-117550000D03*
X149480000Y-117550000D03*
X152020000Y-117550000D03*
X154560000Y-117550000D03*
X157100000Y-117550000D03*
X159640000Y-117550000D03*
X162180000Y-117550000D03*
X164720000Y-117550000D03*
%TD*%
D19*
%TO.C,H2*%
X169700000Y-79050000D03*
%TD*%
D20*
%TO.C,U3*%
X150500000Y-87850000D03*
X150500000Y-88500000D03*
X150500000Y-89150000D03*
X152400000Y-89150000D03*
X152400000Y-87850000D03*
%TD*%
D29*
%TO.C,R1*%
X131500000Y-88350000D03*
D30*
X144200000Y-88350000D03*
%TD*%
D19*
%TO.C,H1*%
X124200000Y-79050000D03*
%TD*%
D22*
%TO.C,C6*%
X150550000Y-98900000D03*
X152450000Y-98900000D03*
%TD*%
D31*
%TO.C,U6*%
X151630000Y-107525000D03*
X150360000Y-107525000D03*
X149090000Y-107525000D03*
X147820000Y-107525000D03*
X146550000Y-107525000D03*
X145280000Y-107525000D03*
X144010000Y-107525000D03*
X142740000Y-107525000D03*
X142740000Y-112675000D03*
X144010000Y-112675000D03*
X145280000Y-112675000D03*
X146550000Y-112675000D03*
X147820000Y-112675000D03*
X149090000Y-112675000D03*
X150360000Y-112675000D03*
X151630000Y-112675000D03*
%TD*%
D32*
%TO.C,JP1*%
X163800000Y-90650000D03*
D33*
X163800000Y-91950000D03*
%TD*%
D34*
%TO.C,J1*%
X122562500Y-100550000D03*
X122562500Y-104800000D03*
X122562500Y-96300000D03*
%TD*%
D19*
%TO.C,H4*%
X124200000Y-117550000D03*
%TD*%
D18*
%TO.C,C2*%
X164250000Y-105500000D03*
X164250000Y-107400000D03*
%TD*%
D29*
%TO.C,C1*%
X132950000Y-81200000D03*
X155450000Y-81200000D03*
%TD*%
D35*
%TO.C,R6*%
X157250000Y-87937500D03*
X157250000Y-89762500D03*
%TD*%
D36*
%TO.C,TH1*%
X168800000Y-102050000D03*
D37*
X170700000Y-102050000D03*
%TD*%
D22*
%TO.C,C7*%
X150600000Y-95150000D03*
X152500000Y-95150000D03*
%TD*%
D38*
%TO.C,R2*%
X148962500Y-101500000D03*
X147137500Y-101500000D03*
%TD*%
D22*
%TO.C,C4*%
X140250000Y-98450000D03*
X142150000Y-98450000D03*
%TD*%
%LPD*%
M02*
