%TF.GenerationSoftware,KiCad,Pcbnew,8.0.7*%
%TF.CreationDate,2025-10-24T17:03:05+02:00*%
%TF.ProjectId,Medidor_clk_PCB,4d656469-646f-4725-9f63-6c6b5f504342,rev?*%
%TF.SameCoordinates,Original*%
%TF.FileFunction,Legend,Bot*%
%TF.FilePolarity,Positive*%
%FSLAX46Y46*%
G04 Gerber Fmt 4.6, Leading zero omitted, Abs format (unit mm)*
G04 Created by KiCad (PCBNEW 8.0.7) date 2025-10-24 17:03:05*
%MOMM*%
%LPD*%
G01*
G04 APERTURE LIST*
%ADD10C,0.400000*%
%ADD11C,0.187500*%
%ADD12R,1.500000X1.050000*%
%ADD13O,1.500000X1.050000*%
%ADD14C,4.300000*%
%ADD15R,1.700000X1.700000*%
%ADD16O,1.700000X1.700000*%
%ADD17C,2.400000*%
%ADD18O,2.400000X2.400000*%
%ADD19R,5.080000X1.500000*%
%ADD20C,1.400000*%
%ADD21O,1.400000X1.400000*%
G04 APERTURE END LIST*
D10*
X163064287Y-103974774D02*
X163064287Y-101974774D01*
X163064287Y-101974774D02*
X162302382Y-101974774D01*
X162302382Y-101974774D02*
X162111906Y-102070012D01*
X162111906Y-102070012D02*
X162016668Y-102165250D01*
X162016668Y-102165250D02*
X161921430Y-102355726D01*
X161921430Y-102355726D02*
X161921430Y-102641440D01*
X161921430Y-102641440D02*
X162016668Y-102831916D01*
X162016668Y-102831916D02*
X162111906Y-102927155D01*
X162111906Y-102927155D02*
X162302382Y-103022393D01*
X162302382Y-103022393D02*
X163064287Y-103022393D01*
X160207144Y-103974774D02*
X160207144Y-102927155D01*
X160207144Y-102927155D02*
X160302382Y-102736678D01*
X160302382Y-102736678D02*
X160492858Y-102641440D01*
X160492858Y-102641440D02*
X160873811Y-102641440D01*
X160873811Y-102641440D02*
X161064287Y-102736678D01*
X160207144Y-103879536D02*
X160397620Y-103974774D01*
X160397620Y-103974774D02*
X160873811Y-103974774D01*
X160873811Y-103974774D02*
X161064287Y-103879536D01*
X161064287Y-103879536D02*
X161159525Y-103689059D01*
X161159525Y-103689059D02*
X161159525Y-103498583D01*
X161159525Y-103498583D02*
X161064287Y-103308107D01*
X161064287Y-103308107D02*
X160873811Y-103212869D01*
X160873811Y-103212869D02*
X160397620Y-103212869D01*
X160397620Y-103212869D02*
X160207144Y-103117631D01*
X159254763Y-103974774D02*
X159254763Y-101974774D01*
X159254763Y-102736678D02*
X159064287Y-102641440D01*
X159064287Y-102641440D02*
X158683334Y-102641440D01*
X158683334Y-102641440D02*
X158492858Y-102736678D01*
X158492858Y-102736678D02*
X158397620Y-102831916D01*
X158397620Y-102831916D02*
X158302382Y-103022393D01*
X158302382Y-103022393D02*
X158302382Y-103593821D01*
X158302382Y-103593821D02*
X158397620Y-103784297D01*
X158397620Y-103784297D02*
X158492858Y-103879536D01*
X158492858Y-103879536D02*
X158683334Y-103974774D01*
X158683334Y-103974774D02*
X159064287Y-103974774D01*
X159064287Y-103974774D02*
X159254763Y-103879536D01*
X157159525Y-103974774D02*
X157350001Y-103879536D01*
X157350001Y-103879536D02*
X157445239Y-103689059D01*
X157445239Y-103689059D02*
X157445239Y-101974774D01*
X156111906Y-103974774D02*
X156302382Y-103879536D01*
X156302382Y-103879536D02*
X156397620Y-103784297D01*
X156397620Y-103784297D02*
X156492858Y-103593821D01*
X156492858Y-103593821D02*
X156492858Y-103022393D01*
X156492858Y-103022393D02*
X156397620Y-102831916D01*
X156397620Y-102831916D02*
X156302382Y-102736678D01*
X156302382Y-102736678D02*
X156111906Y-102641440D01*
X156111906Y-102641440D02*
X155826191Y-102641440D01*
X155826191Y-102641440D02*
X155635715Y-102736678D01*
X155635715Y-102736678D02*
X155540477Y-102831916D01*
X155540477Y-102831916D02*
X155445239Y-103022393D01*
X155445239Y-103022393D02*
X155445239Y-103593821D01*
X155445239Y-103593821D02*
X155540477Y-103784297D01*
X155540477Y-103784297D02*
X155635715Y-103879536D01*
X155635715Y-103879536D02*
X155826191Y-103974774D01*
X155826191Y-103974774D02*
X156111906Y-103974774D01*
X153159524Y-103403345D02*
X152207143Y-103403345D01*
X153350000Y-103974774D02*
X152683334Y-101974774D01*
X152683334Y-101974774D02*
X152016667Y-103974774D01*
X152492857Y-101212869D02*
X152778572Y-101498583D01*
X151350000Y-103784297D02*
X151254762Y-103879536D01*
X151254762Y-103879536D02*
X151350000Y-103974774D01*
X151350000Y-103974774D02*
X151445238Y-103879536D01*
X151445238Y-103879536D02*
X151350000Y-103784297D01*
X151350000Y-103784297D02*
X151350000Y-103974774D01*
X148873809Y-103974774D02*
X148873809Y-101974774D01*
X148873809Y-101974774D02*
X148397619Y-101974774D01*
X148397619Y-101974774D02*
X148111904Y-102070012D01*
X148111904Y-102070012D02*
X147921428Y-102260488D01*
X147921428Y-102260488D02*
X147826190Y-102450964D01*
X147826190Y-102450964D02*
X147730952Y-102831916D01*
X147730952Y-102831916D02*
X147730952Y-103117631D01*
X147730952Y-103117631D02*
X147826190Y-103498583D01*
X147826190Y-103498583D02*
X147921428Y-103689059D01*
X147921428Y-103689059D02*
X148111904Y-103879536D01*
X148111904Y-103879536D02*
X148397619Y-103974774D01*
X148397619Y-103974774D02*
X148873809Y-103974774D01*
X146588095Y-103974774D02*
X146778571Y-103879536D01*
X146778571Y-103879536D02*
X146873809Y-103784297D01*
X146873809Y-103784297D02*
X146969047Y-103593821D01*
X146969047Y-103593821D02*
X146969047Y-103022393D01*
X146969047Y-103022393D02*
X146873809Y-102831916D01*
X146873809Y-102831916D02*
X146778571Y-102736678D01*
X146778571Y-102736678D02*
X146588095Y-102641440D01*
X146588095Y-102641440D02*
X146302380Y-102641440D01*
X146302380Y-102641440D02*
X146111904Y-102736678D01*
X146111904Y-102736678D02*
X146016666Y-102831916D01*
X146016666Y-102831916D02*
X145921428Y-103022393D01*
X145921428Y-103022393D02*
X145921428Y-103593821D01*
X145921428Y-103593821D02*
X146016666Y-103784297D01*
X146016666Y-103784297D02*
X146111904Y-103879536D01*
X146111904Y-103879536D02*
X146302380Y-103974774D01*
X146302380Y-103974774D02*
X146588095Y-103974774D01*
X145064285Y-103974774D02*
X145064285Y-102641440D01*
X145064285Y-102831916D02*
X144969047Y-102736678D01*
X144969047Y-102736678D02*
X144778571Y-102641440D01*
X144778571Y-102641440D02*
X144492856Y-102641440D01*
X144492856Y-102641440D02*
X144302380Y-102736678D01*
X144302380Y-102736678D02*
X144207142Y-102927155D01*
X144207142Y-102927155D02*
X144207142Y-103974774D01*
X144207142Y-102927155D02*
X144111904Y-102736678D01*
X144111904Y-102736678D02*
X143921428Y-102641440D01*
X143921428Y-102641440D02*
X143635714Y-102641440D01*
X143635714Y-102641440D02*
X143445237Y-102736678D01*
X143445237Y-102736678D02*
X143349999Y-102927155D01*
X143349999Y-102927155D02*
X143349999Y-103974774D01*
X142397618Y-103974774D02*
X142397618Y-102641440D01*
X142207142Y-101879536D02*
X142492856Y-102165250D01*
X141445237Y-102641440D02*
X141445237Y-103974774D01*
X141445237Y-102831916D02*
X141349999Y-102736678D01*
X141349999Y-102736678D02*
X141159523Y-102641440D01*
X141159523Y-102641440D02*
X140873808Y-102641440D01*
X140873808Y-102641440D02*
X140683332Y-102736678D01*
X140683332Y-102736678D02*
X140588094Y-102927155D01*
X140588094Y-102927155D02*
X140588094Y-103974774D01*
X138778570Y-102641440D02*
X138778570Y-104260488D01*
X138778570Y-104260488D02*
X138873808Y-104450964D01*
X138873808Y-104450964D02*
X138969046Y-104546202D01*
X138969046Y-104546202D02*
X139159523Y-104641440D01*
X139159523Y-104641440D02*
X139445237Y-104641440D01*
X139445237Y-104641440D02*
X139635713Y-104546202D01*
X138778570Y-103879536D02*
X138969046Y-103974774D01*
X138969046Y-103974774D02*
X139349999Y-103974774D01*
X139349999Y-103974774D02*
X139540475Y-103879536D01*
X139540475Y-103879536D02*
X139635713Y-103784297D01*
X139635713Y-103784297D02*
X139730951Y-103593821D01*
X139730951Y-103593821D02*
X139730951Y-103022393D01*
X139730951Y-103022393D02*
X139635713Y-102831916D01*
X139635713Y-102831916D02*
X139540475Y-102736678D01*
X139540475Y-102736678D02*
X139349999Y-102641440D01*
X139349999Y-102641440D02*
X138969046Y-102641440D01*
X138969046Y-102641440D02*
X138778570Y-102736678D01*
X136969046Y-102641440D02*
X136969046Y-103974774D01*
X137826189Y-102641440D02*
X137826189Y-103689059D01*
X137826189Y-103689059D02*
X137730951Y-103879536D01*
X137730951Y-103879536D02*
X137540475Y-103974774D01*
X137540475Y-103974774D02*
X137254760Y-103974774D01*
X137254760Y-103974774D02*
X137064284Y-103879536D01*
X137064284Y-103879536D02*
X136969046Y-103784297D01*
X135254760Y-103879536D02*
X135445236Y-103974774D01*
X135445236Y-103974774D02*
X135826189Y-103974774D01*
X135826189Y-103974774D02*
X136016665Y-103879536D01*
X136016665Y-103879536D02*
X136111903Y-103689059D01*
X136111903Y-103689059D02*
X136111903Y-102927155D01*
X136111903Y-102927155D02*
X136016665Y-102736678D01*
X136016665Y-102736678D02*
X135826189Y-102641440D01*
X135826189Y-102641440D02*
X135445236Y-102641440D01*
X135445236Y-102641440D02*
X135254760Y-102736678D01*
X135254760Y-102736678D02*
X135159522Y-102927155D01*
X135159522Y-102927155D02*
X135159522Y-103117631D01*
X135159522Y-103117631D02*
X136111903Y-103308107D01*
X134492855Y-102641440D02*
X133445236Y-102641440D01*
X133445236Y-102641440D02*
X134492855Y-103974774D01*
X134492855Y-103974774D02*
X133445236Y-103974774D01*
X151064285Y-110224073D02*
X151159523Y-110319312D01*
X151159523Y-110319312D02*
X151445237Y-110414550D01*
X151445237Y-110414550D02*
X151635713Y-110414550D01*
X151635713Y-110414550D02*
X151921428Y-110319312D01*
X151921428Y-110319312D02*
X152111904Y-110128835D01*
X152111904Y-110128835D02*
X152207142Y-109938359D01*
X152207142Y-109938359D02*
X152302380Y-109557407D01*
X152302380Y-109557407D02*
X152302380Y-109271692D01*
X152302380Y-109271692D02*
X152207142Y-108890740D01*
X152207142Y-108890740D02*
X152111904Y-108700264D01*
X152111904Y-108700264D02*
X151921428Y-108509788D01*
X151921428Y-108509788D02*
X151635713Y-108414550D01*
X151635713Y-108414550D02*
X151445237Y-108414550D01*
X151445237Y-108414550D02*
X151159523Y-108509788D01*
X151159523Y-108509788D02*
X151064285Y-108605026D01*
X149921428Y-110414550D02*
X150111904Y-110319312D01*
X150111904Y-110319312D02*
X150207142Y-110128835D01*
X150207142Y-110128835D02*
X150207142Y-108414550D01*
X148873809Y-110414550D02*
X149064285Y-110319312D01*
X149064285Y-110319312D02*
X149159523Y-110224073D01*
X149159523Y-110224073D02*
X149254761Y-110033597D01*
X149254761Y-110033597D02*
X149254761Y-109462169D01*
X149254761Y-109462169D02*
X149159523Y-109271692D01*
X149159523Y-109271692D02*
X149064285Y-109176454D01*
X149064285Y-109176454D02*
X148873809Y-109081216D01*
X148873809Y-109081216D02*
X148588094Y-109081216D01*
X148588094Y-109081216D02*
X148397618Y-109176454D01*
X148397618Y-109176454D02*
X148302380Y-109271692D01*
X148302380Y-109271692D02*
X148207142Y-109462169D01*
X148207142Y-109462169D02*
X148207142Y-110033597D01*
X148207142Y-110033597D02*
X148302380Y-110224073D01*
X148302380Y-110224073D02*
X148397618Y-110319312D01*
X148397618Y-110319312D02*
X148588094Y-110414550D01*
X148588094Y-110414550D02*
X148873809Y-110414550D01*
X146207142Y-110224073D02*
X146302380Y-110319312D01*
X146302380Y-110319312D02*
X146588094Y-110414550D01*
X146588094Y-110414550D02*
X146778570Y-110414550D01*
X146778570Y-110414550D02*
X147064285Y-110319312D01*
X147064285Y-110319312D02*
X147254761Y-110128835D01*
X147254761Y-110128835D02*
X147349999Y-109938359D01*
X147349999Y-109938359D02*
X147445237Y-109557407D01*
X147445237Y-109557407D02*
X147445237Y-109271692D01*
X147445237Y-109271692D02*
X147349999Y-108890740D01*
X147349999Y-108890740D02*
X147254761Y-108700264D01*
X147254761Y-108700264D02*
X147064285Y-108509788D01*
X147064285Y-108509788D02*
X146778570Y-108414550D01*
X146778570Y-108414550D02*
X146588094Y-108414550D01*
X146588094Y-108414550D02*
X146302380Y-108509788D01*
X146302380Y-108509788D02*
X146207142Y-108605026D01*
X145349999Y-110414550D02*
X145349999Y-108414550D01*
X144492856Y-110414550D02*
X144492856Y-109366931D01*
X144492856Y-109366931D02*
X144588094Y-109176454D01*
X144588094Y-109176454D02*
X144778570Y-109081216D01*
X144778570Y-109081216D02*
X145064285Y-109081216D01*
X145064285Y-109081216D02*
X145254761Y-109176454D01*
X145254761Y-109176454D02*
X145349999Y-109271692D01*
X151397618Y-111634438D02*
X150730952Y-113634438D01*
X150730952Y-113634438D02*
X150064285Y-111634438D01*
X148349999Y-113634438D02*
X149492856Y-113634438D01*
X148921428Y-113634438D02*
X148921428Y-111634438D01*
X148921428Y-111634438D02*
X149111904Y-111920152D01*
X149111904Y-111920152D02*
X149302380Y-112110628D01*
X149302380Y-112110628D02*
X149492856Y-112205866D01*
X147492856Y-113443961D02*
X147397618Y-113539200D01*
X147397618Y-113539200D02*
X147492856Y-113634438D01*
X147492856Y-113634438D02*
X147588094Y-113539200D01*
X147588094Y-113539200D02*
X147492856Y-113443961D01*
X147492856Y-113443961D02*
X147492856Y-113634438D01*
X146730951Y-111634438D02*
X145492856Y-111634438D01*
X145492856Y-111634438D02*
X146159523Y-112396342D01*
X146159523Y-112396342D02*
X145873808Y-112396342D01*
X145873808Y-112396342D02*
X145683332Y-112491580D01*
X145683332Y-112491580D02*
X145588094Y-112586819D01*
X145588094Y-112586819D02*
X145492856Y-112777295D01*
X145492856Y-112777295D02*
X145492856Y-113253485D01*
X145492856Y-113253485D02*
X145588094Y-113443961D01*
X145588094Y-113443961D02*
X145683332Y-113539200D01*
X145683332Y-113539200D02*
X145873808Y-113634438D01*
X145873808Y-113634438D02*
X146445237Y-113634438D01*
X146445237Y-113634438D02*
X146635713Y-113539200D01*
X146635713Y-113539200D02*
X146730951Y-113443961D01*
D11*
X161814285Y-76891762D02*
X161814285Y-78106048D01*
X161814285Y-78106048D02*
X161742856Y-78248905D01*
X161742856Y-78248905D02*
X161671428Y-78320334D01*
X161671428Y-78320334D02*
X161528570Y-78391762D01*
X161528570Y-78391762D02*
X161242856Y-78391762D01*
X161242856Y-78391762D02*
X161099999Y-78320334D01*
X161099999Y-78320334D02*
X161028570Y-78248905D01*
X161028570Y-78248905D02*
X160957142Y-78106048D01*
X160957142Y-78106048D02*
X160957142Y-76891762D01*
X160242856Y-77391762D02*
X160242856Y-78391762D01*
X160242856Y-77534619D02*
X160171427Y-77463191D01*
X160171427Y-77463191D02*
X160028570Y-77391762D01*
X160028570Y-77391762D02*
X159814284Y-77391762D01*
X159814284Y-77391762D02*
X159671427Y-77463191D01*
X159671427Y-77463191D02*
X159599999Y-77606048D01*
X159599999Y-77606048D02*
X159599999Y-78391762D01*
X158885713Y-78391762D02*
X158885713Y-77391762D01*
X158885713Y-76891762D02*
X158957141Y-76963191D01*
X158957141Y-76963191D02*
X158885713Y-77034619D01*
X158885713Y-77034619D02*
X158814284Y-76963191D01*
X158814284Y-76963191D02*
X158885713Y-76891762D01*
X158885713Y-76891762D02*
X158885713Y-77034619D01*
X158314284Y-77391762D02*
X157957141Y-78391762D01*
X157957141Y-78391762D02*
X157599998Y-77391762D01*
X156457141Y-78320334D02*
X156599998Y-78391762D01*
X156599998Y-78391762D02*
X156885713Y-78391762D01*
X156885713Y-78391762D02*
X157028570Y-78320334D01*
X157028570Y-78320334D02*
X157099998Y-78177476D01*
X157099998Y-78177476D02*
X157099998Y-77606048D01*
X157099998Y-77606048D02*
X157028570Y-77463191D01*
X157028570Y-77463191D02*
X156885713Y-77391762D01*
X156885713Y-77391762D02*
X156599998Y-77391762D01*
X156599998Y-77391762D02*
X156457141Y-77463191D01*
X156457141Y-77463191D02*
X156385713Y-77606048D01*
X156385713Y-77606048D02*
X156385713Y-77748905D01*
X156385713Y-77748905D02*
X157099998Y-77891762D01*
X155742856Y-78391762D02*
X155742856Y-77391762D01*
X155742856Y-77677476D02*
X155671427Y-77534619D01*
X155671427Y-77534619D02*
X155599999Y-77463191D01*
X155599999Y-77463191D02*
X155457141Y-77391762D01*
X155457141Y-77391762D02*
X155314284Y-77391762D01*
X154885713Y-78320334D02*
X154742856Y-78391762D01*
X154742856Y-78391762D02*
X154457142Y-78391762D01*
X154457142Y-78391762D02*
X154314285Y-78320334D01*
X154314285Y-78320334D02*
X154242856Y-78177476D01*
X154242856Y-78177476D02*
X154242856Y-78106048D01*
X154242856Y-78106048D02*
X154314285Y-77963191D01*
X154314285Y-77963191D02*
X154457142Y-77891762D01*
X154457142Y-77891762D02*
X154671428Y-77891762D01*
X154671428Y-77891762D02*
X154814285Y-77820334D01*
X154814285Y-77820334D02*
X154885713Y-77677476D01*
X154885713Y-77677476D02*
X154885713Y-77606048D01*
X154885713Y-77606048D02*
X154814285Y-77463191D01*
X154814285Y-77463191D02*
X154671428Y-77391762D01*
X154671428Y-77391762D02*
X154457142Y-77391762D01*
X154457142Y-77391762D02*
X154314285Y-77463191D01*
X153599999Y-78391762D02*
X153599999Y-77391762D01*
X153599999Y-76891762D02*
X153671427Y-76963191D01*
X153671427Y-76963191D02*
X153599999Y-77034619D01*
X153599999Y-77034619D02*
X153528570Y-76963191D01*
X153528570Y-76963191D02*
X153599999Y-76891762D01*
X153599999Y-76891762D02*
X153599999Y-77034619D01*
X153099998Y-77391762D02*
X152528570Y-77391762D01*
X152885713Y-76891762D02*
X152885713Y-78177476D01*
X152885713Y-78177476D02*
X152814284Y-78320334D01*
X152814284Y-78320334D02*
X152671427Y-78391762D01*
X152671427Y-78391762D02*
X152528570Y-78391762D01*
X151457141Y-78320334D02*
X151599998Y-78391762D01*
X151599998Y-78391762D02*
X151885713Y-78391762D01*
X151885713Y-78391762D02*
X152028570Y-78320334D01*
X152028570Y-78320334D02*
X152099998Y-78177476D01*
X152099998Y-78177476D02*
X152099998Y-77606048D01*
X152099998Y-77606048D02*
X152028570Y-77463191D01*
X152028570Y-77463191D02*
X151885713Y-77391762D01*
X151885713Y-77391762D02*
X151599998Y-77391762D01*
X151599998Y-77391762D02*
X151457141Y-77463191D01*
X151457141Y-77463191D02*
X151385713Y-77606048D01*
X151385713Y-77606048D02*
X151385713Y-77748905D01*
X151385713Y-77748905D02*
X152099998Y-77891762D01*
X151599998Y-76820334D02*
X151814284Y-77034619D01*
X148814284Y-76963191D02*
X148957142Y-76891762D01*
X148957142Y-76891762D02*
X149171427Y-76891762D01*
X149171427Y-76891762D02*
X149385713Y-76963191D01*
X149385713Y-76963191D02*
X149528570Y-77106048D01*
X149528570Y-77106048D02*
X149599999Y-77248905D01*
X149599999Y-77248905D02*
X149671427Y-77534619D01*
X149671427Y-77534619D02*
X149671427Y-77748905D01*
X149671427Y-77748905D02*
X149599999Y-78034619D01*
X149599999Y-78034619D02*
X149528570Y-78177476D01*
X149528570Y-78177476D02*
X149385713Y-78320334D01*
X149385713Y-78320334D02*
X149171427Y-78391762D01*
X149171427Y-78391762D02*
X149028570Y-78391762D01*
X149028570Y-78391762D02*
X148814284Y-78320334D01*
X148814284Y-78320334D02*
X148742856Y-78248905D01*
X148742856Y-78248905D02*
X148742856Y-77748905D01*
X148742856Y-77748905D02*
X149028570Y-77748905D01*
X148099999Y-78391762D02*
X148099999Y-77391762D01*
X148099999Y-77677476D02*
X148028570Y-77534619D01*
X148028570Y-77534619D02*
X147957142Y-77463191D01*
X147957142Y-77463191D02*
X147814284Y-77391762D01*
X147814284Y-77391762D02*
X147671427Y-77391762D01*
X146599999Y-78320334D02*
X146742856Y-78391762D01*
X146742856Y-78391762D02*
X147028571Y-78391762D01*
X147028571Y-78391762D02*
X147171428Y-78320334D01*
X147171428Y-78320334D02*
X147242856Y-78177476D01*
X147242856Y-78177476D02*
X147242856Y-77606048D01*
X147242856Y-77606048D02*
X147171428Y-77463191D01*
X147171428Y-77463191D02*
X147028571Y-77391762D01*
X147028571Y-77391762D02*
X146742856Y-77391762D01*
X146742856Y-77391762D02*
X146599999Y-77463191D01*
X146599999Y-77463191D02*
X146528571Y-77606048D01*
X146528571Y-77606048D02*
X146528571Y-77748905D01*
X146528571Y-77748905D02*
X147242856Y-77891762D01*
X145885714Y-77391762D02*
X145885714Y-78391762D01*
X145885714Y-77534619D02*
X145814285Y-77463191D01*
X145814285Y-77463191D02*
X145671428Y-77391762D01*
X145671428Y-77391762D02*
X145457142Y-77391762D01*
X145457142Y-77391762D02*
X145314285Y-77463191D01*
X145314285Y-77463191D02*
X145242857Y-77606048D01*
X145242857Y-77606048D02*
X145242857Y-78391762D01*
X144314285Y-78391762D02*
X144457142Y-78320334D01*
X144457142Y-78320334D02*
X144528571Y-78248905D01*
X144528571Y-78248905D02*
X144599999Y-78106048D01*
X144599999Y-78106048D02*
X144599999Y-77677476D01*
X144599999Y-77677476D02*
X144528571Y-77534619D01*
X144528571Y-77534619D02*
X144457142Y-77463191D01*
X144457142Y-77463191D02*
X144314285Y-77391762D01*
X144314285Y-77391762D02*
X144099999Y-77391762D01*
X144099999Y-77391762D02*
X143957142Y-77463191D01*
X143957142Y-77463191D02*
X143885714Y-77534619D01*
X143885714Y-77534619D02*
X143814285Y-77677476D01*
X143814285Y-77677476D02*
X143814285Y-78106048D01*
X143814285Y-78106048D02*
X143885714Y-78248905D01*
X143885714Y-78248905D02*
X143957142Y-78320334D01*
X143957142Y-78320334D02*
X144099999Y-78391762D01*
X144099999Y-78391762D02*
X144314285Y-78391762D01*
X143171428Y-78391762D02*
X143171428Y-76891762D01*
X143171428Y-77463191D02*
X143028571Y-77391762D01*
X143028571Y-77391762D02*
X142742856Y-77391762D01*
X142742856Y-77391762D02*
X142599999Y-77463191D01*
X142599999Y-77463191D02*
X142528571Y-77534619D01*
X142528571Y-77534619D02*
X142457142Y-77677476D01*
X142457142Y-77677476D02*
X142457142Y-78106048D01*
X142457142Y-78106048D02*
X142528571Y-78248905D01*
X142528571Y-78248905D02*
X142599999Y-78320334D01*
X142599999Y-78320334D02*
X142742856Y-78391762D01*
X142742856Y-78391762D02*
X143028571Y-78391762D01*
X143028571Y-78391762D02*
X143171428Y-78320334D01*
X141599999Y-78391762D02*
X141742856Y-78320334D01*
X141742856Y-78320334D02*
X141814285Y-78177476D01*
X141814285Y-78177476D02*
X141814285Y-76891762D01*
X140457142Y-78320334D02*
X140599999Y-78391762D01*
X140599999Y-78391762D02*
X140885714Y-78391762D01*
X140885714Y-78391762D02*
X141028571Y-78320334D01*
X141028571Y-78320334D02*
X141099999Y-78177476D01*
X141099999Y-78177476D02*
X141099999Y-77606048D01*
X141099999Y-77606048D02*
X141028571Y-77463191D01*
X141028571Y-77463191D02*
X140885714Y-77391762D01*
X140885714Y-77391762D02*
X140599999Y-77391762D01*
X140599999Y-77391762D02*
X140457142Y-77463191D01*
X140457142Y-77463191D02*
X140385714Y-77606048D01*
X140385714Y-77606048D02*
X140385714Y-77748905D01*
X140385714Y-77748905D02*
X141099999Y-77891762D01*
X138671428Y-77963191D02*
X137957143Y-77963191D01*
X138814285Y-78391762D02*
X138314285Y-76891762D01*
X138314285Y-76891762D02*
X137814285Y-78391762D01*
X137100000Y-78391762D02*
X137242857Y-78320334D01*
X137242857Y-78320334D02*
X137314286Y-78177476D01*
X137314286Y-78177476D02*
X137314286Y-76891762D01*
X136528572Y-77391762D02*
X136528572Y-78891762D01*
X136528572Y-77463191D02*
X136385715Y-77391762D01*
X136385715Y-77391762D02*
X136100000Y-77391762D01*
X136100000Y-77391762D02*
X135957143Y-77463191D01*
X135957143Y-77463191D02*
X135885715Y-77534619D01*
X135885715Y-77534619D02*
X135814286Y-77677476D01*
X135814286Y-77677476D02*
X135814286Y-78106048D01*
X135814286Y-78106048D02*
X135885715Y-78248905D01*
X135885715Y-78248905D02*
X135957143Y-78320334D01*
X135957143Y-78320334D02*
X136100000Y-78391762D01*
X136100000Y-78391762D02*
X136385715Y-78391762D01*
X136385715Y-78391762D02*
X136528572Y-78320334D01*
X134600000Y-78320334D02*
X134742857Y-78391762D01*
X134742857Y-78391762D02*
X135028572Y-78391762D01*
X135028572Y-78391762D02*
X135171429Y-78320334D01*
X135171429Y-78320334D02*
X135242857Y-78177476D01*
X135242857Y-78177476D02*
X135242857Y-77606048D01*
X135242857Y-77606048D02*
X135171429Y-77463191D01*
X135171429Y-77463191D02*
X135028572Y-77391762D01*
X135028572Y-77391762D02*
X134742857Y-77391762D01*
X134742857Y-77391762D02*
X134600000Y-77463191D01*
X134600000Y-77463191D02*
X134528572Y-77606048D01*
X134528572Y-77606048D02*
X134528572Y-77748905D01*
X134528572Y-77748905D02*
X135242857Y-77891762D01*
X133957143Y-78320334D02*
X133814286Y-78391762D01*
X133814286Y-78391762D02*
X133528572Y-78391762D01*
X133528572Y-78391762D02*
X133385715Y-78320334D01*
X133385715Y-78320334D02*
X133314286Y-78177476D01*
X133314286Y-78177476D02*
X133314286Y-78106048D01*
X133314286Y-78106048D02*
X133385715Y-77963191D01*
X133385715Y-77963191D02*
X133528572Y-77891762D01*
X133528572Y-77891762D02*
X133742858Y-77891762D01*
X133742858Y-77891762D02*
X133885715Y-77820334D01*
X133885715Y-77820334D02*
X133957143Y-77677476D01*
X133957143Y-77677476D02*
X133957143Y-77606048D01*
X133957143Y-77606048D02*
X133885715Y-77463191D01*
X133885715Y-77463191D02*
X133742858Y-77391762D01*
X133742858Y-77391762D02*
X133528572Y-77391762D01*
X133528572Y-77391762D02*
X133385715Y-77463191D01*
X151528569Y-80806678D02*
X152385712Y-80806678D01*
X151957141Y-80806678D02*
X151957141Y-79306678D01*
X151957141Y-79306678D02*
X152099998Y-79520964D01*
X152099998Y-79520964D02*
X152242855Y-79663821D01*
X152242855Y-79663821D02*
X152385712Y-79735250D01*
X150099998Y-80806678D02*
X150957141Y-80806678D01*
X150528570Y-80806678D02*
X150528570Y-79306678D01*
X150528570Y-79306678D02*
X150671427Y-79520964D01*
X150671427Y-79520964D02*
X150814284Y-79663821D01*
X150814284Y-79663821D02*
X150957141Y-79735250D01*
X148385713Y-79235250D02*
X149671427Y-81163821D01*
X147957141Y-79449535D02*
X147885713Y-79378107D01*
X147885713Y-79378107D02*
X147742856Y-79306678D01*
X147742856Y-79306678D02*
X147385713Y-79306678D01*
X147385713Y-79306678D02*
X147242856Y-79378107D01*
X147242856Y-79378107D02*
X147171427Y-79449535D01*
X147171427Y-79449535D02*
X147099998Y-79592392D01*
X147099998Y-79592392D02*
X147099998Y-79735250D01*
X147099998Y-79735250D02*
X147171427Y-79949535D01*
X147171427Y-79949535D02*
X148028570Y-80806678D01*
X148028570Y-80806678D02*
X147099998Y-80806678D01*
X146171427Y-79306678D02*
X146028570Y-79306678D01*
X146028570Y-79306678D02*
X145885713Y-79378107D01*
X145885713Y-79378107D02*
X145814285Y-79449535D01*
X145814285Y-79449535D02*
X145742856Y-79592392D01*
X145742856Y-79592392D02*
X145671427Y-79878107D01*
X145671427Y-79878107D02*
X145671427Y-80235250D01*
X145671427Y-80235250D02*
X145742856Y-80520964D01*
X145742856Y-80520964D02*
X145814285Y-80663821D01*
X145814285Y-80663821D02*
X145885713Y-80735250D01*
X145885713Y-80735250D02*
X146028570Y-80806678D01*
X146028570Y-80806678D02*
X146171427Y-80806678D01*
X146171427Y-80806678D02*
X146314285Y-80735250D01*
X146314285Y-80735250D02*
X146385713Y-80663821D01*
X146385713Y-80663821D02*
X146457142Y-80520964D01*
X146457142Y-80520964D02*
X146528570Y-80235250D01*
X146528570Y-80235250D02*
X146528570Y-79878107D01*
X146528570Y-79878107D02*
X146457142Y-79592392D01*
X146457142Y-79592392D02*
X146385713Y-79449535D01*
X146385713Y-79449535D02*
X146314285Y-79378107D01*
X146314285Y-79378107D02*
X146171427Y-79306678D01*
X145099999Y-79449535D02*
X145028571Y-79378107D01*
X145028571Y-79378107D02*
X144885714Y-79306678D01*
X144885714Y-79306678D02*
X144528571Y-79306678D01*
X144528571Y-79306678D02*
X144385714Y-79378107D01*
X144385714Y-79378107D02*
X144314285Y-79449535D01*
X144314285Y-79449535D02*
X144242856Y-79592392D01*
X144242856Y-79592392D02*
X144242856Y-79735250D01*
X144242856Y-79735250D02*
X144314285Y-79949535D01*
X144314285Y-79949535D02*
X145171428Y-80806678D01*
X145171428Y-80806678D02*
X144242856Y-80806678D01*
X142885714Y-79306678D02*
X143600000Y-79306678D01*
X143600000Y-79306678D02*
X143671428Y-80020964D01*
X143671428Y-80020964D02*
X143600000Y-79949535D01*
X143600000Y-79949535D02*
X143457143Y-79878107D01*
X143457143Y-79878107D02*
X143100000Y-79878107D01*
X143100000Y-79878107D02*
X142957143Y-79949535D01*
X142957143Y-79949535D02*
X142885714Y-80020964D01*
X142885714Y-80020964D02*
X142814285Y-80163821D01*
X142814285Y-80163821D02*
X142814285Y-80520964D01*
X142814285Y-80520964D02*
X142885714Y-80663821D01*
X142885714Y-80663821D02*
X142957143Y-80735250D01*
X142957143Y-80735250D02*
X143100000Y-80806678D01*
X143100000Y-80806678D02*
X143457143Y-80806678D01*
X143457143Y-80806678D02*
X143600000Y-80735250D01*
X143600000Y-80735250D02*
X143671428Y-80663821D01*
%LPC*%
D12*
%TO.C,Q1*%
X146700000Y-98520000D03*
D13*
X146700000Y-97250000D03*
X146700000Y-95980000D03*
%TD*%
D14*
%TO.C,H3*%
X171700000Y-117550000D03*
%TD*%
D15*
%TO.C,J2*%
X171705000Y-107050000D03*
D16*
X171705000Y-109590000D03*
%TD*%
D15*
%TO.C,J3*%
X131700000Y-117550000D03*
D16*
X134240000Y-117550000D03*
X136780000Y-117550000D03*
X139320000Y-117550000D03*
X141860000Y-117550000D03*
X144400000Y-117550000D03*
X146940000Y-117550000D03*
X149480000Y-117550000D03*
X152020000Y-117550000D03*
X154560000Y-117550000D03*
X157100000Y-117550000D03*
X159640000Y-117550000D03*
X162180000Y-117550000D03*
X164720000Y-117550000D03*
%TD*%
D14*
%TO.C,H2*%
X169700000Y-79050000D03*
%TD*%
D17*
%TO.C,R1*%
X131500000Y-88350000D03*
D18*
X144200000Y-88350000D03*
%TD*%
D14*
%TO.C,H1*%
X124200000Y-79050000D03*
%TD*%
D19*
%TO.C,J1*%
X122562500Y-104800000D03*
X122562500Y-96300000D03*
%TD*%
D14*
%TO.C,H4*%
X124200000Y-117550000D03*
%TD*%
D17*
%TO.C,C1*%
X132950000Y-81200000D03*
X155450000Y-81200000D03*
%TD*%
D20*
%TO.C,TH1*%
X168800000Y-102050000D03*
D21*
X170700000Y-102050000D03*
%TD*%
%LPD*%
M02*
