%TF.GenerationSoftware,KiCad,Pcbnew,8.0.7*%
%TF.CreationDate,2025-10-24T17:03:05+02:00*%
%TF.ProjectId,Medidor_clk_PCB,4d656469-646f-4725-9f63-6c6b5f504342,rev?*%
%TF.SameCoordinates,Original*%
%TF.FileFunction,Soldermask,Top*%
%TF.FilePolarity,Negative*%
%FSLAX46Y46*%
G04 Gerber Fmt 4.6, Leading zero omitted, Abs format (unit mm)*
G04 Created by KiCad (PCBNEW 8.0.7) date 2025-10-24 17:03:05*
%MOMM*%
%LPD*%
G01*
G04 APERTURE LIST*
G04 Aperture macros list*
%AMRoundRect*
0 Rectangle with rounded corners*
0 $1 Rounding radius*
0 $2 $3 $4 $5 $6 $7 $8 $9 X,Y pos of 4 corners*
0 Add a 4 corners polygon primitive as box body*
4,1,4,$2,$3,$4,$5,$6,$7,$8,$9,$2,$3,0*
0 Add four circle primitives for the rounded corners*
1,1,$1+$1,$2,$3*
1,1,$1+$1,$4,$5*
1,1,$1+$1,$6,$7*
1,1,$1+$1,$8,$9*
0 Add four rect primitives between the rounded corners*
20,1,$1+$1,$2,$3,$4,$5,0*
20,1,$1+$1,$4,$5,$6,$7,0*
20,1,$1+$1,$6,$7,$8,$9,0*
20,1,$1+$1,$8,$9,$2,$3,0*%
%AMFreePoly0*
4,1,19,0.500000,-0.750000,0.000000,-0.750000,0.000000,-0.744911,-0.071157,-0.744911,-0.207708,-0.704816,-0.327430,-0.627875,-0.420627,-0.520320,-0.479746,-0.390866,-0.500000,-0.250000,-0.500000,0.250000,-0.479746,0.390866,-0.420627,0.520320,-0.327430,0.627875,-0.207708,0.704816,-0.071157,0.744911,0.000000,0.744911,0.000000,0.750000,0.500000,0.750000,0.500000,-0.750000,0.500000,-0.750000,
$1*%
%AMFreePoly1*
4,1,19,0.000000,0.744911,0.071157,0.744911,0.207708,0.704816,0.327430,0.627875,0.420627,0.520320,0.479746,0.390866,0.500000,0.250000,0.500000,-0.250000,0.479746,-0.390866,0.420627,-0.520320,0.327430,-0.627875,0.207708,-0.704816,0.071157,-0.744911,0.000000,-0.744911,0.000000,-0.750000,-0.500000,-0.750000,-0.500000,0.750000,0.000000,0.750000,0.000000,0.744911,0.000000,0.744911,
$1*%
G04 Aperture macros list end*
%ADD10RoundRect,0.250000X0.250000X0.475000X-0.250000X0.475000X-0.250000X-0.475000X0.250000X-0.475000X0*%
%ADD11RoundRect,0.250000X0.450000X-0.262500X0.450000X0.262500X-0.450000X0.262500X-0.450000X-0.262500X0*%
%ADD12R,1.500000X1.050000*%
%ADD13O,1.500000X1.050000*%
%ADD14RoundRect,0.250000X-0.475000X0.250000X-0.475000X-0.250000X0.475000X-0.250000X0.475000X0.250000X0*%
%ADD15C,4.300000*%
%ADD16RoundRect,0.100000X-0.225000X-0.100000X0.225000X-0.100000X0.225000X0.100000X-0.225000X0.100000X0*%
%ADD17RoundRect,0.100500X-0.986500X-0.301500X0.986500X-0.301500X0.986500X0.301500X-0.986500X0.301500X0*%
%ADD18RoundRect,0.250000X-0.250000X-0.475000X0.250000X-0.475000X0.250000X0.475000X-0.250000X0.475000X0*%
%ADD19FreePoly0,0.000000*%
%ADD20FreePoly1,0.000000*%
%ADD21RoundRect,0.150000X-0.650000X-0.150000X0.650000X-0.150000X0.650000X0.150000X-0.650000X0.150000X0*%
%ADD22RoundRect,0.250000X-0.262500X-0.450000X0.262500X-0.450000X0.262500X0.450000X-0.262500X0.450000X0*%
%ADD23R,1.700000X1.700000*%
%ADD24O,1.700000X1.700000*%
%ADD25C,2.400000*%
%ADD26O,2.400000X2.400000*%
%ADD27RoundRect,0.150000X-0.150000X0.725000X-0.150000X-0.725000X0.150000X-0.725000X0.150000X0.725000X0*%
%ADD28FreePoly0,270.000000*%
%ADD29FreePoly1,270.000000*%
%ADD30R,5.080000X1.500000*%
%ADD31RoundRect,0.250000X-0.450000X0.262500X-0.450000X-0.262500X0.450000X-0.262500X0.450000X0.262500X0*%
%ADD32C,1.400000*%
%ADD33O,1.400000X1.400000*%
%ADD34RoundRect,0.250000X0.262500X0.450000X-0.262500X0.450000X-0.262500X-0.450000X0.262500X-0.450000X0*%
G04 APERTURE END LIST*
D10*
%TO.C,C8*%
X153350000Y-91850000D03*
X155250000Y-91850000D03*
%TD*%
D11*
%TO.C,R3*%
X161850000Y-82012500D03*
X161850000Y-80187500D03*
%TD*%
D12*
%TO.C,Q1*%
X146700000Y-98520000D03*
D13*
X146700000Y-97250000D03*
X146700000Y-95980000D03*
%TD*%
D14*
%TO.C,C3*%
X160250000Y-105500000D03*
X160250000Y-107400000D03*
%TD*%
D15*
%TO.C,H3*%
X171700000Y-117550000D03*
%TD*%
D16*
%TO.C,U1*%
X130150000Y-92650000D03*
X130150000Y-93300000D03*
X130150000Y-93950000D03*
X132050000Y-93950000D03*
X132050000Y-92650000D03*
%TD*%
D17*
%TO.C,U2*%
X130875000Y-97130000D03*
X130875000Y-98400000D03*
X130875000Y-99670000D03*
X130875000Y-100940000D03*
X130875000Y-102210000D03*
X130875000Y-103480000D03*
X130875000Y-104750000D03*
X130875000Y-106020000D03*
X135825000Y-106020000D03*
X135825000Y-104750000D03*
X135825000Y-103480000D03*
X135825000Y-102210000D03*
X135825000Y-100940000D03*
X135825000Y-99670000D03*
X135825000Y-98400000D03*
X135825000Y-97130000D03*
%TD*%
D18*
%TO.C,C5*%
X140250000Y-102300000D03*
X142150000Y-102300000D03*
%TD*%
D19*
%TO.C,JP2*%
X156350000Y-101350000D03*
D20*
X157650000Y-101350000D03*
%TD*%
D21*
%TO.C,U5*%
X159100000Y-94337500D03*
X159100000Y-95287500D03*
X159100000Y-96237500D03*
X161400000Y-96237500D03*
X161400000Y-94337500D03*
%TD*%
D22*
%TO.C,R5*%
X163587500Y-111600000D03*
X165412500Y-111600000D03*
%TD*%
D19*
%TO.C,JP3*%
X136200000Y-93150000D03*
D20*
X137500000Y-93150000D03*
%TD*%
D23*
%TO.C,J2*%
X171705000Y-107050000D03*
D24*
X171705000Y-109590000D03*
%TD*%
D11*
%TO.C,R4*%
X161800000Y-86862500D03*
X161800000Y-85037500D03*
%TD*%
D23*
%TO.C,J3*%
X131700000Y-117550000D03*
D24*
X134240000Y-117550000D03*
X136780000Y-117550000D03*
X139320000Y-117550000D03*
X141860000Y-117550000D03*
X144400000Y-117550000D03*
X146940000Y-117550000D03*
X149480000Y-117550000D03*
X152020000Y-117550000D03*
X154560000Y-117550000D03*
X157100000Y-117550000D03*
X159640000Y-117550000D03*
X162180000Y-117550000D03*
X164720000Y-117550000D03*
%TD*%
D15*
%TO.C,H2*%
X169700000Y-79050000D03*
%TD*%
D16*
%TO.C,U3*%
X150500000Y-87850000D03*
X150500000Y-88500000D03*
X150500000Y-89150000D03*
X152400000Y-89150000D03*
X152400000Y-87850000D03*
%TD*%
D25*
%TO.C,R1*%
X131500000Y-88350000D03*
D26*
X144200000Y-88350000D03*
%TD*%
D15*
%TO.C,H1*%
X124200000Y-79050000D03*
%TD*%
D18*
%TO.C,C6*%
X150550000Y-98900000D03*
X152450000Y-98900000D03*
%TD*%
D27*
%TO.C,U6*%
X151630000Y-107525000D03*
X150360000Y-107525000D03*
X149090000Y-107525000D03*
X147820000Y-107525000D03*
X146550000Y-107525000D03*
X145280000Y-107525000D03*
X144010000Y-107525000D03*
X142740000Y-107525000D03*
X142740000Y-112675000D03*
X144010000Y-112675000D03*
X145280000Y-112675000D03*
X146550000Y-112675000D03*
X147820000Y-112675000D03*
X149090000Y-112675000D03*
X150360000Y-112675000D03*
X151630000Y-112675000D03*
%TD*%
D28*
%TO.C,JP1*%
X163800000Y-90650000D03*
D29*
X163800000Y-91950000D03*
%TD*%
D30*
%TO.C,J1*%
X122562500Y-100550000D03*
X122562500Y-104800000D03*
X122562500Y-96300000D03*
%TD*%
D15*
%TO.C,H4*%
X124200000Y-117550000D03*
%TD*%
D14*
%TO.C,C2*%
X164250000Y-105500000D03*
X164250000Y-107400000D03*
%TD*%
D25*
%TO.C,C1*%
X132950000Y-81200000D03*
X155450000Y-81200000D03*
%TD*%
D31*
%TO.C,R6*%
X157250000Y-87937500D03*
X157250000Y-89762500D03*
%TD*%
D32*
%TO.C,TH1*%
X168800000Y-102050000D03*
D33*
X170700000Y-102050000D03*
%TD*%
D18*
%TO.C,C7*%
X150600000Y-95150000D03*
X152500000Y-95150000D03*
%TD*%
D34*
%TO.C,R2*%
X148962500Y-101500000D03*
X147137500Y-101500000D03*
%TD*%
D18*
%TO.C,C4*%
X140250000Y-98450000D03*
X142150000Y-98450000D03*
%TD*%
M02*
