%TF.GenerationSoftware,KiCad,Pcbnew,8.0.7*%
%TF.CreationDate,2025-10-24T17:03:05+02:00*%
%TF.ProjectId,Medidor_clk_PCB,4d656469-646f-4725-9f63-6c6b5f504342,rev?*%
%TF.SameCoordinates,Original*%
%TF.FileFunction,Copper,L1,Top*%
%TF.FilePolarity,Positive*%
%FSLAX46Y46*%
G04 Gerber Fmt 4.6, Leading zero omitted, Abs format (unit mm)*
G04 Created by KiCad (PCBNEW 8.0.7) date 2025-10-24 17:03:05*
%MOMM*%
%LPD*%
G01*
G04 APERTURE LIST*
G04 Aperture macros list*
%AMRoundRect*
0 Rectangle with rounded corners*
0 $1 Rounding radius*
0 $2 $3 $4 $5 $6 $7 $8 $9 X,Y pos of 4 corners*
0 Add a 4 corners polygon primitive as box body*
4,1,4,$2,$3,$4,$5,$6,$7,$8,$9,$2,$3,0*
0 Add four circle primitives for the rounded corners*
1,1,$1+$1,$2,$3*
1,1,$1+$1,$4,$5*
1,1,$1+$1,$6,$7*
1,1,$1+$1,$8,$9*
0 Add four rect primitives between the rounded corners*
20,1,$1+$1,$2,$3,$4,$5,0*
20,1,$1+$1,$4,$5,$6,$7,0*
20,1,$1+$1,$6,$7,$8,$9,0*
20,1,$1+$1,$8,$9,$2,$3,0*%
%AMFreePoly0*
4,1,19,0.500000,-0.750000,0.000000,-0.750000,0.000000,-0.744911,-0.071157,-0.744911,-0.207708,-0.704816,-0.327430,-0.627875,-0.420627,-0.520320,-0.479746,-0.390866,-0.500000,-0.250000,-0.500000,0.250000,-0.479746,0.390866,-0.420627,0.520320,-0.327430,0.627875,-0.207708,0.704816,-0.071157,0.744911,0.000000,0.744911,0.000000,0.750000,0.500000,0.750000,0.500000,-0.750000,0.500000,-0.750000,
$1*%
%AMFreePoly1*
4,1,19,0.000000,0.744911,0.071157,0.744911,0.207708,0.704816,0.327430,0.627875,0.420627,0.520320,0.479746,0.390866,0.500000,0.250000,0.500000,-0.250000,0.479746,-0.390866,0.420627,-0.520320,0.327430,-0.627875,0.207708,-0.704816,0.071157,-0.744911,0.000000,-0.744911,0.000000,-0.750000,-0.500000,-0.750000,-0.500000,0.750000,0.000000,0.750000,0.000000,0.744911,0.000000,0.744911,
$1*%
G04 Aperture macros list end*
%TA.AperFunction,SMDPad,CuDef*%
%ADD10RoundRect,0.250000X0.250000X0.475000X-0.250000X0.475000X-0.250000X-0.475000X0.250000X-0.475000X0*%
%TD*%
%TA.AperFunction,SMDPad,CuDef*%
%ADD11RoundRect,0.250000X0.450000X-0.262500X0.450000X0.262500X-0.450000X0.262500X-0.450000X-0.262500X0*%
%TD*%
%TA.AperFunction,ComponentPad*%
%ADD12R,1.500000X1.050000*%
%TD*%
%TA.AperFunction,ComponentPad*%
%ADD13O,1.500000X1.050000*%
%TD*%
%TA.AperFunction,SMDPad,CuDef*%
%ADD14RoundRect,0.250000X-0.475000X0.250000X-0.475000X-0.250000X0.475000X-0.250000X0.475000X0.250000X0*%
%TD*%
%TA.AperFunction,SMDPad,CuDef*%
%ADD15RoundRect,0.100000X-0.225000X-0.100000X0.225000X-0.100000X0.225000X0.100000X-0.225000X0.100000X0*%
%TD*%
%TA.AperFunction,SMDPad,CuDef*%
%ADD16RoundRect,0.075000X-0.910000X-0.225000X0.910000X-0.225000X0.910000X0.225000X-0.910000X0.225000X0*%
%TD*%
%TA.AperFunction,SMDPad,CuDef*%
%ADD17RoundRect,0.250000X-0.250000X-0.475000X0.250000X-0.475000X0.250000X0.475000X-0.250000X0.475000X0*%
%TD*%
%TA.AperFunction,SMDPad,CuDef*%
%ADD18FreePoly0,0.000000*%
%TD*%
%TA.AperFunction,SMDPad,CuDef*%
%ADD19FreePoly1,0.000000*%
%TD*%
%TA.AperFunction,SMDPad,CuDef*%
%ADD20RoundRect,0.150000X-0.650000X-0.150000X0.650000X-0.150000X0.650000X0.150000X-0.650000X0.150000X0*%
%TD*%
%TA.AperFunction,SMDPad,CuDef*%
%ADD21RoundRect,0.250000X-0.262500X-0.450000X0.262500X-0.450000X0.262500X0.450000X-0.262500X0.450000X0*%
%TD*%
%TA.AperFunction,ComponentPad*%
%ADD22R,1.700000X1.700000*%
%TD*%
%TA.AperFunction,ComponentPad*%
%ADD23O,1.700000X1.700000*%
%TD*%
%TA.AperFunction,ComponentPad*%
%ADD24C,2.400000*%
%TD*%
%TA.AperFunction,ComponentPad*%
%ADD25O,2.400000X2.400000*%
%TD*%
%TA.AperFunction,SMDPad,CuDef*%
%ADD26RoundRect,0.150000X-0.150000X0.725000X-0.150000X-0.725000X0.150000X-0.725000X0.150000X0.725000X0*%
%TD*%
%TA.AperFunction,SMDPad,CuDef*%
%ADD27FreePoly0,270.000000*%
%TD*%
%TA.AperFunction,SMDPad,CuDef*%
%ADD28FreePoly1,270.000000*%
%TD*%
%TA.AperFunction,SMDPad,CuDef*%
%ADD29R,5.080000X1.500000*%
%TD*%
%TA.AperFunction,SMDPad,CuDef*%
%ADD30RoundRect,0.250000X-0.450000X0.262500X-0.450000X-0.262500X0.450000X-0.262500X0.450000X0.262500X0*%
%TD*%
%TA.AperFunction,ComponentPad*%
%ADD31C,1.400000*%
%TD*%
%TA.AperFunction,ComponentPad*%
%ADD32O,1.400000X1.400000*%
%TD*%
%TA.AperFunction,SMDPad,CuDef*%
%ADD33RoundRect,0.250000X0.262500X0.450000X-0.262500X0.450000X-0.262500X-0.450000X0.262500X-0.450000X0*%
%TD*%
%TA.AperFunction,ViaPad*%
%ADD34C,0.600000*%
%TD*%
%TA.AperFunction,Conductor*%
%ADD35C,0.500000*%
%TD*%
%TA.AperFunction,Conductor*%
%ADD36C,0.250000*%
%TD*%
%TA.AperFunction,Conductor*%
%ADD37C,1.000000*%
%TD*%
%TA.AperFunction,Conductor*%
%ADD38C,1.500000*%
%TD*%
%TA.AperFunction,Conductor*%
%ADD39C,0.750000*%
%TD*%
G04 APERTURE END LIST*
D10*
%TO.P,C8,2*%
%TO.N,Earth*%
X153350000Y-91850000D03*
%TO.P,C8,1*%
%TO.N,Net-(JP1-A)*%
X155250000Y-91850000D03*
%TD*%
D11*
%TO.P,R3,1*%
%TO.N,Net-(U3-+)*%
X161850000Y-82012500D03*
%TO.P,R3,2*%
%TO.N,+3.3V*%
X161850000Y-80187500D03*
%TD*%
D12*
%TO.P,Q1,1,S*%
%TO.N,Net-(Q1-S)*%
X146700000Y-98520000D03*
D13*
%TO.P,Q1,2,G*%
%TO.N,RST*%
X146700000Y-97250000D03*
%TO.P,Q1,3,D*%
%TO.N,Net-(Q1-D)*%
X146700000Y-95980000D03*
%TD*%
D14*
%TO.P,C3,1*%
%TO.N,+3.3V*%
X160250000Y-105500000D03*
%TO.P,C3,2*%
%TO.N,Earth*%
X160250000Y-107400000D03*
%TD*%
D15*
%TO.P,U1,1*%
%TO.N,N/C*%
X130150000Y-92650000D03*
%TO.P,U1,2*%
%TO.N,RST*%
X130150000Y-93300000D03*
%TO.P,U1,3,GND*%
%TO.N,Earth*%
X130150000Y-93950000D03*
%TO.P,U1,4*%
%TO.N,Net-(U2-~{Mr})*%
X132050000Y-93950000D03*
%TO.P,U1,5,VCC*%
%TO.N,+3.3V*%
X132050000Y-92650000D03*
%TD*%
D16*
%TO.P,U2,1,~{Mr}*%
%TO.N,Net-(U2-~{Mr})*%
X130875000Y-97130000D03*
%TO.P,U2,2,Q0*%
%TO.N,Net-(JP3-A)*%
X130875000Y-98400000D03*
%TO.P,U2,3,~{Q0}*%
%TO.N,unconnected-(U2-~{Q0}-Pad3)*%
X130875000Y-99670000D03*
%TO.P,U2,4,D0*%
%TO.N,+3.3V*%
X130875000Y-100940000D03*
%TO.P,U2,5,D1*%
%TO.N,unconnected-(U2-D1-Pad5)*%
X130875000Y-102210000D03*
%TO.P,U2,6,~{Q1}*%
%TO.N,unconnected-(U2-~{Q1}-Pad6)*%
X130875000Y-103480000D03*
%TO.P,U2,7,Q1*%
%TO.N,unconnected-(U2-Q1-Pad7)*%
X130875000Y-104750000D03*
%TO.P,U2,8,GND*%
%TO.N,Earth*%
X130875000Y-106020000D03*
%TO.P,U2,9,Cp*%
%TO.N,Net-(J1-In)*%
X135825000Y-106020000D03*
%TO.P,U2,10,Q2*%
%TO.N,unconnected-(U2-Q2-Pad10)*%
X135825000Y-104750000D03*
%TO.P,U2,11,~{Q2}*%
%TO.N,unconnected-(U2-~{Q2}-Pad11)*%
X135825000Y-103480000D03*
%TO.P,U2,12,D2*%
%TO.N,unconnected-(U2-D2-Pad12)*%
X135825000Y-102210000D03*
%TO.P,U2,13,D3*%
%TO.N,unconnected-(U2-D3-Pad13)*%
X135825000Y-100940000D03*
%TO.P,U2,14,~{Q3}*%
%TO.N,unconnected-(U2-~{Q3}-Pad14)*%
X135825000Y-99670000D03*
%TO.P,U2,15,Q3*%
%TO.N,unconnected-(U2-Q3-Pad15)*%
X135825000Y-98400000D03*
%TO.P,U2,16,VCC*%
%TO.N,+3.3V*%
X135825000Y-97130000D03*
%TD*%
D17*
%TO.P,C5,1*%
%TO.N,+3.3V*%
X140250000Y-102300000D03*
%TO.P,C5,2*%
%TO.N,Earth*%
X142150000Y-102300000D03*
%TD*%
D18*
%TO.P,JP2,1,A*%
%TO.N,Net-(J1-In)*%
X156350000Y-101350000D03*
D19*
%TO.P,JP2,2,B*%
%TO.N,Net-(JP2-B)*%
X157650000Y-101350000D03*
%TD*%
D20*
%TO.P,U5,1*%
%TO.N,DT_OUT*%
X159100000Y-94337500D03*
%TO.P,U5,2*%
%TO.N,Net-(JP2-B)*%
X159100000Y-95287500D03*
%TO.P,U5,3,GND*%
%TO.N,Earth*%
X159100000Y-96237500D03*
%TO.P,U5,4*%
%TO.N,Net-(U6-rs)*%
X161400000Y-96237500D03*
%TO.P,U5,5,VCC*%
%TO.N,+3.3V*%
X161400000Y-94337500D03*
%TD*%
D21*
%TO.P,R5,1*%
%TO.N,RST*%
X163587500Y-111600000D03*
%TO.P,R5,2*%
%TO.N,Earth*%
X165412500Y-111600000D03*
%TD*%
D18*
%TO.P,JP3,1,A*%
%TO.N,Net-(JP3-A)*%
X136200000Y-93150000D03*
D19*
%TO.P,JP3,2,B*%
%TO.N,Net-(JP3-B)*%
X137500000Y-93150000D03*
%TD*%
D22*
%TO.P,J2,1,Pin_1*%
%TO.N,Net-(J2-Pin_1)*%
X171705000Y-107050000D03*
D23*
%TO.P,J2,2,Pin_2*%
%TO.N,Net-(J2-Pin_2)*%
X171705000Y-109590000D03*
%TD*%
D11*
%TO.P,R4,1*%
%TO.N,Earth*%
X161800000Y-86862500D03*
%TO.P,R4,2*%
%TO.N,Net-(U3-+)*%
X161800000Y-85037500D03*
%TD*%
D22*
%TO.P,J3,1,Pin_1*%
%TO.N,Earth*%
X131700000Y-117550000D03*
D23*
%TO.P,J3,2,Pin_2*%
%TO.N,Q3*%
X134240000Y-117550000D03*
%TO.P,J3,3,Pin_3*%
%TO.N,Q4*%
X136780000Y-117550000D03*
%TO.P,J3,4,Pin_4*%
%TO.N,Q5*%
X139320000Y-117550000D03*
%TO.P,J3,5,Pin_5*%
%TO.N,Q6*%
X141860000Y-117550000D03*
%TO.P,J3,6,Pin_6*%
%TO.N,Q7*%
X144400000Y-117550000D03*
%TO.P,J3,7,Pin_7*%
%TO.N,Q8*%
X146940000Y-117550000D03*
%TO.P,J3,8,Pin_8*%
%TO.N,Q9*%
X149480000Y-117550000D03*
%TO.P,J3,9,Pin_9*%
%TO.N,Q11*%
X152020000Y-117550000D03*
%TO.P,J3,10,Pin_10*%
%TO.N,Q12*%
X154560000Y-117550000D03*
%TO.P,J3,11,Pin_11*%
%TO.N,Q13*%
X157100000Y-117550000D03*
%TO.P,J3,12,Pin_12*%
%TO.N,DT_OUT*%
X159640000Y-117550000D03*
%TO.P,J3,13,Pin_13*%
%TO.N,RST*%
X162180000Y-117550000D03*
%TO.P,J3,14,Pin_14*%
%TO.N,+3.3V*%
X164720000Y-117550000D03*
%TD*%
D15*
%TO.P,U3,1,+*%
%TO.N,Net-(U3-+)*%
X150500000Y-87850000D03*
%TO.P,U3,2,V-*%
%TO.N,Earth*%
X150500000Y-88500000D03*
%TO.P,U3,3,-*%
%TO.N,Net-(Q1-D)*%
X150500000Y-89150000D03*
%TO.P,U3,4*%
%TO.N,Net-(JP1-A)*%
X152400000Y-89150000D03*
%TO.P,U3,5,V+*%
%TO.N,+3.3V*%
X152400000Y-87850000D03*
%TD*%
D24*
%TO.P,R1,1*%
%TO.N,Net-(JP3-B)*%
X131500000Y-88350000D03*
D25*
%TO.P,R1,2*%
%TO.N,Net-(Q1-D)*%
X144200000Y-88350000D03*
%TD*%
D17*
%TO.P,C6,1*%
%TO.N,+3.3V*%
X150550000Y-98900000D03*
%TO.P,C6,2*%
%TO.N,Earth*%
X152450000Y-98900000D03*
%TD*%
D26*
%TO.P,U6,1,Q11*%
%TO.N,Q11*%
X151630000Y-107525000D03*
%TO.P,U6,2,Q12*%
%TO.N,Q12*%
X150360000Y-107525000D03*
%TO.P,U6,3,Q13*%
%TO.N,Q13*%
X149090000Y-107525000D03*
%TO.P,U6,4,Q5*%
%TO.N,Q5*%
X147820000Y-107525000D03*
%TO.P,U6,5,Q4*%
%TO.N,Q4*%
X146550000Y-107525000D03*
%TO.P,U6,6,Q6*%
%TO.N,Q6*%
X145280000Y-107525000D03*
%TO.P,U6,7,Q3*%
%TO.N,Q3*%
X144010000Y-107525000D03*
%TO.P,U6,8,VSS*%
%TO.N,Earth*%
X142740000Y-107525000D03*
%TO.P,U6,9,CTC*%
%TO.N,unconnected-(U6-CTC-Pad9)*%
X142740000Y-112675000D03*
%TO.P,U6,10,RTC*%
%TO.N,unconnected-(U6-RTC-Pad10)*%
X144010000Y-112675000D03*
%TO.P,U6,11,rs*%
%TO.N,Net-(U6-rs)*%
X145280000Y-112675000D03*
%TO.P,U6,12,MR*%
%TO.N,RST*%
X146550000Y-112675000D03*
%TO.P,U6,13,Q8*%
%TO.N,Q8*%
X147820000Y-112675000D03*
%TO.P,U6,14,Q7*%
%TO.N,Q7*%
X149090000Y-112675000D03*
%TO.P,U6,15,Q9*%
%TO.N,Q9*%
X150360000Y-112675000D03*
%TO.P,U6,16,VCC*%
%TO.N,+3.3V*%
X151630000Y-112675000D03*
%TD*%
D27*
%TO.P,JP1,1,A*%
%TO.N,Net-(JP1-A)*%
X163800000Y-90650000D03*
D28*
%TO.P,JP1,2,B*%
%TO.N,DT_OUT*%
X163800000Y-91950000D03*
%TD*%
D29*
%TO.P,J1,1,In*%
%TO.N,Net-(J1-In)*%
X122562500Y-100550000D03*
%TO.P,J1,2,Ext*%
%TO.N,Earth*%
X122562500Y-104800000D03*
X122562500Y-96300000D03*
%TD*%
D14*
%TO.P,C2,1*%
%TO.N,+3.3V*%
X164250000Y-105500000D03*
%TO.P,C2,2*%
%TO.N,Earth*%
X164250000Y-107400000D03*
%TD*%
D24*
%TO.P,C1,1*%
%TO.N,Net-(Q1-D)*%
X132950000Y-81200000D03*
%TO.P,C1,2*%
%TO.N,Earth*%
X155450000Y-81200000D03*
%TD*%
D30*
%TO.P,R6,1*%
%TO.N,+3.3V*%
X157250000Y-87937500D03*
%TO.P,R6,2*%
%TO.N,Net-(JP1-A)*%
X157250000Y-89762500D03*
%TD*%
D31*
%TO.P,TH1,1*%
%TO.N,Net-(J2-Pin_2)*%
X168800000Y-102050000D03*
D32*
%TO.P,TH1,2*%
%TO.N,Net-(J2-Pin_1)*%
X170700000Y-102050000D03*
%TD*%
D17*
%TO.P,C7,1*%
%TO.N,+3.3V*%
X150600000Y-95150000D03*
%TO.P,C7,2*%
%TO.N,Earth*%
X152500000Y-95150000D03*
%TD*%
D33*
%TO.P,R2,1*%
%TO.N,Earth*%
X148962500Y-101500000D03*
%TO.P,R2,2*%
%TO.N,Net-(Q1-S)*%
X147137500Y-101500000D03*
%TD*%
D17*
%TO.P,C4,1*%
%TO.N,+3.3V*%
X140250000Y-98450000D03*
%TO.P,C4,2*%
%TO.N,Earth*%
X142150000Y-98450000D03*
%TD*%
D34*
%TO.N,DT_OUT*%
X161450000Y-92050000D03*
%TO.N,Earth*%
X127700000Y-109050000D03*
X172700000Y-92050000D03*
X139000000Y-105850000D03*
X141200000Y-82650000D03*
X153700000Y-76050000D03*
X151200000Y-120550000D03*
X145200000Y-120550000D03*
X150250000Y-79600000D03*
X138700000Y-120550000D03*
X138700000Y-76050000D03*
X174400000Y-107950000D03*
X147550000Y-105200000D03*
X124950000Y-93050000D03*
X135700000Y-76050000D03*
X174400000Y-110950000D03*
X157600000Y-111100000D03*
X172700000Y-89050000D03*
X138200000Y-82650000D03*
X150700000Y-76050000D03*
X135900000Y-108750000D03*
X174400000Y-101950000D03*
X154800000Y-86500000D03*
X154700000Y-120550000D03*
X158950000Y-109250000D03*
X135700000Y-120550000D03*
X160700000Y-120550000D03*
X141100000Y-108750000D03*
X147250000Y-79600000D03*
X121200000Y-113550000D03*
X159700000Y-76050000D03*
X124950000Y-87050000D03*
X131850000Y-110750000D03*
X127700000Y-112050000D03*
X147700000Y-76050000D03*
X132700000Y-76050000D03*
X163700000Y-120550000D03*
X121200000Y-110550000D03*
X132700000Y-120550000D03*
X142200000Y-120550000D03*
X129700000Y-120550000D03*
X121200000Y-93050000D03*
X144250000Y-79600000D03*
X138350000Y-111850000D03*
X156700000Y-76050000D03*
X144400000Y-101600000D03*
X121200000Y-107550000D03*
X157700000Y-120550000D03*
X174400000Y-98950000D03*
X159100000Y-98200000D03*
X129700000Y-76050000D03*
X128800000Y-94600000D03*
X157550000Y-112600000D03*
X172700000Y-86050000D03*
X148900000Y-86600000D03*
X145200000Y-90050000D03*
X138250000Y-79600000D03*
X144200000Y-82650000D03*
X124950000Y-84050000D03*
X141700000Y-76050000D03*
X121200000Y-84050000D03*
X124950000Y-90050000D03*
X152200000Y-85550000D03*
X150200000Y-82650000D03*
X121200000Y-87050000D03*
X172700000Y-95050000D03*
X164250000Y-85500000D03*
X162700000Y-76050000D03*
X174400000Y-104950000D03*
X147200000Y-82650000D03*
X148200000Y-120550000D03*
X131850000Y-113750000D03*
X121200000Y-90050000D03*
X159900000Y-100900000D03*
X141250000Y-79600000D03*
X144700000Y-76050000D03*
%TO.N,+3.3V*%
X157700000Y-107000000D03*
X143250000Y-92900000D03*
X151550000Y-90700000D03*
X151600000Y-110900000D03*
%TO.N,Q4*%
X136950000Y-113700000D03*
%TO.N,Q7*%
X148950000Y-115300000D03*
%TO.N,DT_OUT*%
X163750000Y-109350000D03*
%TO.N,Q5*%
X145500000Y-109400000D03*
%TO.N,RST*%
X145150000Y-115050000D03*
%TO.N,Net-(U6-rs)*%
X157400000Y-104650000D03*
X150200000Y-109250000D03*
%TD*%
D35*
%TO.N,Net-(JP1-A)*%
X157250000Y-89850000D02*
X155250000Y-91850000D01*
X157250000Y-89762500D02*
X157250000Y-89850000D01*
%TO.N,+3.3V*%
X150600000Y-95150000D02*
X150600000Y-98850000D01*
X150600000Y-98850000D02*
X150550000Y-98900000D01*
X150600000Y-93050000D02*
X150600000Y-95150000D01*
X151550000Y-92100000D02*
X150600000Y-93050000D01*
X151550000Y-90700000D02*
X151550000Y-92100000D01*
%TO.N,Net-(JP1-A)*%
X157962500Y-89762500D02*
X158850000Y-90650000D01*
X157250000Y-89762500D02*
X157962500Y-89762500D01*
X158850000Y-90650000D02*
X163800000Y-90650000D01*
X156637500Y-89150000D02*
X157250000Y-89762500D01*
X152400000Y-89150000D02*
X156637500Y-89150000D01*
D36*
%TO.N,Earth*%
X150175001Y-88500000D02*
X148900000Y-87224999D01*
D35*
X142150000Y-102300000D02*
X142850000Y-101600000D01*
X142850000Y-101600000D02*
X144400000Y-101600000D01*
D37*
X165500000Y-108650000D02*
X164250000Y-107400000D01*
D36*
X150500000Y-88500000D02*
X150175001Y-88500000D01*
D37*
X165500000Y-111512500D02*
X165500000Y-108650000D01*
X165412500Y-111600000D02*
X165500000Y-111512500D01*
D35*
X144400000Y-101600000D02*
X144450000Y-101600000D01*
D36*
X129450000Y-93950000D02*
X128800000Y-94600000D01*
X130150000Y-93950000D02*
X129450000Y-93950000D01*
X148900000Y-87224999D02*
X148900000Y-86600000D01*
D37*
%TO.N,+3.3V*%
X163200000Y-95837501D02*
X163200000Y-104450000D01*
D35*
X131100000Y-95400000D02*
X130350000Y-96150000D01*
D37*
X164850000Y-105500000D02*
X167600000Y-108250000D01*
X161749999Y-94387500D02*
X160950000Y-94387500D01*
D35*
X157700000Y-107000000D02*
X158750000Y-107000000D01*
X128700000Y-97200000D02*
X128700000Y-99510000D01*
X152400000Y-87850000D02*
X151550000Y-88700000D01*
X130350000Y-96150000D02*
X129750000Y-96150000D01*
X151550000Y-88700000D02*
X151550000Y-90700000D01*
D37*
X157862500Y-88550000D02*
X157250000Y-87937500D01*
D35*
X132050000Y-92650000D02*
X131900000Y-92650000D01*
X134255229Y-97130000D02*
X135825000Y-97130000D01*
D37*
X163200000Y-95837501D02*
X166550000Y-92487501D01*
D35*
X135825000Y-97130000D02*
X138930000Y-97130000D01*
X158750000Y-107000000D02*
X160250000Y-105500000D01*
X152400000Y-87850000D02*
X157162500Y-87850000D01*
X151630000Y-110930000D02*
X151600000Y-110900000D01*
D37*
X166550000Y-84050000D02*
X162687500Y-80187500D01*
D35*
X157162500Y-87850000D02*
X157250000Y-87937500D01*
D37*
X166550000Y-87150000D02*
X166550000Y-84050000D01*
X162687500Y-80187500D02*
X161850000Y-80187500D01*
D35*
X132485000Y-100940000D02*
X133350000Y-100075000D01*
D37*
X166550000Y-87150000D02*
X165150000Y-88550000D01*
X165150000Y-88550000D02*
X157862500Y-88550000D01*
X167600000Y-114670000D02*
X164720000Y-117550000D01*
D35*
X129750000Y-96150000D02*
X128700000Y-97200000D01*
X130130000Y-100940000D02*
X130875000Y-100940000D01*
D37*
X163200000Y-95837501D02*
X161749999Y-94387500D01*
X166550000Y-92487501D02*
X166550000Y-87150000D01*
D35*
X151630000Y-112675000D02*
X151630000Y-110930000D01*
X133350000Y-98035229D02*
X134255229Y-97130000D01*
D37*
X164250000Y-105500000D02*
X164850000Y-105500000D01*
D35*
X140250000Y-102300000D02*
X140250000Y-98450000D01*
X131100000Y-93450000D02*
X131100000Y-95400000D01*
D37*
X167600000Y-108250000D02*
X167600000Y-114670000D01*
X164250000Y-105500000D02*
X160250000Y-105500000D01*
X163200000Y-104450000D02*
X164250000Y-105500000D01*
D35*
X139020000Y-97130000D02*
X143250000Y-92900000D01*
X138930000Y-97130000D02*
X140250000Y-98450000D01*
X131900000Y-92650000D02*
X131100000Y-93450000D01*
X138930000Y-97130000D02*
X139020000Y-97130000D01*
X130875000Y-100940000D02*
X132485000Y-100940000D01*
X133350000Y-100075000D02*
X133350000Y-98035229D01*
X128700000Y-99510000D02*
X130130000Y-100940000D01*
%TO.N,Net-(J1-In)*%
X122562500Y-100550000D02*
X129612500Y-107600000D01*
X129612500Y-107600000D02*
X134245000Y-107600000D01*
X134245000Y-107600000D02*
X135825000Y-106020000D01*
X136434542Y-106020000D02*
X135825000Y-106020000D01*
X156350000Y-101350000D02*
X153900000Y-103800000D01*
X138654542Y-103800000D02*
X136434542Y-106020000D01*
X153900000Y-103800000D02*
X138654542Y-103800000D01*
D37*
%TO.N,Net-(J2-Pin_2)*%
X168800000Y-102050000D02*
X168800000Y-107887081D01*
X168800000Y-107887081D02*
X170502919Y-109590000D01*
X170502919Y-109590000D02*
X171705000Y-109590000D01*
%TO.N,Net-(J2-Pin_1)*%
X171705000Y-107050000D02*
X171705000Y-103055000D01*
X171705000Y-103055000D02*
X170700000Y-102050000D01*
D35*
%TO.N,Q4*%
X141150000Y-106500000D02*
X136950000Y-110700000D01*
X136950000Y-110700000D02*
X136950000Y-113700000D01*
X145200000Y-105550000D02*
X142100000Y-105550000D01*
X145449999Y-105550000D02*
X145200000Y-105550000D01*
X146550000Y-107525000D02*
X146550000Y-106650001D01*
X142100000Y-105550000D02*
X141150000Y-106500000D01*
X146550000Y-106650001D02*
X145449999Y-105550000D01*
%TO.N,Q7*%
X149050000Y-115200000D02*
X148950000Y-115300000D01*
X149090000Y-115160000D02*
X149050000Y-115200000D01*
X149090000Y-112675000D02*
X149090000Y-115160000D01*
D37*
%TO.N,Net-(Q1-D)*%
X144914214Y-88350000D02*
X144200000Y-88350000D01*
D35*
X147300000Y-88150000D02*
X144400000Y-88150000D01*
D37*
%TO.N,DT_OUT*%
X163750000Y-109350000D02*
X162550000Y-109350000D01*
D38*
%TO.N,Net-(Q1-D)*%
X140100000Y-88350000D02*
X132950000Y-81200000D01*
D37*
X146700000Y-90135786D02*
X144914214Y-88350000D01*
D38*
X144200000Y-88350000D02*
X140100000Y-88350000D01*
D35*
X150500000Y-89150000D02*
X148300000Y-89150000D01*
D37*
%TO.N,DT_OUT*%
X162550000Y-109350000D02*
X159640000Y-112260000D01*
X159640000Y-112260000D02*
X159640000Y-117550000D01*
D35*
%TO.N,Net-(Q1-D)*%
X148300000Y-89150000D02*
X147300000Y-88150000D01*
X144400000Y-88150000D02*
X144200000Y-88350000D01*
D37*
X146700000Y-95980000D02*
X146700000Y-90135786D01*
D35*
%TO.N,Q6*%
X145280000Y-107525000D02*
X145280000Y-108407316D01*
X141860000Y-111827316D02*
X141860000Y-117550000D01*
X145280000Y-108407316D02*
X141860000Y-111827316D01*
%TO.N,Q9*%
X150360000Y-116670000D02*
X149480000Y-117550000D01*
X150360000Y-112675000D02*
X150360000Y-116670000D01*
%TO.N,Q8*%
X147820000Y-112675000D02*
X147820000Y-116670000D01*
X147820000Y-116670000D02*
X146940000Y-117550000D01*
%TO.N,Q13*%
X155050000Y-104900000D02*
X149700000Y-104900000D01*
X155850000Y-105700000D02*
X155050000Y-104900000D01*
X149700000Y-104900000D02*
X149090000Y-105510000D01*
X155850000Y-116300000D02*
X155850000Y-105700000D01*
X157100000Y-117550000D02*
X155850000Y-116300000D01*
X149090000Y-105510000D02*
X149090000Y-107525000D01*
%TO.N,Q5*%
X146819999Y-109400000D02*
X145500000Y-109400000D01*
X147820000Y-107525000D02*
X147820000Y-108399999D01*
X147820000Y-108399999D02*
X146819999Y-109400000D01*
%TO.N,Q12*%
X154560000Y-106260000D02*
X153950000Y-105650000D01*
X151200000Y-105650000D02*
X150360000Y-106490000D01*
X154560000Y-117550000D02*
X154560000Y-106260000D01*
X150360000Y-106490000D02*
X150360000Y-107525000D01*
X153950000Y-105650000D02*
X151200000Y-105650000D01*
%TO.N,Q11*%
X153400000Y-109295000D02*
X153400000Y-116170000D01*
X151630000Y-107525000D02*
X153400000Y-109295000D01*
X153400000Y-116170000D02*
X152020000Y-117550000D01*
%TO.N,Q3*%
X144010000Y-107982684D02*
X144010000Y-107525000D01*
X134240000Y-117550000D02*
X134442684Y-117550000D01*
X134442684Y-117550000D02*
X144010000Y-107982684D01*
%TO.N,DT_OUT*%
X161087500Y-92350000D02*
X159100000Y-94337500D01*
X161487500Y-91950000D02*
X161087500Y-92350000D01*
X163800000Y-91950000D02*
X161487500Y-91950000D01*
%TO.N,Net-(JP2-B)*%
X157850001Y-95337500D02*
X157400000Y-95787501D01*
X158650000Y-95337500D02*
X157850001Y-95337500D01*
X157400000Y-95787501D02*
X157400000Y-101100000D01*
X157400000Y-101100000D02*
X157650000Y-101350000D01*
%TO.N,Net-(JP3-B)*%
X137500000Y-93150000D02*
X137500000Y-92395000D01*
X137500000Y-92395000D02*
X133455000Y-88350000D01*
X133455000Y-88350000D02*
X131500000Y-88350000D01*
%TO.N,Net-(JP3-A)*%
X130875000Y-98400000D02*
X131859999Y-98400000D01*
X136200000Y-94059999D02*
X136200000Y-93150000D01*
X131859999Y-98400000D02*
X136200000Y-94059999D01*
%TO.N,RST*%
X145300000Y-96183858D02*
X145300000Y-92000000D01*
X134550000Y-86250000D02*
X130050000Y-86250000D01*
X128750000Y-92355588D02*
X129694412Y-93300000D01*
X129694412Y-93300000D02*
X130150000Y-93300000D01*
X130050000Y-86250000D02*
X128750000Y-87550000D01*
X146550000Y-112675000D02*
X146550000Y-113650000D01*
D39*
X162180000Y-113007500D02*
X163587500Y-111600000D01*
D35*
X146550000Y-113650000D02*
X145150000Y-115050000D01*
X146366142Y-97250000D02*
X145300000Y-96183858D01*
D39*
X162180000Y-117550000D02*
X162180000Y-113007500D01*
D35*
X143800000Y-90500000D02*
X138800000Y-90500000D01*
X145300000Y-92000000D02*
X143800000Y-90500000D01*
X128750000Y-87550000D02*
X128750000Y-92355588D01*
X138800000Y-90500000D02*
X134550000Y-86250000D01*
X146700000Y-97250000D02*
X146366142Y-97250000D01*
%TO.N,Net-(Q1-S)*%
X146700000Y-101187500D02*
X146950000Y-101437500D01*
X146700000Y-98520000D02*
X146700000Y-101187500D01*
%TO.N,Net-(U2-~{Mr})*%
X130875000Y-97130000D02*
X132050000Y-95955000D01*
X132050000Y-95955000D02*
X132050000Y-93950000D01*
%TO.N,Net-(U3-+)*%
X150960661Y-87850000D02*
X150500000Y-87850000D01*
X161850000Y-84987500D02*
X161800000Y-85037500D01*
X161850000Y-82012500D02*
X161850000Y-84987500D01*
X153760661Y-85050000D02*
X150960661Y-87850000D01*
X161800000Y-85037500D02*
X161787500Y-85050000D01*
X161787500Y-85050000D02*
X153760661Y-85050000D01*
%TO.N,Net-(U6-rs)*%
X161400000Y-101550000D02*
X158250000Y-104700000D01*
X149150000Y-109250000D02*
X147750000Y-110650000D01*
X145280000Y-111670000D02*
X145280000Y-112675000D01*
X146300000Y-110650000D02*
X145280000Y-111670000D01*
X157400000Y-104650000D02*
X157400000Y-104700000D01*
X158250000Y-104700000D02*
X157400000Y-104650000D01*
X161400000Y-96237500D02*
X161400000Y-101550000D01*
X150200000Y-109250000D02*
X149150000Y-109250000D01*
X147750000Y-110650000D02*
X146300000Y-110650000D01*
%TD*%
%TA.AperFunction,Conductor*%
%TO.N,Earth*%
G36*
X176142539Y-74570185D02*
G01*
X176188294Y-74622989D01*
X176199500Y-74674500D01*
X176199500Y-121925500D01*
X176179815Y-121992539D01*
X176127011Y-122038294D01*
X176075500Y-122049500D01*
X119824500Y-122049500D01*
X119757461Y-122029815D01*
X119711706Y-121977011D01*
X119700500Y-121925500D01*
X119700500Y-117415186D01*
X121799500Y-117415186D01*
X121799500Y-117684813D01*
X121829686Y-117952719D01*
X121829688Y-117952731D01*
X121889684Y-118215594D01*
X121889687Y-118215602D01*
X121978734Y-118470082D01*
X122095714Y-118712994D01*
X122123484Y-118757190D01*
X122239162Y-118941289D01*
X122407266Y-119152085D01*
X122597915Y-119342734D01*
X122808711Y-119510838D01*
X123037003Y-119654284D01*
X123279921Y-119771267D01*
X123471049Y-119838145D01*
X123534397Y-119860312D01*
X123534405Y-119860315D01*
X123534408Y-119860315D01*
X123534409Y-119860316D01*
X123797268Y-119920312D01*
X124065187Y-119950499D01*
X124065188Y-119950500D01*
X124065191Y-119950500D01*
X124334812Y-119950500D01*
X124334812Y-119950499D01*
X124602732Y-119920312D01*
X124865591Y-119860316D01*
X125120079Y-119771267D01*
X125362997Y-119654284D01*
X125591289Y-119510838D01*
X125802085Y-119342734D01*
X125992734Y-119152085D01*
X126160838Y-118941289D01*
X126304284Y-118712997D01*
X126421267Y-118470079D01*
X126510316Y-118215591D01*
X126570312Y-117952732D01*
X126600500Y-117684809D01*
X126600500Y-117415191D01*
X126570312Y-117147268D01*
X126510316Y-116884409D01*
X126421267Y-116629921D01*
X126304284Y-116387003D01*
X126160838Y-116158711D01*
X125992734Y-115947915D01*
X125802085Y-115757266D01*
X125591289Y-115589162D01*
X125362997Y-115445716D01*
X125362994Y-115445714D01*
X125120082Y-115328734D01*
X124865602Y-115239687D01*
X124865594Y-115239684D01*
X124668446Y-115194687D01*
X124602732Y-115179688D01*
X124602728Y-115179687D01*
X124602719Y-115179686D01*
X124334813Y-115149500D01*
X124334809Y-115149500D01*
X124065191Y-115149500D01*
X124065186Y-115149500D01*
X123797280Y-115179686D01*
X123797268Y-115179688D01*
X123534405Y-115239684D01*
X123534397Y-115239687D01*
X123279917Y-115328734D01*
X123037005Y-115445714D01*
X122808712Y-115589161D01*
X122597915Y-115757265D01*
X122407265Y-115947915D01*
X122239161Y-116158712D01*
X122095714Y-116387005D01*
X121978734Y-116629917D01*
X121889687Y-116884397D01*
X121889684Y-116884405D01*
X121829688Y-117147268D01*
X121829686Y-117147280D01*
X121799500Y-117415186D01*
X119700500Y-117415186D01*
X119700500Y-106142141D01*
X119720185Y-106075102D01*
X119772989Y-106029347D01*
X119842147Y-106019403D01*
X119867835Y-106025960D01*
X119915119Y-106043596D01*
X119915127Y-106043598D01*
X119974655Y-106049999D01*
X119974672Y-106050000D01*
X122312500Y-106050000D01*
X122312500Y-103550000D01*
X119974655Y-103550000D01*
X119915127Y-103556401D01*
X119915119Y-103556403D01*
X119867833Y-103574040D01*
X119798141Y-103579024D01*
X119736818Y-103545539D01*
X119703334Y-103484215D01*
X119700500Y-103457858D01*
X119700500Y-101892674D01*
X119720185Y-101825635D01*
X119772989Y-101779880D01*
X119842147Y-101769936D01*
X119867834Y-101776493D01*
X119915013Y-101794090D01*
X119915016Y-101794091D01*
X119921944Y-101794835D01*
X119974627Y-101800500D01*
X122700269Y-101800499D01*
X122767308Y-101820184D01*
X122787950Y-101836818D01*
X124289451Y-103338319D01*
X124322936Y-103399642D01*
X124317952Y-103469334D01*
X124276080Y-103525267D01*
X124210616Y-103549684D01*
X124201770Y-103550000D01*
X122812500Y-103550000D01*
X122812500Y-106050000D01*
X125150328Y-106050000D01*
X125150344Y-106049999D01*
X125209872Y-106043598D01*
X125209879Y-106043596D01*
X125344586Y-105993354D01*
X125344593Y-105993350D01*
X125459687Y-105907190D01*
X125459690Y-105907187D01*
X125545850Y-105792093D01*
X125545854Y-105792086D01*
X125596096Y-105657379D01*
X125596098Y-105657372D01*
X125602499Y-105597844D01*
X125602500Y-105597827D01*
X125602500Y-104950729D01*
X125622185Y-104883690D01*
X125674989Y-104837935D01*
X125744147Y-104827991D01*
X125807703Y-104857016D01*
X125814173Y-104863041D01*
X129029549Y-108078416D01*
X129134084Y-108182951D01*
X129134087Y-108182953D01*
X129134088Y-108182954D01*
X129256994Y-108265077D01*
X129256996Y-108265078D01*
X129257005Y-108265084D01*
X129282150Y-108275499D01*
X129282151Y-108275500D01*
X129282152Y-108275500D01*
X129393588Y-108321659D01*
X129509741Y-108344763D01*
X129528968Y-108348587D01*
X129538581Y-108350500D01*
X129538582Y-108350500D01*
X134318920Y-108350500D01*
X134448283Y-108324767D01*
X134463913Y-108321658D01*
X134600495Y-108265084D01*
X134649729Y-108232186D01*
X134723416Y-108182952D01*
X136049548Y-106856818D01*
X136110871Y-106823334D01*
X136137229Y-106820500D01*
X136772713Y-106820500D01*
X136772720Y-106820500D01*
X136885236Y-106805687D01*
X137025233Y-106747698D01*
X137145451Y-106655451D01*
X137237698Y-106535233D01*
X137295687Y-106395236D01*
X137310500Y-106282720D01*
X137310500Y-106256771D01*
X137330185Y-106189732D01*
X137346819Y-106169090D01*
X138929090Y-104586819D01*
X138990413Y-104553334D01*
X139016771Y-104550500D01*
X148688770Y-104550500D01*
X148755809Y-104570185D01*
X148801564Y-104622989D01*
X148811508Y-104692147D01*
X148782483Y-104755703D01*
X148776451Y-104762181D01*
X148507052Y-105031578D01*
X148507049Y-105031581D01*
X148469498Y-105087780D01*
X148469499Y-105087781D01*
X148424914Y-105154508D01*
X148368343Y-105291082D01*
X148368340Y-105291092D01*
X148339500Y-105436079D01*
X148339500Y-106064800D01*
X148319815Y-106131839D01*
X148267011Y-106177594D01*
X148197853Y-106187538D01*
X148180905Y-106183876D01*
X148072573Y-106152402D01*
X148072567Y-106152401D01*
X148035701Y-106149500D01*
X148035694Y-106149500D01*
X147604306Y-106149500D01*
X147604298Y-106149500D01*
X147567432Y-106152401D01*
X147567426Y-106152402D01*
X147409606Y-106198254D01*
X147409605Y-106198254D01*
X147325100Y-106248230D01*
X147257376Y-106265412D01*
X147191114Y-106243252D01*
X147158878Y-106210388D01*
X147132951Y-106171585D01*
X147028416Y-106067050D01*
X146753452Y-105792086D01*
X145928420Y-104967052D01*
X145928417Y-104967049D01*
X145853585Y-104917049D01*
X145836923Y-104905916D01*
X145805494Y-104884916D01*
X145805491Y-104884914D01*
X145805490Y-104884914D01*
X145668916Y-104828343D01*
X145668906Y-104828340D01*
X145523919Y-104799500D01*
X145523917Y-104799500D01*
X145273918Y-104799500D01*
X142026082Y-104799500D01*
X142026080Y-104799500D01*
X141881092Y-104828340D01*
X141881082Y-104828343D01*
X141744508Y-104884914D01*
X141696414Y-104917049D01*
X141621581Y-104967049D01*
X141621578Y-104967052D01*
X140671584Y-105917048D01*
X136367052Y-110221578D01*
X136367049Y-110221581D01*
X136323135Y-110287303D01*
X136323136Y-110287304D01*
X136284914Y-110344508D01*
X136228343Y-110481082D01*
X136228340Y-110481092D01*
X136199500Y-110626079D01*
X136199500Y-113400028D01*
X136192542Y-113440982D01*
X136164631Y-113520747D01*
X136144435Y-113699996D01*
X136144435Y-113700003D01*
X136164630Y-113879249D01*
X136164631Y-113879254D01*
X136224211Y-114049523D01*
X136320184Y-114202262D01*
X136436937Y-114319015D01*
X136470422Y-114380338D01*
X136465438Y-114450030D01*
X136436937Y-114494377D01*
X134716078Y-116215236D01*
X134654755Y-116248721D01*
X134596304Y-116247330D01*
X134475413Y-116214938D01*
X134475403Y-116214936D01*
X134240001Y-116194341D01*
X134239999Y-116194341D01*
X134004596Y-116214936D01*
X134004586Y-116214938D01*
X133776344Y-116276094D01*
X133776335Y-116276098D01*
X133562171Y-116375964D01*
X133562169Y-116375965D01*
X133368600Y-116511503D01*
X133246284Y-116633819D01*
X133184961Y-116667303D01*
X133115269Y-116662319D01*
X133059336Y-116620447D01*
X133042421Y-116589470D01*
X132993354Y-116457913D01*
X132993350Y-116457906D01*
X132907190Y-116342812D01*
X132907187Y-116342809D01*
X132792093Y-116256649D01*
X132792086Y-116256645D01*
X132657379Y-116206403D01*
X132657372Y-116206401D01*
X132597844Y-116200000D01*
X131950000Y-116200000D01*
X131950000Y-117116988D01*
X131892993Y-117084075D01*
X131765826Y-117050000D01*
X131634174Y-117050000D01*
X131507007Y-117084075D01*
X131450000Y-117116988D01*
X131450000Y-116200000D01*
X130802155Y-116200000D01*
X130742627Y-116206401D01*
X130742620Y-116206403D01*
X130607913Y-116256645D01*
X130607906Y-116256649D01*
X130492812Y-116342809D01*
X130492809Y-116342812D01*
X130406649Y-116457906D01*
X130406645Y-116457913D01*
X130356403Y-116592620D01*
X130356401Y-116592627D01*
X130350000Y-116652155D01*
X130350000Y-117300000D01*
X131266988Y-117300000D01*
X131234075Y-117357007D01*
X131200000Y-117484174D01*
X131200000Y-117615826D01*
X131234075Y-117742993D01*
X131266988Y-117800000D01*
X130350000Y-117800000D01*
X130350000Y-118447844D01*
X130356401Y-118507372D01*
X130356403Y-118507379D01*
X130406645Y-118642086D01*
X130406649Y-118642093D01*
X130492809Y-118757187D01*
X130492812Y-118757190D01*
X130607906Y-118843350D01*
X130607913Y-118843354D01*
X130742620Y-118893596D01*
X130742627Y-118893598D01*
X130802155Y-118899999D01*
X130802172Y-118900000D01*
X131450000Y-118900000D01*
X131450000Y-117983012D01*
X131507007Y-118015925D01*
X131634174Y-118050000D01*
X131765826Y-118050000D01*
X131892993Y-118015925D01*
X131950000Y-117983012D01*
X131950000Y-118900000D01*
X132597828Y-118900000D01*
X132597844Y-118899999D01*
X132657372Y-118893598D01*
X132657379Y-118893596D01*
X132792086Y-118843354D01*
X132792093Y-118843350D01*
X132907187Y-118757190D01*
X132907190Y-118757187D01*
X132993350Y-118642093D01*
X132993354Y-118642086D01*
X133042422Y-118510529D01*
X133084293Y-118454595D01*
X133149757Y-118430178D01*
X133218030Y-118445030D01*
X133246285Y-118466181D01*
X133368599Y-118588495D01*
X133445135Y-118642086D01*
X133562165Y-118724032D01*
X133562167Y-118724033D01*
X133562170Y-118724035D01*
X133776337Y-118823903D01*
X134004592Y-118885063D01*
X134175319Y-118900000D01*
X134239999Y-118905659D01*
X134240000Y-118905659D01*
X134240001Y-118905659D01*
X134304681Y-118900000D01*
X134475408Y-118885063D01*
X134703663Y-118823903D01*
X134917830Y-118724035D01*
X135111401Y-118588495D01*
X135278495Y-118421401D01*
X135408425Y-118235842D01*
X135463002Y-118192217D01*
X135532500Y-118185023D01*
X135594855Y-118216546D01*
X135611575Y-118235842D01*
X135741500Y-118421395D01*
X135741505Y-118421401D01*
X135908599Y-118588495D01*
X135985135Y-118642086D01*
X136102165Y-118724032D01*
X136102167Y-118724033D01*
X136102170Y-118724035D01*
X136316337Y-118823903D01*
X136544592Y-118885063D01*
X136715319Y-118900000D01*
X136779999Y-118905659D01*
X136780000Y-118905659D01*
X136780001Y-118905659D01*
X136844681Y-118900000D01*
X137015408Y-118885063D01*
X137243663Y-118823903D01*
X137457830Y-118724035D01*
X137651401Y-118588495D01*
X137818495Y-118421401D01*
X137948425Y-118235842D01*
X138003002Y-118192217D01*
X138072500Y-118185023D01*
X138134855Y-118216546D01*
X138151575Y-118235842D01*
X138281500Y-118421395D01*
X138281505Y-118421401D01*
X138448599Y-118588495D01*
X138525135Y-118642086D01*
X138642165Y-118724032D01*
X138642167Y-118724033D01*
X138642170Y-118724035D01*
X138856337Y-118823903D01*
X139084592Y-118885063D01*
X139255319Y-118900000D01*
X139319999Y-118905659D01*
X139320000Y-118905659D01*
X139320001Y-118905659D01*
X139384681Y-118900000D01*
X139555408Y-118885063D01*
X139783663Y-118823903D01*
X139997830Y-118724035D01*
X140191401Y-118588495D01*
X140358495Y-118421401D01*
X140488425Y-118235842D01*
X140543002Y-118192217D01*
X140612500Y-118185023D01*
X140674855Y-118216546D01*
X140691575Y-118235842D01*
X140821500Y-118421395D01*
X140821505Y-118421401D01*
X140988599Y-118588495D01*
X141065135Y-118642086D01*
X141182165Y-118724032D01*
X141182167Y-118724033D01*
X141182170Y-118724035D01*
X141396337Y-118823903D01*
X141624592Y-118885063D01*
X141795319Y-118900000D01*
X141859999Y-118905659D01*
X141860000Y-118905659D01*
X141860001Y-118905659D01*
X141924681Y-118900000D01*
X142095408Y-118885063D01*
X142323663Y-118823903D01*
X142537830Y-118724035D01*
X142731401Y-118588495D01*
X142898495Y-118421401D01*
X143028425Y-118235842D01*
X143083002Y-118192217D01*
X143152500Y-118185023D01*
X143214855Y-118216546D01*
X143231575Y-118235842D01*
X143361500Y-118421395D01*
X143361505Y-118421401D01*
X143528599Y-118588495D01*
X143605135Y-118642086D01*
X143722165Y-118724032D01*
X143722167Y-118724033D01*
X143722170Y-118724035D01*
X143936337Y-118823903D01*
X144164592Y-118885063D01*
X144335319Y-118900000D01*
X144399999Y-118905659D01*
X144400000Y-118905659D01*
X144400001Y-118905659D01*
X144464681Y-118900000D01*
X144635408Y-118885063D01*
X144863663Y-118823903D01*
X145077830Y-118724035D01*
X145271401Y-118588495D01*
X145438495Y-118421401D01*
X145568425Y-118235842D01*
X145623002Y-118192217D01*
X145692500Y-118185023D01*
X145754855Y-118216546D01*
X145771575Y-118235842D01*
X145901500Y-118421395D01*
X145901505Y-118421401D01*
X146068599Y-118588495D01*
X146145135Y-118642086D01*
X146262165Y-118724032D01*
X146262167Y-118724033D01*
X146262170Y-118724035D01*
X146476337Y-118823903D01*
X146704592Y-118885063D01*
X146875319Y-118900000D01*
X146939999Y-118905659D01*
X146940000Y-118905659D01*
X146940001Y-118905659D01*
X147004681Y-118900000D01*
X147175408Y-118885063D01*
X147403663Y-118823903D01*
X147617830Y-118724035D01*
X147811401Y-118588495D01*
X147978495Y-118421401D01*
X148108425Y-118235842D01*
X148163002Y-118192217D01*
X148232500Y-118185023D01*
X148294855Y-118216546D01*
X148311575Y-118235842D01*
X148441500Y-118421395D01*
X148441505Y-118421401D01*
X148608599Y-118588495D01*
X148685135Y-118642086D01*
X148802165Y-118724032D01*
X148802167Y-118724033D01*
X148802170Y-118724035D01*
X149016337Y-118823903D01*
X149244592Y-118885063D01*
X149415319Y-118900000D01*
X149479999Y-118905659D01*
X149480000Y-118905659D01*
X149480001Y-118905659D01*
X149544681Y-118900000D01*
X149715408Y-118885063D01*
X149943663Y-118823903D01*
X150157830Y-118724035D01*
X150351401Y-118588495D01*
X150518495Y-118421401D01*
X150648425Y-118235842D01*
X150703002Y-118192217D01*
X150772500Y-118185023D01*
X150834855Y-118216546D01*
X150851575Y-118235842D01*
X150981500Y-118421395D01*
X150981505Y-118421401D01*
X151148599Y-118588495D01*
X151225135Y-118642086D01*
X151342165Y-118724032D01*
X151342167Y-118724033D01*
X151342170Y-118724035D01*
X151556337Y-118823903D01*
X151784592Y-118885063D01*
X151955319Y-118900000D01*
X152019999Y-118905659D01*
X152020000Y-118905659D01*
X152020001Y-118905659D01*
X152084681Y-118900000D01*
X152255408Y-118885063D01*
X152483663Y-118823903D01*
X152697830Y-118724035D01*
X152891401Y-118588495D01*
X153058495Y-118421401D01*
X153188425Y-118235842D01*
X153243002Y-118192217D01*
X153312500Y-118185023D01*
X153374855Y-118216546D01*
X153391575Y-118235842D01*
X153521500Y-118421395D01*
X153521505Y-118421401D01*
X153688599Y-118588495D01*
X153765135Y-118642086D01*
X153882165Y-118724032D01*
X153882167Y-118724033D01*
X153882170Y-118724035D01*
X154096337Y-118823903D01*
X154324592Y-118885063D01*
X154495319Y-118900000D01*
X154559999Y-118905659D01*
X154560000Y-118905659D01*
X154560001Y-118905659D01*
X154624681Y-118900000D01*
X154795408Y-118885063D01*
X155023663Y-118823903D01*
X155237830Y-118724035D01*
X155431401Y-118588495D01*
X155598495Y-118421401D01*
X155728425Y-118235842D01*
X155783002Y-118192217D01*
X155852500Y-118185023D01*
X155914855Y-118216546D01*
X155931575Y-118235842D01*
X156061500Y-118421395D01*
X156061505Y-118421401D01*
X156228599Y-118588495D01*
X156305135Y-118642086D01*
X156422165Y-118724032D01*
X156422167Y-118724033D01*
X156422170Y-118724035D01*
X156636337Y-118823903D01*
X156864592Y-118885063D01*
X157035319Y-118900000D01*
X157099999Y-118905659D01*
X157100000Y-118905659D01*
X157100001Y-118905659D01*
X157164681Y-118900000D01*
X157335408Y-118885063D01*
X157563663Y-118823903D01*
X157777830Y-118724035D01*
X157971401Y-118588495D01*
X158138495Y-118421401D01*
X158268425Y-118235842D01*
X158323002Y-118192217D01*
X158392500Y-118185023D01*
X158454855Y-118216546D01*
X158471575Y-118235842D01*
X158601500Y-118421395D01*
X158601505Y-118421401D01*
X158768599Y-118588495D01*
X158845135Y-118642086D01*
X158962165Y-118724032D01*
X158962167Y-118724033D01*
X158962170Y-118724035D01*
X159176337Y-118823903D01*
X159404592Y-118885063D01*
X159575319Y-118900000D01*
X159639999Y-118905659D01*
X159640000Y-118905659D01*
X159640001Y-118905659D01*
X159704681Y-118900000D01*
X159875408Y-118885063D01*
X160103663Y-118823903D01*
X160317830Y-118724035D01*
X160511401Y-118588495D01*
X160678495Y-118421401D01*
X160808425Y-118235842D01*
X160863002Y-118192217D01*
X160932500Y-118185023D01*
X160994855Y-118216546D01*
X161011575Y-118235842D01*
X161141500Y-118421395D01*
X161141505Y-118421401D01*
X161308599Y-118588495D01*
X161385135Y-118642086D01*
X161502165Y-118724032D01*
X161502167Y-118724033D01*
X161502170Y-118724035D01*
X161716337Y-118823903D01*
X161944592Y-118885063D01*
X162115319Y-118900000D01*
X162179999Y-118905659D01*
X162180000Y-118905659D01*
X162180001Y-118905659D01*
X162244681Y-118900000D01*
X162415408Y-118885063D01*
X162643663Y-118823903D01*
X162857830Y-118724035D01*
X163051401Y-118588495D01*
X163218495Y-118421401D01*
X163348425Y-118235842D01*
X163403002Y-118192217D01*
X163472500Y-118185023D01*
X163534855Y-118216546D01*
X163551575Y-118235842D01*
X163681500Y-118421395D01*
X163681505Y-118421401D01*
X163848599Y-118588495D01*
X163925135Y-118642086D01*
X164042165Y-118724032D01*
X164042167Y-118724033D01*
X164042170Y-118724035D01*
X164256337Y-118823903D01*
X164484592Y-118885063D01*
X164655319Y-118900000D01*
X164719999Y-118905659D01*
X164720000Y-118905659D01*
X164720001Y-118905659D01*
X164784681Y-118900000D01*
X164955408Y-118885063D01*
X165183663Y-118823903D01*
X165397830Y-118724035D01*
X165591401Y-118588495D01*
X165758495Y-118421401D01*
X165894035Y-118227830D01*
X165993903Y-118013663D01*
X166055063Y-117785408D01*
X166066043Y-117659900D01*
X166091495Y-117594833D01*
X166101882Y-117583036D01*
X166269732Y-117415186D01*
X169299500Y-117415186D01*
X169299500Y-117684813D01*
X169329686Y-117952719D01*
X169329688Y-117952731D01*
X169389684Y-118215594D01*
X169389687Y-118215602D01*
X169478734Y-118470082D01*
X169595714Y-118712994D01*
X169623484Y-118757190D01*
X169739162Y-118941289D01*
X169907266Y-119152085D01*
X170097915Y-119342734D01*
X170308711Y-119510838D01*
X170537003Y-119654284D01*
X170779921Y-119771267D01*
X170971049Y-119838145D01*
X171034397Y-119860312D01*
X171034405Y-119860315D01*
X171034408Y-119860315D01*
X171034409Y-119860316D01*
X171297268Y-119920312D01*
X171565187Y-119950499D01*
X171565188Y-119950500D01*
X171565191Y-119950500D01*
X171834812Y-119950500D01*
X171834812Y-119950499D01*
X172102732Y-119920312D01*
X172365591Y-119860316D01*
X172620079Y-119771267D01*
X172862997Y-119654284D01*
X173091289Y-119510838D01*
X173302085Y-119342734D01*
X173492734Y-119152085D01*
X173660838Y-118941289D01*
X173804284Y-118712997D01*
X173921267Y-118470079D01*
X174010316Y-118215591D01*
X174070312Y-117952732D01*
X174100500Y-117684809D01*
X174100500Y-117415191D01*
X174070312Y-117147268D01*
X174010316Y-116884409D01*
X173921267Y-116629921D01*
X173804284Y-116387003D01*
X173660838Y-116158711D01*
X173492734Y-115947915D01*
X173302085Y-115757266D01*
X173091289Y-115589162D01*
X172862997Y-115445716D01*
X172862994Y-115445714D01*
X172620082Y-115328734D01*
X172365602Y-115239687D01*
X172365594Y-115239684D01*
X172168446Y-115194687D01*
X172102732Y-115179688D01*
X172102728Y-115179687D01*
X172102719Y-115179686D01*
X171834813Y-115149500D01*
X171834809Y-115149500D01*
X171565191Y-115149500D01*
X171565186Y-115149500D01*
X171297280Y-115179686D01*
X171297268Y-115179688D01*
X171034405Y-115239684D01*
X171034397Y-115239687D01*
X170779917Y-115328734D01*
X170537005Y-115445714D01*
X170308712Y-115589161D01*
X170097915Y-115757265D01*
X169907265Y-115947915D01*
X169739161Y-116158712D01*
X169595714Y-116387005D01*
X169478734Y-116629917D01*
X169389687Y-116884397D01*
X169389684Y-116884405D01*
X169329688Y-117147268D01*
X169329686Y-117147280D01*
X169299500Y-117415186D01*
X166269732Y-117415186D01*
X168237778Y-115447141D01*
X168237782Y-115447139D01*
X168377139Y-115307782D01*
X168486632Y-115143914D01*
X168554076Y-114981088D01*
X168562051Y-114961836D01*
X168600500Y-114768540D01*
X168600500Y-114571460D01*
X168600500Y-109401863D01*
X168620185Y-109334824D01*
X168672989Y-109289069D01*
X168742147Y-109279125D01*
X168805703Y-109308150D01*
X168812181Y-109314182D01*
X169722654Y-110224655D01*
X169722683Y-110224686D01*
X169865133Y-110367136D01*
X169865137Y-110367139D01*
X170028998Y-110476628D01*
X170029011Y-110476635D01*
X170157752Y-110529961D01*
X170200663Y-110547735D01*
X170211083Y-110552051D01*
X170307731Y-110571275D01*
X170356054Y-110580887D01*
X170404377Y-110590500D01*
X170404378Y-110590500D01*
X170404379Y-110590500D01*
X170601459Y-110590500D01*
X170744242Y-110590500D01*
X170811281Y-110610185D01*
X170831923Y-110626819D01*
X170833599Y-110628495D01*
X170906877Y-110679805D01*
X171027165Y-110764032D01*
X171027167Y-110764033D01*
X171027170Y-110764035D01*
X171241337Y-110863903D01*
X171241343Y-110863904D01*
X171241344Y-110863905D01*
X171296285Y-110878626D01*
X171469592Y-110925063D01*
X171657918Y-110941539D01*
X171704999Y-110945659D01*
X171705000Y-110945659D01*
X171705001Y-110945659D01*
X171744234Y-110942226D01*
X171940408Y-110925063D01*
X172168663Y-110863903D01*
X172382830Y-110764035D01*
X172576401Y-110628495D01*
X172743495Y-110461401D01*
X172879035Y-110267830D01*
X172978903Y-110053663D01*
X173040063Y-109825408D01*
X173060659Y-109590000D01*
X173040063Y-109354592D01*
X172978903Y-109126337D01*
X172879035Y-108912171D01*
X172743495Y-108718599D01*
X172621567Y-108596671D01*
X172588084Y-108535351D01*
X172593068Y-108465659D01*
X172634939Y-108409725D01*
X172665915Y-108392810D01*
X172797331Y-108343796D01*
X172912546Y-108257546D01*
X172998796Y-108142331D01*
X173049091Y-108007483D01*
X173055500Y-107947873D01*
X173055499Y-106152128D01*
X173049091Y-106092517D01*
X173039592Y-106067050D01*
X172998797Y-105957671D01*
X172998793Y-105957664D01*
X172912547Y-105842455D01*
X172912544Y-105842452D01*
X172797335Y-105756206D01*
X172797332Y-105756205D01*
X172797331Y-105756204D01*
X172786161Y-105752038D01*
X172730231Y-105710166D01*
X172705816Y-105644701D01*
X172705500Y-105635858D01*
X172705500Y-102956456D01*
X172685381Y-102855317D01*
X172683419Y-102845451D01*
X172683419Y-102845448D01*
X172667053Y-102763172D01*
X172667052Y-102763165D01*
X172599038Y-102598966D01*
X172591633Y-102581088D01*
X172591628Y-102581079D01*
X172482140Y-102417219D01*
X172482137Y-102417215D01*
X171904597Y-101839676D01*
X171873013Y-101785932D01*
X171824229Y-101614472D01*
X171819556Y-101605087D01*
X171725061Y-101415316D01*
X171725056Y-101415308D01*
X171590979Y-101237761D01*
X171426562Y-101087876D01*
X171426560Y-101087874D01*
X171237404Y-100970754D01*
X171237398Y-100970752D01*
X171029940Y-100890382D01*
X170811243Y-100849500D01*
X170588757Y-100849500D01*
X170370060Y-100890382D01*
X170238864Y-100941207D01*
X170162601Y-100970752D01*
X170162595Y-100970754D01*
X169973439Y-101087874D01*
X169973437Y-101087876D01*
X169833538Y-101215411D01*
X169770734Y-101246028D01*
X169701347Y-101237830D01*
X169666462Y-101215411D01*
X169526562Y-101087876D01*
X169526560Y-101087874D01*
X169337404Y-100970754D01*
X169337398Y-100970752D01*
X169129940Y-100890382D01*
X168911243Y-100849500D01*
X168688757Y-100849500D01*
X168470060Y-100890382D01*
X168338864Y-100941207D01*
X168262601Y-100970752D01*
X168262595Y-100970754D01*
X168073439Y-101087874D01*
X168073437Y-101087876D01*
X167909020Y-101237761D01*
X167774943Y-101415308D01*
X167774938Y-101415316D01*
X167675775Y-101614461D01*
X167675769Y-101614476D01*
X167614885Y-101828462D01*
X167614884Y-101828464D01*
X167594357Y-102049999D01*
X167594357Y-102050000D01*
X167614884Y-102271535D01*
X167614885Y-102271537D01*
X167675769Y-102485523D01*
X167675775Y-102485538D01*
X167774938Y-102684683D01*
X167777959Y-102689561D01*
X167776805Y-102690275D01*
X167799145Y-102749389D01*
X167799500Y-102758769D01*
X167799500Y-106735217D01*
X167779815Y-106802256D01*
X167727011Y-106848011D01*
X167657853Y-106857955D01*
X167594297Y-106828930D01*
X167587819Y-106822898D01*
X165634209Y-104869289D01*
X165634206Y-104869285D01*
X165634206Y-104869286D01*
X165627139Y-104862219D01*
X165627139Y-104862218D01*
X165487782Y-104722861D01*
X165487781Y-104722860D01*
X165487780Y-104722859D01*
X165323920Y-104613371D01*
X165323907Y-104613364D01*
X165167408Y-104548541D01*
X165167407Y-104548541D01*
X165141836Y-104537949D01*
X165141828Y-104537947D01*
X165001332Y-104510001D01*
X165001331Y-104510000D01*
X164974936Y-104504750D01*
X164948542Y-104499500D01*
X164948541Y-104499500D01*
X164715782Y-104499500D01*
X164648743Y-104479815D01*
X164628101Y-104463181D01*
X164236819Y-104071899D01*
X164203334Y-104010576D01*
X164200500Y-103984218D01*
X164200500Y-96303283D01*
X164220185Y-96236244D01*
X164236819Y-96215602D01*
X165759428Y-94692993D01*
X167327139Y-93125283D01*
X167343698Y-93100500D01*
X167436632Y-92961415D01*
X167491722Y-92828416D01*
X167512051Y-92779337D01*
X167515851Y-92760236D01*
X167544723Y-92615084D01*
X167550500Y-92586042D01*
X167550500Y-92388961D01*
X167550500Y-87051459D01*
X167550500Y-83951459D01*
X167550500Y-83951456D01*
X167512052Y-83758170D01*
X167512051Y-83758169D01*
X167512051Y-83758165D01*
X167512049Y-83758160D01*
X167436635Y-83576092D01*
X167436628Y-83576079D01*
X167327139Y-83412218D01*
X167327136Y-83412214D01*
X167184686Y-83269764D01*
X167184655Y-83269735D01*
X163468979Y-79554059D01*
X163468959Y-79554037D01*
X163325285Y-79410363D01*
X163325281Y-79410360D01*
X163161420Y-79300871D01*
X163161407Y-79300864D01*
X163014915Y-79240186D01*
X163014914Y-79240186D01*
X162979336Y-79225449D01*
X162979328Y-79225447D01*
X162882688Y-79206224D01*
X162786044Y-79187000D01*
X162786041Y-79187000D01*
X162475259Y-79187000D01*
X162459566Y-79185339D01*
X162459531Y-79185689D01*
X162450956Y-79184813D01*
X162427139Y-79182379D01*
X162350010Y-79174500D01*
X161349998Y-79174500D01*
X161349980Y-79174501D01*
X161247203Y-79185000D01*
X161247200Y-79185001D01*
X161080668Y-79240185D01*
X161080663Y-79240187D01*
X160931342Y-79332289D01*
X160807289Y-79456342D01*
X160715187Y-79605663D01*
X160715185Y-79605668D01*
X160712884Y-79612612D01*
X160660001Y-79772203D01*
X160660001Y-79772204D01*
X160660000Y-79772204D01*
X160649500Y-79874983D01*
X160649500Y-80500001D01*
X160649501Y-80500019D01*
X160660000Y-80602796D01*
X160660001Y-80602799D01*
X160715185Y-80769331D01*
X160715187Y-80769336D01*
X160807289Y-80918657D01*
X160900951Y-81012319D01*
X160934436Y-81073642D01*
X160929452Y-81143334D01*
X160900951Y-81187681D01*
X160807289Y-81281342D01*
X160715187Y-81430663D01*
X160715185Y-81430668D01*
X160707403Y-81454154D01*
X160660001Y-81597203D01*
X160660001Y-81597204D01*
X160660000Y-81597204D01*
X160649500Y-81699983D01*
X160649500Y-82325001D01*
X160649501Y-82325019D01*
X160660000Y-82427796D01*
X160660001Y-82427799D01*
X160694938Y-82533231D01*
X160715186Y-82594334D01*
X160807288Y-82743656D01*
X160931344Y-82867712D01*
X161040597Y-82935099D01*
X161087321Y-82987047D01*
X161099500Y-83040638D01*
X161099500Y-83979091D01*
X161079815Y-84046130D01*
X161035731Y-84084641D01*
X161036813Y-84086395D01*
X161030667Y-84090185D01*
X161030666Y-84090186D01*
X160940600Y-84145739D01*
X160881342Y-84182289D01*
X160800451Y-84263181D01*
X160739128Y-84296666D01*
X160712770Y-84299500D01*
X153686741Y-84299500D01*
X153541753Y-84328340D01*
X153541743Y-84328343D01*
X153405170Y-84384913D01*
X153375785Y-84404548D01*
X153282240Y-84467051D01*
X153282239Y-84467052D01*
X150686112Y-87063181D01*
X150624789Y-87096666D01*
X150598431Y-87099500D01*
X150426080Y-87099500D01*
X150281093Y-87128340D01*
X150281085Y-87128342D01*
X150242457Y-87144342D01*
X150211192Y-87152718D01*
X150118238Y-87164956D01*
X150118237Y-87164956D01*
X149972160Y-87225463D01*
X149846718Y-87321718D01*
X149750463Y-87447160D01*
X149689956Y-87593237D01*
X149689955Y-87593239D01*
X149674500Y-87710638D01*
X149674500Y-87989363D01*
X149689953Y-88106753D01*
X149689956Y-88106762D01*
X149698837Y-88128203D01*
X149706304Y-88197673D01*
X149698838Y-88223103D01*
X149690444Y-88243369D01*
X149684083Y-88291686D01*
X149655816Y-88355582D01*
X149597492Y-88394053D01*
X149561144Y-88399500D01*
X148662229Y-88399500D01*
X148595190Y-88379815D01*
X148574548Y-88363181D01*
X147778421Y-87567052D01*
X147778420Y-87567051D01*
X147747911Y-87546666D01*
X147669847Y-87494506D01*
X147655495Y-87484916D01*
X147655490Y-87484913D01*
X147518917Y-87428343D01*
X147518907Y-87428340D01*
X147373920Y-87399500D01*
X147373918Y-87399500D01*
X145676738Y-87399500D01*
X145609699Y-87379815D01*
X145579791Y-87352813D01*
X145562461Y-87331082D01*
X145450050Y-87190123D01*
X145263217Y-87016768D01*
X145052634Y-86873195D01*
X145052630Y-86873193D01*
X145052627Y-86873191D01*
X145052626Y-86873190D01*
X144823006Y-86762612D01*
X144823008Y-86762612D01*
X144579466Y-86687489D01*
X144579462Y-86687488D01*
X144579458Y-86687487D01*
X144458231Y-86669214D01*
X144327440Y-86649500D01*
X144327435Y-86649500D01*
X144072565Y-86649500D01*
X144072559Y-86649500D01*
X143915609Y-86673157D01*
X143820542Y-86687487D01*
X143820539Y-86687488D01*
X143820533Y-86687489D01*
X143576992Y-86762612D01*
X143347373Y-86873190D01*
X143347372Y-86873191D01*
X143136782Y-87016768D01*
X143115173Y-87036819D01*
X143083292Y-87066399D01*
X143020762Y-87097567D01*
X142998953Y-87099500D01*
X140669336Y-87099500D01*
X140602297Y-87079815D01*
X140581655Y-87063181D01*
X134718469Y-81199995D01*
X153745233Y-81199995D01*
X153745233Y-81200004D01*
X153764273Y-81454079D01*
X153820968Y-81702477D01*
X153820973Y-81702494D01*
X153914058Y-81939671D01*
X153914057Y-81939671D01*
X154041457Y-82160332D01*
X154083452Y-82212993D01*
X154885387Y-81411058D01*
X154890889Y-81431591D01*
X154969881Y-81568408D01*
X155081592Y-81680119D01*
X155218409Y-81759111D01*
X155238940Y-81764612D01*
X154436813Y-82566737D01*
X154597623Y-82676375D01*
X154597624Y-82676376D01*
X154827176Y-82786921D01*
X154827174Y-82786921D01*
X155070652Y-82862024D01*
X155070658Y-82862026D01*
X155322595Y-82899999D01*
X155322604Y-82900000D01*
X155577396Y-82900000D01*
X155577404Y-82899999D01*
X155829341Y-82862026D01*
X155829347Y-82862024D01*
X156072824Y-82786921D01*
X156302381Y-82676373D01*
X156463185Y-82566737D01*
X155661059Y-81764612D01*
X155681591Y-81759111D01*
X155818408Y-81680119D01*
X155930119Y-81568408D01*
X156009111Y-81431591D01*
X156014612Y-81411059D01*
X156816545Y-82212993D01*
X156858545Y-82160327D01*
X156985941Y-81939671D01*
X157079026Y-81702494D01*
X157079031Y-81702477D01*
X157135726Y-81454079D01*
X157154767Y-81200004D01*
X157154767Y-81199995D01*
X157135726Y-80945920D01*
X157079031Y-80697522D01*
X157079026Y-80697505D01*
X156985941Y-80460328D01*
X156985942Y-80460328D01*
X156858544Y-80239671D01*
X156816546Y-80187006D01*
X156014612Y-80988939D01*
X156009111Y-80968409D01*
X155930119Y-80831592D01*
X155818408Y-80719881D01*
X155681591Y-80640889D01*
X155661058Y-80635387D01*
X156463185Y-79833261D01*
X156302377Y-79723624D01*
X156302376Y-79723623D01*
X156072823Y-79613078D01*
X156072825Y-79613078D01*
X155829347Y-79537975D01*
X155829341Y-79537973D01*
X155577404Y-79500000D01*
X155322595Y-79500000D01*
X155070658Y-79537973D01*
X155070652Y-79537975D01*
X154827175Y-79613078D01*
X154597624Y-79723623D01*
X154597616Y-79723628D01*
X154436813Y-79833261D01*
X155238940Y-80635387D01*
X155218409Y-80640889D01*
X155081592Y-80719881D01*
X154969881Y-80831592D01*
X154890889Y-80968409D01*
X154885387Y-80988940D01*
X154083453Y-80187006D01*
X154041455Y-80239670D01*
X153914058Y-80460328D01*
X153820973Y-80697505D01*
X153820968Y-80697522D01*
X153764273Y-80945920D01*
X153745233Y-81199995D01*
X134718469Y-81199995D01*
X134682681Y-81164207D01*
X134649196Y-81102884D01*
X134646709Y-81085791D01*
X134636222Y-80945845D01*
X134630016Y-80918656D01*
X134579508Y-80697363D01*
X134486393Y-80460112D01*
X134358959Y-80239388D01*
X134200050Y-80040123D01*
X134013217Y-79866768D01*
X133802634Y-79723195D01*
X133802630Y-79723193D01*
X133802627Y-79723191D01*
X133802626Y-79723190D01*
X133573006Y-79612612D01*
X133573008Y-79612612D01*
X133329466Y-79537489D01*
X133329462Y-79537488D01*
X133329458Y-79537487D01*
X133208231Y-79519214D01*
X133077440Y-79499500D01*
X133077435Y-79499500D01*
X132822565Y-79499500D01*
X132822559Y-79499500D01*
X132665609Y-79523157D01*
X132570542Y-79537487D01*
X132570539Y-79537488D01*
X132570533Y-79537489D01*
X132326992Y-79612612D01*
X132097373Y-79723190D01*
X132097372Y-79723191D01*
X131886782Y-79866768D01*
X131699952Y-80040121D01*
X131699950Y-80040123D01*
X131541041Y-80239388D01*
X131413608Y-80460109D01*
X131320492Y-80697362D01*
X131320490Y-80697369D01*
X131263777Y-80945845D01*
X131244732Y-81199995D01*
X131244732Y-81200004D01*
X131263777Y-81454154D01*
X131296427Y-81597204D01*
X131320492Y-81702637D01*
X131413607Y-81939888D01*
X131541041Y-82160612D01*
X131699950Y-82359877D01*
X131886783Y-82533232D01*
X132097366Y-82676805D01*
X132097371Y-82676807D01*
X132097372Y-82676808D01*
X132097373Y-82676809D01*
X132219328Y-82735538D01*
X132326992Y-82787387D01*
X132326993Y-82787387D01*
X132326996Y-82787389D01*
X132570542Y-82862513D01*
X132822565Y-82900500D01*
X132830664Y-82900500D01*
X132897703Y-82920185D01*
X132918345Y-82936819D01*
X139285354Y-89303828D01*
X139444595Y-89419524D01*
X139619974Y-89508884D01*
X139619976Y-89508884D01*
X139619979Y-89508886D01*
X139624477Y-89510750D01*
X139623615Y-89512830D01*
X139673591Y-89546995D01*
X139700797Y-89611350D01*
X139688891Y-89680198D01*
X139641653Y-89731680D01*
X139577607Y-89749500D01*
X139162229Y-89749500D01*
X139095190Y-89729815D01*
X139074548Y-89713181D01*
X135028421Y-85667052D01*
X135028414Y-85667046D01*
X134954729Y-85617812D01*
X134954729Y-85617813D01*
X134905491Y-85584913D01*
X134768917Y-85528343D01*
X134768907Y-85528340D01*
X134623920Y-85499500D01*
X134623918Y-85499500D01*
X129976082Y-85499500D01*
X129976076Y-85499500D01*
X129947242Y-85505234D01*
X129947243Y-85505235D01*
X129831093Y-85528339D01*
X129831083Y-85528342D01*
X129751081Y-85561479D01*
X129751082Y-85561480D01*
X129694506Y-85584915D01*
X129622614Y-85632952D01*
X129571582Y-85667049D01*
X129571579Y-85667052D01*
X128167052Y-87071578D01*
X128167049Y-87071581D01*
X128127821Y-87130290D01*
X128127822Y-87130291D01*
X128084914Y-87194508D01*
X128028343Y-87331082D01*
X128028340Y-87331092D01*
X127999500Y-87476079D01*
X127999500Y-87476082D01*
X127999500Y-92429506D01*
X127999500Y-92429508D01*
X127999499Y-92429508D01*
X128028340Y-92574495D01*
X128028343Y-92574505D01*
X128084913Y-92711078D01*
X128084914Y-92711079D01*
X128084916Y-92711083D01*
X128106364Y-92743182D01*
X128165102Y-92831092D01*
X128167051Y-92834008D01*
X128167052Y-92834009D01*
X129111461Y-93778416D01*
X129207194Y-93874149D01*
X129215997Y-93882952D01*
X129319864Y-93952354D01*
X129364669Y-94005966D01*
X129373376Y-94075291D01*
X129344201Y-94137215D01*
X129332988Y-94150000D01*
X129340442Y-94206627D01*
X129340444Y-94206633D01*
X129400899Y-94352585D01*
X129497075Y-94477924D01*
X129622413Y-94574100D01*
X129768365Y-94634554D01*
X129768369Y-94634555D01*
X129885676Y-94649999D01*
X129949999Y-94649998D01*
X129950000Y-94649998D01*
X129950000Y-94174500D01*
X129969685Y-94107461D01*
X130022489Y-94061706D01*
X130074000Y-94050500D01*
X130225500Y-94050500D01*
X130292539Y-94070185D01*
X130338294Y-94122989D01*
X130349500Y-94174500D01*
X130349500Y-95037770D01*
X130329815Y-95104809D01*
X130313181Y-95125451D01*
X130075451Y-95363181D01*
X130014128Y-95396666D01*
X129987770Y-95399500D01*
X129676080Y-95399500D01*
X129531092Y-95428340D01*
X129531082Y-95428343D01*
X129394511Y-95484912D01*
X129394498Y-95484919D01*
X129271584Y-95567048D01*
X129271580Y-95567051D01*
X128117052Y-96721578D01*
X128117049Y-96721581D01*
X128071758Y-96789364D01*
X128071759Y-96789365D01*
X128034914Y-96844508D01*
X127978343Y-96981082D01*
X127978340Y-96981092D01*
X127949500Y-97126079D01*
X127949500Y-97126082D01*
X127949500Y-99583918D01*
X127949500Y-99583920D01*
X127949499Y-99583920D01*
X127978340Y-99728907D01*
X127978343Y-99728917D01*
X128034912Y-99865488D01*
X128034914Y-99865492D01*
X128034916Y-99865495D01*
X128047893Y-99884916D01*
X128103214Y-99967712D01*
X128117051Y-99988420D01*
X128117052Y-99988421D01*
X129368551Y-101239919D01*
X129402036Y-101301242D01*
X129403808Y-101311406D01*
X129404312Y-101315234D01*
X129462301Y-101455233D01*
X129496279Y-101499514D01*
X129521473Y-101564684D01*
X129507434Y-101633129D01*
X129496279Y-101650486D01*
X129462301Y-101694766D01*
X129404313Y-101834763D01*
X129404313Y-101834764D01*
X129389500Y-101947272D01*
X129389500Y-102472727D01*
X129398952Y-102544516D01*
X129403498Y-102579049D01*
X129404313Y-102585235D01*
X129404313Y-102585236D01*
X129462301Y-102725233D01*
X129496279Y-102769514D01*
X129521473Y-102834684D01*
X129507434Y-102903129D01*
X129496279Y-102920486D01*
X129462301Y-102964766D01*
X129404313Y-103104763D01*
X129404313Y-103104764D01*
X129389500Y-103217272D01*
X129389500Y-103742727D01*
X129404313Y-103855235D01*
X129404313Y-103855236D01*
X129462301Y-103995233D01*
X129496279Y-104039514D01*
X129521473Y-104104684D01*
X129507434Y-104173129D01*
X129496279Y-104190486D01*
X129462301Y-104234766D01*
X129404313Y-104374763D01*
X129404313Y-104374764D01*
X129389500Y-104487272D01*
X129389500Y-105012727D01*
X129404313Y-105125235D01*
X129404313Y-105125236D01*
X129444222Y-105221586D01*
X129462302Y-105265233D01*
X129496594Y-105309923D01*
X129521788Y-105375091D01*
X129507750Y-105443536D01*
X129496595Y-105460894D01*
X129462737Y-105505019D01*
X129404801Y-105644891D01*
X129404800Y-105644895D01*
X129390000Y-105757302D01*
X129390000Y-105770000D01*
X132360000Y-105770000D01*
X132360000Y-105757316D01*
X132359999Y-105757302D01*
X132345199Y-105644895D01*
X132345198Y-105644891D01*
X132287262Y-105505018D01*
X132253405Y-105460895D01*
X132228211Y-105395726D01*
X132242250Y-105327281D01*
X132253398Y-105309933D01*
X132287698Y-105265233D01*
X132345687Y-105125236D01*
X132360500Y-105012720D01*
X132360500Y-104487280D01*
X132345687Y-104374764D01*
X132287760Y-104234916D01*
X132287699Y-104234769D01*
X132287697Y-104234766D01*
X132253720Y-104190486D01*
X132228526Y-104125317D01*
X132242564Y-104056872D01*
X132253720Y-104039514D01*
X132268552Y-104020184D01*
X132287698Y-103995233D01*
X132345687Y-103855236D01*
X132360500Y-103742720D01*
X132360500Y-103217280D01*
X132345687Y-103104764D01*
X132287698Y-102964767D01*
X132253720Y-102920486D01*
X132228526Y-102855317D01*
X132242564Y-102786872D01*
X132253720Y-102769514D01*
X132269162Y-102749389D01*
X132287698Y-102725233D01*
X132345687Y-102585236D01*
X132360500Y-102472720D01*
X132360500Y-101947280D01*
X132345687Y-101834764D01*
X132345686Y-101834763D01*
X132345150Y-101830685D01*
X132355916Y-101761650D01*
X132402295Y-101709394D01*
X132468089Y-101690500D01*
X132558920Y-101690500D01*
X132682507Y-101665916D01*
X132703913Y-101661658D01*
X132840495Y-101605084D01*
X132894630Y-101568912D01*
X132963416Y-101522952D01*
X133932952Y-100553416D01*
X133984623Y-100476083D01*
X134015084Y-100430495D01*
X134058075Y-100326706D01*
X134071659Y-100293912D01*
X134100500Y-100148917D01*
X134100500Y-100009208D01*
X134120185Y-99942169D01*
X134172989Y-99896414D01*
X134242147Y-99886470D01*
X134305703Y-99915495D01*
X134343477Y-99974273D01*
X134347439Y-99993022D01*
X134354313Y-100045235D01*
X134354313Y-100045236D01*
X134412301Y-100185233D01*
X134446279Y-100229514D01*
X134471473Y-100294684D01*
X134457434Y-100363129D01*
X134446279Y-100380486D01*
X134412301Y-100424766D01*
X134354313Y-100564763D01*
X134354313Y-100564764D01*
X134339500Y-100677272D01*
X134339500Y-101202727D01*
X134354313Y-101315235D01*
X134354313Y-101315236D01*
X134412301Y-101455233D01*
X134446279Y-101499514D01*
X134471473Y-101564684D01*
X134457434Y-101633129D01*
X134446279Y-101650486D01*
X134412301Y-101694766D01*
X134354313Y-101834763D01*
X134354313Y-101834764D01*
X134339500Y-101947272D01*
X134339500Y-102472727D01*
X134348952Y-102544516D01*
X134353498Y-102579049D01*
X134354313Y-102585235D01*
X134354313Y-102585236D01*
X134412301Y-102725233D01*
X134446279Y-102769514D01*
X134471473Y-102834684D01*
X134457434Y-102903129D01*
X134446279Y-102920486D01*
X134412301Y-102964766D01*
X134354313Y-103104763D01*
X134354313Y-103104764D01*
X134339500Y-103217272D01*
X134339500Y-103742727D01*
X134354313Y-103855235D01*
X134354313Y-103855236D01*
X134412301Y-103995233D01*
X134446279Y-104039514D01*
X134471473Y-104104684D01*
X134457434Y-104173129D01*
X134446279Y-104190486D01*
X134412301Y-104234766D01*
X134354313Y-104374763D01*
X134354313Y-104374764D01*
X134339500Y-104487272D01*
X134339500Y-105012727D01*
X134354313Y-105125235D01*
X134354313Y-105125236D01*
X134412301Y-105265233D01*
X134446279Y-105309514D01*
X134471473Y-105374684D01*
X134457434Y-105443129D01*
X134446279Y-105460486D01*
X134412301Y-105504766D01*
X134354313Y-105644763D01*
X134354313Y-105644764D01*
X134339500Y-105757272D01*
X134339500Y-106282713D01*
X134339501Y-106282730D01*
X134350296Y-106364726D01*
X134339530Y-106433761D01*
X134315038Y-106468592D01*
X133970451Y-106813181D01*
X133909128Y-106846666D01*
X133882770Y-106849500D01*
X132297370Y-106849500D01*
X132230331Y-106829815D01*
X132184576Y-106777011D01*
X132174632Y-106707853D01*
X132198994Y-106650014D01*
X132287261Y-106534981D01*
X132287263Y-106534979D01*
X132345198Y-106395108D01*
X132345199Y-106395104D01*
X132359999Y-106282697D01*
X132360000Y-106282683D01*
X132360000Y-106270000D01*
X129395229Y-106270000D01*
X129328190Y-106250315D01*
X129307548Y-106233681D01*
X125084425Y-102010558D01*
X125050940Y-101949235D01*
X125055924Y-101879543D01*
X125097796Y-101823610D01*
X125158853Y-101799587D01*
X125209983Y-101794091D01*
X125344831Y-101743796D01*
X125460046Y-101657546D01*
X125546296Y-101542331D01*
X125596591Y-101407483D01*
X125603000Y-101347873D01*
X125602999Y-99752128D01*
X125596591Y-99692517D01*
X125590057Y-99674999D01*
X125546297Y-99557671D01*
X125546293Y-99557664D01*
X125460047Y-99442455D01*
X125460044Y-99442452D01*
X125344835Y-99356206D01*
X125344828Y-99356202D01*
X125209982Y-99305908D01*
X125209983Y-99305908D01*
X125150383Y-99299501D01*
X125150381Y-99299500D01*
X125150373Y-99299500D01*
X125150364Y-99299500D01*
X119974629Y-99299500D01*
X119974623Y-99299501D01*
X119915016Y-99305908D01*
X119867833Y-99323507D01*
X119798141Y-99328491D01*
X119736818Y-99295005D01*
X119703334Y-99233682D01*
X119700500Y-99207325D01*
X119700500Y-97642141D01*
X119720185Y-97575102D01*
X119772989Y-97529347D01*
X119842147Y-97519403D01*
X119867835Y-97525960D01*
X119915119Y-97543596D01*
X119915127Y-97543598D01*
X119974655Y-97549999D01*
X119974672Y-97550000D01*
X122312500Y-97550000D01*
X122812500Y-97550000D01*
X125150328Y-97550000D01*
X125150344Y-97549999D01*
X125209872Y-97543598D01*
X125209879Y-97543596D01*
X125344586Y-97493354D01*
X125344593Y-97493350D01*
X125459687Y-97407190D01*
X125459690Y-97407187D01*
X125545850Y-97292093D01*
X125545854Y-97292086D01*
X125596096Y-97157379D01*
X125596098Y-97157372D01*
X125602499Y-97097844D01*
X125602500Y-97097827D01*
X125602500Y-96550000D01*
X122812500Y-96550000D01*
X122812500Y-97550000D01*
X122312500Y-97550000D01*
X122312500Y-96050000D01*
X122812500Y-96050000D01*
X125602500Y-96050000D01*
X125602500Y-95502172D01*
X125602499Y-95502155D01*
X125596098Y-95442627D01*
X125596096Y-95442620D01*
X125545854Y-95307913D01*
X125545850Y-95307906D01*
X125459690Y-95192812D01*
X125459687Y-95192809D01*
X125344593Y-95106649D01*
X125344586Y-95106645D01*
X125209879Y-95056403D01*
X125209872Y-95056401D01*
X125150344Y-95050000D01*
X122812500Y-95050000D01*
X122812500Y-96050000D01*
X122312500Y-96050000D01*
X122312500Y-95050000D01*
X119974655Y-95050000D01*
X119915127Y-95056401D01*
X119915119Y-95056403D01*
X119867833Y-95074040D01*
X119798141Y-95079024D01*
X119736818Y-95045539D01*
X119703334Y-94984215D01*
X119700500Y-94957858D01*
X119700500Y-78915186D01*
X121799500Y-78915186D01*
X121799500Y-79184813D01*
X121829686Y-79452719D01*
X121829687Y-79452728D01*
X121829688Y-79452732D01*
X121840363Y-79499500D01*
X121889684Y-79715594D01*
X121889687Y-79715602D01*
X121978734Y-79970082D01*
X122095714Y-80212994D01*
X122095716Y-80212997D01*
X122239162Y-80441289D01*
X122407266Y-80652085D01*
X122597915Y-80842734D01*
X122808711Y-81010838D01*
X123037003Y-81154284D01*
X123279921Y-81271267D01*
X123471049Y-81338145D01*
X123534397Y-81360312D01*
X123534405Y-81360315D01*
X123534408Y-81360315D01*
X123534409Y-81360316D01*
X123797268Y-81420312D01*
X124065187Y-81450499D01*
X124065188Y-81450500D01*
X124065191Y-81450500D01*
X124334812Y-81450500D01*
X124334812Y-81450499D01*
X124602732Y-81420312D01*
X124865591Y-81360316D01*
X125120079Y-81271267D01*
X125362997Y-81154284D01*
X125591289Y-81010838D01*
X125802085Y-80842734D01*
X125992734Y-80652085D01*
X126160838Y-80441289D01*
X126304284Y-80212997D01*
X126421267Y-79970079D01*
X126510316Y-79715591D01*
X126570312Y-79452732D01*
X126600500Y-79184809D01*
X126600500Y-78915191D01*
X126600499Y-78915186D01*
X167299500Y-78915186D01*
X167299500Y-79184813D01*
X167329686Y-79452719D01*
X167329687Y-79452728D01*
X167329688Y-79452732D01*
X167340363Y-79499500D01*
X167389684Y-79715594D01*
X167389687Y-79715602D01*
X167478734Y-79970082D01*
X167595714Y-80212994D01*
X167595716Y-80212997D01*
X167739162Y-80441289D01*
X167907266Y-80652085D01*
X168097915Y-80842734D01*
X168308711Y-81010838D01*
X168537003Y-81154284D01*
X168779921Y-81271267D01*
X168971049Y-81338145D01*
X169034397Y-81360312D01*
X169034405Y-81360315D01*
X169034408Y-81360315D01*
X169034409Y-81360316D01*
X169297268Y-81420312D01*
X169565187Y-81450499D01*
X169565188Y-81450500D01*
X169565191Y-81450500D01*
X169834812Y-81450500D01*
X169834812Y-81450499D01*
X170102732Y-81420312D01*
X170365591Y-81360316D01*
X170620079Y-81271267D01*
X170862997Y-81154284D01*
X171091289Y-81010838D01*
X171302085Y-80842734D01*
X171492734Y-80652085D01*
X171660838Y-80441289D01*
X171804284Y-80212997D01*
X171921267Y-79970079D01*
X172010316Y-79715591D01*
X172070312Y-79452732D01*
X172100500Y-79184809D01*
X172100500Y-78915191D01*
X172070312Y-78647268D01*
X172010316Y-78384409D01*
X171921267Y-78129921D01*
X171804284Y-77887003D01*
X171660838Y-77658711D01*
X171492734Y-77447915D01*
X171302085Y-77257266D01*
X171091289Y-77089162D01*
X170862997Y-76945716D01*
X170862994Y-76945714D01*
X170620082Y-76828734D01*
X170365602Y-76739687D01*
X170365594Y-76739684D01*
X170168446Y-76694687D01*
X170102732Y-76679688D01*
X170102728Y-76679687D01*
X170102719Y-76679686D01*
X169834813Y-76649500D01*
X169834809Y-76649500D01*
X169565191Y-76649500D01*
X169565186Y-76649500D01*
X169297280Y-76679686D01*
X169297268Y-76679688D01*
X169034405Y-76739684D01*
X169034397Y-76739687D01*
X168779917Y-76828734D01*
X168537005Y-76945714D01*
X168308712Y-77089161D01*
X168097915Y-77257265D01*
X167907265Y-77447915D01*
X167739161Y-77658712D01*
X167595714Y-77887005D01*
X167478734Y-78129917D01*
X167389687Y-78384397D01*
X167389684Y-78384405D01*
X167329688Y-78647268D01*
X167329686Y-78647280D01*
X167299500Y-78915186D01*
X126600499Y-78915186D01*
X126570312Y-78647268D01*
X126510316Y-78384409D01*
X126421267Y-78129921D01*
X126304284Y-77887003D01*
X126160838Y-77658711D01*
X125992734Y-77447915D01*
X125802085Y-77257266D01*
X125591289Y-77089162D01*
X125362997Y-76945716D01*
X125362994Y-76945714D01*
X125120082Y-76828734D01*
X124865602Y-76739687D01*
X124865594Y-76739684D01*
X124668446Y-76694687D01*
X124602732Y-76679688D01*
X124602728Y-76679687D01*
X124602719Y-76679686D01*
X124334813Y-76649500D01*
X124334809Y-76649500D01*
X124065191Y-76649500D01*
X124065186Y-76649500D01*
X123797280Y-76679686D01*
X123797268Y-76679688D01*
X123534405Y-76739684D01*
X123534397Y-76739687D01*
X123279917Y-76828734D01*
X123037005Y-76945714D01*
X122808712Y-77089161D01*
X122597915Y-77257265D01*
X122407265Y-77447915D01*
X122239161Y-77658712D01*
X122095714Y-77887005D01*
X121978734Y-78129917D01*
X121889687Y-78384397D01*
X121889684Y-78384405D01*
X121829688Y-78647268D01*
X121829686Y-78647280D01*
X121799500Y-78915186D01*
X119700500Y-78915186D01*
X119700500Y-74674500D01*
X119720185Y-74607461D01*
X119772989Y-74561706D01*
X119824500Y-74550500D01*
X176075500Y-74550500D01*
X176142539Y-74570185D01*
G37*
%TD.AperFunction*%
%TA.AperFunction,Conductor*%
G36*
X159293039Y-96257185D02*
G01*
X159338794Y-96309989D01*
X159350000Y-96361500D01*
X159350000Y-97037500D01*
X159815634Y-97037500D01*
X159815649Y-97037499D01*
X159852489Y-97034600D01*
X159852495Y-97034599D01*
X160010193Y-96988783D01*
X160010196Y-96988782D01*
X160151550Y-96905186D01*
X160151557Y-96905181D01*
X160161962Y-96894776D01*
X160223284Y-96861289D01*
X160292976Y-96866271D01*
X160337327Y-96894773D01*
X160348135Y-96905581D01*
X160489602Y-96989244D01*
X160560096Y-97009724D01*
X160618980Y-97047329D01*
X160648187Y-97110801D01*
X160649500Y-97128800D01*
X160649500Y-101187769D01*
X160629815Y-101254808D01*
X160613181Y-101275450D01*
X157997002Y-103891629D01*
X157935679Y-103925114D01*
X157902039Y-103927734D01*
X157748112Y-103918679D01*
X157714441Y-103911935D01*
X157668921Y-103896007D01*
X157579254Y-103864631D01*
X157579249Y-103864630D01*
X157400004Y-103844435D01*
X157399996Y-103844435D01*
X157220750Y-103864630D01*
X157220745Y-103864631D01*
X157050476Y-103924211D01*
X156897737Y-104020184D01*
X156770184Y-104147737D01*
X156674211Y-104300476D01*
X156614631Y-104470745D01*
X156614630Y-104470750D01*
X156594435Y-104649996D01*
X156594435Y-104650003D01*
X156614630Y-104829249D01*
X156614631Y-104829254D01*
X156674211Y-104999523D01*
X156729667Y-105087780D01*
X156770184Y-105152262D01*
X156897738Y-105279816D01*
X156945838Y-105310039D01*
X157046960Y-105373579D01*
X157050478Y-105375789D01*
X157175208Y-105419433D01*
X157180838Y-105421583D01*
X157182129Y-105421974D01*
X157187132Y-105423605D01*
X157220745Y-105435368D01*
X157283073Y-105442390D01*
X157293355Y-105443990D01*
X157311695Y-105447638D01*
X157326081Y-105450500D01*
X157326082Y-105450500D01*
X157348085Y-105450500D01*
X157361969Y-105451280D01*
X157399998Y-105455565D01*
X157400000Y-105455565D01*
X157400002Y-105455565D01*
X157438031Y-105451280D01*
X157451915Y-105450500D01*
X157473918Y-105450500D01*
X157506651Y-105443988D01*
X157516925Y-105442390D01*
X157579255Y-105435368D01*
X157606057Y-105425989D01*
X157612144Y-105423859D01*
X157660381Y-105417113D01*
X158145784Y-105445666D01*
X158162687Y-105447834D01*
X158176083Y-105450500D01*
X158224294Y-105450500D01*
X158231576Y-105450714D01*
X158279717Y-105453546D01*
X158279717Y-105453545D01*
X158279719Y-105453546D01*
X158293254Y-105451671D01*
X158310261Y-105450500D01*
X158323920Y-105450500D01*
X158358924Y-105443536D01*
X158371215Y-105441090D01*
X158378351Y-105439887D01*
X158426158Y-105433268D01*
X158439074Y-105428786D01*
X158455512Y-105424323D01*
X158468912Y-105421658D01*
X158513468Y-105403201D01*
X158520226Y-105400631D01*
X158565826Y-105384812D01*
X158577617Y-105377898D01*
X158592884Y-105370307D01*
X158605489Y-105365086D01*
X158605488Y-105365086D01*
X158605494Y-105365084D01*
X158645613Y-105338276D01*
X158651737Y-105334440D01*
X158693358Y-105310039D01*
X158703571Y-105300960D01*
X158717045Y-105290548D01*
X158728416Y-105282952D01*
X158762560Y-105248806D01*
X158767790Y-105243875D01*
X158803851Y-105211822D01*
X158803859Y-105211810D01*
X158807982Y-105207351D01*
X158809610Y-105208855D01*
X158857757Y-105173194D01*
X158927473Y-105168563D01*
X158988625Y-105202359D01*
X159021798Y-105263852D01*
X159024500Y-105289594D01*
X159024500Y-105612769D01*
X159004815Y-105679808D01*
X158988181Y-105700450D01*
X158475451Y-106213181D01*
X158414128Y-106246666D01*
X158387770Y-106249500D01*
X157999972Y-106249500D01*
X157959017Y-106242542D01*
X157879254Y-106214631D01*
X157879249Y-106214630D01*
X157700004Y-106194435D01*
X157699996Y-106194435D01*
X157520750Y-106214630D01*
X157520745Y-106214631D01*
X157350476Y-106274211D01*
X157197737Y-106370184D01*
X157070184Y-106497737D01*
X156974211Y-106650476D01*
X156914631Y-106820745D01*
X156914630Y-106820750D01*
X156894435Y-106999996D01*
X156894435Y-107000003D01*
X156914630Y-107179249D01*
X156914631Y-107179254D01*
X156974211Y-107349523D01*
X157035873Y-107447657D01*
X157070184Y-107502262D01*
X157197738Y-107629816D01*
X157229861Y-107650000D01*
X157343903Y-107721658D01*
X157350478Y-107725789D01*
X157396358Y-107741843D01*
X157520745Y-107785368D01*
X157520750Y-107785369D01*
X157699996Y-107805565D01*
X157700000Y-107805565D01*
X157700004Y-107805565D01*
X157879249Y-107785369D01*
X157879252Y-107785368D01*
X157879255Y-107785368D01*
X157959017Y-107757457D01*
X157999972Y-107750500D01*
X158823919Y-107750500D01*
X158898743Y-107735616D01*
X158968334Y-107741843D01*
X159023512Y-107784705D01*
X159040641Y-107818229D01*
X159090641Y-107969119D01*
X159090643Y-107969124D01*
X159182684Y-108118345D01*
X159306654Y-108242315D01*
X159455875Y-108334356D01*
X159455880Y-108334358D01*
X159622302Y-108389505D01*
X159622309Y-108389506D01*
X159725019Y-108399999D01*
X159999999Y-108399999D01*
X160500000Y-108399999D01*
X160774972Y-108399999D01*
X160774986Y-108399998D01*
X160877697Y-108389505D01*
X161044119Y-108334358D01*
X161044124Y-108334356D01*
X161193345Y-108242315D01*
X161317315Y-108118345D01*
X161409356Y-107969124D01*
X161409358Y-107969119D01*
X161464505Y-107802697D01*
X161464506Y-107802690D01*
X161474999Y-107699986D01*
X161475000Y-107699973D01*
X161475000Y-107650000D01*
X160500000Y-107650000D01*
X160500000Y-108399999D01*
X159999999Y-108399999D01*
X160000000Y-108399998D01*
X160000000Y-107524000D01*
X160019685Y-107456961D01*
X160072489Y-107411206D01*
X160124000Y-107400000D01*
X160250000Y-107400000D01*
X160250000Y-107274000D01*
X160269685Y-107206961D01*
X160322489Y-107161206D01*
X160374000Y-107150000D01*
X161474999Y-107150000D01*
X161474999Y-107100028D01*
X161474998Y-107100013D01*
X161464505Y-106997302D01*
X161409358Y-106830880D01*
X161409356Y-106830875D01*
X161322215Y-106689597D01*
X161303775Y-106622204D01*
X161324698Y-106555541D01*
X161378340Y-106510771D01*
X161427754Y-106500500D01*
X163072246Y-106500500D01*
X163139285Y-106520185D01*
X163185040Y-106572989D01*
X163194984Y-106642147D01*
X163177785Y-106689597D01*
X163090643Y-106830875D01*
X163090641Y-106830880D01*
X163035494Y-106997302D01*
X163035493Y-106997309D01*
X163025000Y-107100013D01*
X163025000Y-107150000D01*
X164126000Y-107150000D01*
X164193039Y-107169685D01*
X164238794Y-107222489D01*
X164250000Y-107274000D01*
X164250000Y-107526000D01*
X164230315Y-107593039D01*
X164177511Y-107638794D01*
X164126000Y-107650000D01*
X163025001Y-107650000D01*
X163025001Y-107699986D01*
X163035494Y-107802697D01*
X163090641Y-107969119D01*
X163090643Y-107969124D01*
X163182684Y-108118345D01*
X163202158Y-108137819D01*
X163235643Y-108199142D01*
X163230659Y-108268834D01*
X163188787Y-108324767D01*
X163123323Y-108349184D01*
X163114477Y-108349500D01*
X162451456Y-108349500D01*
X162258171Y-108387947D01*
X162258163Y-108387949D01*
X162190528Y-108415965D01*
X162076082Y-108463369D01*
X161912218Y-108572860D01*
X161912214Y-108572863D01*
X159721047Y-110764032D01*
X159002220Y-111482859D01*
X159002218Y-111482861D01*
X158932538Y-111552540D01*
X158862859Y-111622219D01*
X158753371Y-111786079D01*
X158753364Y-111786092D01*
X158677950Y-111968160D01*
X158677947Y-111968170D01*
X158639500Y-112161456D01*
X158639500Y-116589241D01*
X158619815Y-116656280D01*
X158603181Y-116676922D01*
X158601505Y-116678597D01*
X158471575Y-116864158D01*
X158416998Y-116907783D01*
X158347500Y-116914977D01*
X158285145Y-116883454D01*
X158268425Y-116864158D01*
X158138494Y-116678597D01*
X157971402Y-116511506D01*
X157971395Y-116511501D01*
X157777834Y-116375967D01*
X157777830Y-116375965D01*
X157706727Y-116342809D01*
X157563663Y-116276097D01*
X157563659Y-116276096D01*
X157563655Y-116276094D01*
X157335413Y-116214938D01*
X157335403Y-116214936D01*
X157100001Y-116194341D01*
X157099998Y-116194341D01*
X156886986Y-116212977D01*
X156818486Y-116199210D01*
X156788498Y-116177130D01*
X156636819Y-116025451D01*
X156603334Y-115964128D01*
X156600500Y-115937770D01*
X156600500Y-105626079D01*
X156571659Y-105481092D01*
X156571658Y-105481091D01*
X156571658Y-105481087D01*
X156563125Y-105460486D01*
X156515087Y-105344511D01*
X156515085Y-105344507D01*
X156515084Y-105344505D01*
X156464968Y-105269501D01*
X156447821Y-105243838D01*
X156432954Y-105221586D01*
X156432952Y-105221584D01*
X155528421Y-104317052D01*
X155528420Y-104317051D01*
X155503616Y-104300478D01*
X155438010Y-104256642D01*
X155405495Y-104234916D01*
X155405493Y-104234915D01*
X155405490Y-104234913D01*
X155268917Y-104178343D01*
X155268907Y-104178340D01*
X155123920Y-104149500D01*
X155123918Y-104149500D01*
X154911230Y-104149500D01*
X154844191Y-104129815D01*
X154798436Y-104077011D01*
X154788492Y-104007853D01*
X154817517Y-103944297D01*
X154823549Y-103937819D01*
X155423048Y-103338319D01*
X156127344Y-102634021D01*
X156188665Y-102600538D01*
X156232667Y-102598966D01*
X156278111Y-102605500D01*
X156278113Y-102605500D01*
X156850000Y-102605500D01*
X156921940Y-102600355D01*
X156959259Y-102589396D01*
X157011841Y-102585636D01*
X157150000Y-102605500D01*
X157150003Y-102605500D01*
X157721886Y-102605500D01*
X157721889Y-102605500D01*
X157864304Y-102585024D01*
X158002259Y-102544517D01*
X158133137Y-102484747D01*
X158144397Y-102477511D01*
X158198214Y-102442924D01*
X158248477Y-102410622D01*
X158249915Y-102409804D01*
X158254098Y-102407011D01*
X158303017Y-102364620D01*
X158362832Y-102312791D01*
X158456986Y-102204130D01*
X158534770Y-102083094D01*
X158591742Y-101958342D01*
X158593986Y-101954053D01*
X158594498Y-101952308D01*
X158594499Y-101952308D01*
X158635035Y-101814256D01*
X158637935Y-101794090D01*
X158639978Y-101779880D01*
X158655497Y-101671941D01*
X158655497Y-101615601D01*
X158655500Y-101615590D01*
X158655500Y-101084426D01*
X158655497Y-101084399D01*
X158655497Y-101028060D01*
X158651464Y-101000013D01*
X158635035Y-100885744D01*
X158635035Y-100885743D01*
X158594498Y-100747691D01*
X158586821Y-100730880D01*
X158534776Y-100616918D01*
X158534773Y-100616914D01*
X158534770Y-100616906D01*
X158456986Y-100495870D01*
X158456985Y-100495869D01*
X158456984Y-100495867D01*
X158456981Y-100495863D01*
X158362847Y-100387226D01*
X158362830Y-100387207D01*
X158362829Y-100387206D01*
X158254091Y-100292985D01*
X158207460Y-100263017D01*
X158161706Y-100210213D01*
X158150500Y-100158702D01*
X158150500Y-97142516D01*
X158170185Y-97075477D01*
X158222989Y-97029722D01*
X158292147Y-97019778D01*
X158309095Y-97023440D01*
X158347504Y-97034599D01*
X158347510Y-97034600D01*
X158384350Y-97037499D01*
X158384366Y-97037500D01*
X158850000Y-97037500D01*
X158850000Y-96361500D01*
X158869685Y-96294461D01*
X158922489Y-96248706D01*
X158974000Y-96237500D01*
X159226000Y-96237500D01*
X159293039Y-96257185D01*
G37*
%TD.AperFunction*%
%TA.AperFunction,Conductor*%
G36*
X165629167Y-107710176D02*
G01*
X165673900Y-107738820D01*
X166563181Y-108628101D01*
X166596666Y-108689424D01*
X166599500Y-108715782D01*
X166599500Y-110787155D01*
X166579815Y-110854194D01*
X166527011Y-110899949D01*
X166457853Y-110909893D01*
X166394297Y-110880868D01*
X166364617Y-110836390D01*
X166362408Y-110837421D01*
X166359356Y-110830875D01*
X166267315Y-110681654D01*
X166143345Y-110557684D01*
X165994124Y-110465643D01*
X165994119Y-110465641D01*
X165827697Y-110410494D01*
X165827690Y-110410493D01*
X165724986Y-110400000D01*
X165662500Y-110400000D01*
X165662500Y-112799999D01*
X165724972Y-112799999D01*
X165724986Y-112799998D01*
X165827697Y-112789505D01*
X165994119Y-112734358D01*
X165994124Y-112734356D01*
X166143345Y-112642315D01*
X166267315Y-112518345D01*
X166359356Y-112369124D01*
X166362408Y-112362579D01*
X166364815Y-112363701D01*
X166397561Y-112316400D01*
X166462076Y-112289573D01*
X166530852Y-112301884D01*
X166582055Y-112349424D01*
X166599500Y-112412844D01*
X166599500Y-114204217D01*
X166579815Y-114271256D01*
X166563181Y-114291898D01*
X164686970Y-116168108D01*
X164625647Y-116201593D01*
X164610098Y-116203955D01*
X164484596Y-116214936D01*
X164484586Y-116214938D01*
X164256344Y-116276094D01*
X164256335Y-116276098D01*
X164042171Y-116375964D01*
X164042169Y-116375965D01*
X163848597Y-116511505D01*
X163681505Y-116678597D01*
X163551575Y-116864158D01*
X163496998Y-116907783D01*
X163427500Y-116914977D01*
X163365145Y-116883454D01*
X163348425Y-116864158D01*
X163218494Y-116678597D01*
X163091819Y-116551922D01*
X163058334Y-116490599D01*
X163055500Y-116464241D01*
X163055500Y-113421505D01*
X163075185Y-113354466D01*
X163091815Y-113333828D01*
X163588825Y-112836817D01*
X163650148Y-112803333D01*
X163676506Y-112800499D01*
X163900002Y-112800499D01*
X163900008Y-112800499D01*
X164002797Y-112789999D01*
X164169334Y-112734814D01*
X164318656Y-112642712D01*
X164412675Y-112548692D01*
X164473994Y-112515210D01*
X164543686Y-112520194D01*
X164588034Y-112548695D01*
X164681654Y-112642315D01*
X164830875Y-112734356D01*
X164830880Y-112734358D01*
X164997302Y-112789505D01*
X164997309Y-112789506D01*
X165100019Y-112799999D01*
X165162499Y-112799998D01*
X165162500Y-112799998D01*
X165162500Y-110400000D01*
X165162499Y-110399999D01*
X165100028Y-110400000D01*
X165100011Y-110400001D01*
X164997302Y-110410494D01*
X164830880Y-110465641D01*
X164830875Y-110465643D01*
X164681657Y-110557682D01*
X164588034Y-110651305D01*
X164526710Y-110684789D01*
X164457019Y-110679805D01*
X164412672Y-110651304D01*
X164318657Y-110557289D01*
X164318656Y-110557288D01*
X164175972Y-110469280D01*
X164129249Y-110417333D01*
X164118026Y-110348370D01*
X164145870Y-110284288D01*
X164193617Y-110249181D01*
X164223914Y-110236632D01*
X164387782Y-110127139D01*
X164527139Y-109987782D01*
X164636632Y-109823914D01*
X164712051Y-109641835D01*
X164750500Y-109448541D01*
X164750500Y-109251459D01*
X164750500Y-109251456D01*
X164712052Y-109058170D01*
X164712051Y-109058169D01*
X164712051Y-109058165D01*
X164712049Y-109058160D01*
X164636635Y-108876092D01*
X164636628Y-108876079D01*
X164527139Y-108712218D01*
X164527136Y-108712214D01*
X164426602Y-108611680D01*
X164393117Y-108550357D01*
X164398101Y-108480665D01*
X164439973Y-108424732D01*
X164505437Y-108400315D01*
X164514283Y-108399999D01*
X164774972Y-108399999D01*
X164774986Y-108399998D01*
X164877697Y-108389505D01*
X165044119Y-108334358D01*
X165044124Y-108334356D01*
X165193345Y-108242315D01*
X165317315Y-108118345D01*
X165409356Y-107969124D01*
X165409358Y-107969119D01*
X165464505Y-107802696D01*
X165464966Y-107800545D01*
X165465615Y-107799345D01*
X165466635Y-107796270D01*
X165467183Y-107796451D01*
X165498247Y-107739111D01*
X165559459Y-107705423D01*
X165629167Y-107710176D01*
G37*
%TD.AperFunction*%
%TA.AperFunction,Conductor*%
G36*
X141859334Y-106954548D02*
G01*
X141915267Y-106996420D01*
X141939684Y-107061884D01*
X141940000Y-107070730D01*
X141940000Y-107275000D01*
X142616000Y-107275000D01*
X142683039Y-107294685D01*
X142728794Y-107347489D01*
X142740000Y-107399000D01*
X142740000Y-107651000D01*
X142720315Y-107718039D01*
X142667511Y-107763794D01*
X142616000Y-107775000D01*
X141940000Y-107775000D01*
X141940000Y-108315649D01*
X141942899Y-108352489D01*
X141942900Y-108352495D01*
X141988716Y-108510193D01*
X141988717Y-108510196D01*
X142072314Y-108651552D01*
X142072321Y-108651561D01*
X142088356Y-108667596D01*
X142121841Y-108728919D01*
X142116857Y-108798611D01*
X142088356Y-108842958D01*
X137912181Y-113019134D01*
X137850858Y-113052619D01*
X137781166Y-113047635D01*
X137725233Y-113005763D01*
X137700816Y-112940299D01*
X137700500Y-112931453D01*
X137700500Y-111062230D01*
X137720185Y-110995191D01*
X137736819Y-110974549D01*
X141728319Y-106983049D01*
X141789642Y-106949564D01*
X141859334Y-106954548D01*
G37*
%TD.AperFunction*%
%TA.AperFunction,Conductor*%
G36*
X134254809Y-87020185D02*
G01*
X134275451Y-87036819D01*
X138321585Y-91082952D01*
X138348839Y-91101162D01*
X138362374Y-91110206D01*
X138444498Y-91165080D01*
X138444511Y-91165087D01*
X138501079Y-91188518D01*
X138501080Y-91188518D01*
X138581088Y-91221659D01*
X138673336Y-91240008D01*
X138695567Y-91244430D01*
X138726081Y-91250500D01*
X138726082Y-91250500D01*
X138726083Y-91250500D01*
X138873918Y-91250500D01*
X143437770Y-91250500D01*
X143504809Y-91270185D01*
X143525451Y-91286819D01*
X144513181Y-92274548D01*
X144546666Y-92335871D01*
X144549500Y-92362229D01*
X144549500Y-96257776D01*
X144549500Y-96257778D01*
X144549499Y-96257778D01*
X144578340Y-96402765D01*
X144578343Y-96402775D01*
X144634913Y-96539348D01*
X144655365Y-96569957D01*
X144717045Y-96662272D01*
X144717049Y-96662276D01*
X145433758Y-97378983D01*
X145467243Y-97440306D01*
X145467694Y-97442473D01*
X145488907Y-97549119D01*
X145488909Y-97549127D01*
X145522325Y-97629800D01*
X145529794Y-97699270D01*
X145510038Y-97744660D01*
X145510454Y-97744887D01*
X145507919Y-97749528D01*
X145507037Y-97751556D01*
X145506206Y-97752665D01*
X145506202Y-97752672D01*
X145455908Y-97887517D01*
X145449501Y-97947116D01*
X145449501Y-97947123D01*
X145449500Y-97947135D01*
X145449500Y-99092870D01*
X145449501Y-99092876D01*
X145455908Y-99152483D01*
X145506202Y-99287328D01*
X145506206Y-99287335D01*
X145592452Y-99402544D01*
X145592455Y-99402547D01*
X145707664Y-99488793D01*
X145707671Y-99488797D01*
X145842517Y-99539091D01*
X145850062Y-99540874D01*
X145849523Y-99543151D01*
X145903287Y-99565408D01*
X145943147Y-99622793D01*
X145949500Y-99661975D01*
X145949500Y-101261418D01*
X145949500Y-101261420D01*
X145949499Y-101261420D01*
X145978340Y-101406407D01*
X145978343Y-101406417D01*
X146034913Y-101542990D01*
X146034914Y-101542991D01*
X146034916Y-101542995D01*
X146057027Y-101576086D01*
X146103602Y-101645793D01*
X146124480Y-101712469D01*
X146124500Y-101714682D01*
X146124500Y-102000000D01*
X146124501Y-102000019D01*
X146135000Y-102102796D01*
X146135001Y-102102799D01*
X146190185Y-102269331D01*
X146190187Y-102269336D01*
X146191544Y-102271536D01*
X146282288Y-102418656D01*
X146406344Y-102542712D01*
X146555666Y-102634814D01*
X146722203Y-102689999D01*
X146824991Y-102700500D01*
X147450008Y-102700499D01*
X147450016Y-102700498D01*
X147450019Y-102700498D01*
X147506302Y-102694748D01*
X147552797Y-102689999D01*
X147719334Y-102634814D01*
X147868656Y-102542712D01*
X147962675Y-102448692D01*
X148023994Y-102415210D01*
X148093686Y-102420194D01*
X148138034Y-102448695D01*
X148231654Y-102542315D01*
X148380875Y-102634356D01*
X148380880Y-102634358D01*
X148547302Y-102689505D01*
X148547309Y-102689506D01*
X148650019Y-102699999D01*
X149212500Y-102699999D01*
X149274972Y-102699999D01*
X149274986Y-102699998D01*
X149377697Y-102689505D01*
X149544119Y-102634358D01*
X149544124Y-102634356D01*
X149693345Y-102542315D01*
X149817315Y-102418345D01*
X149909356Y-102269124D01*
X149909358Y-102269119D01*
X149964505Y-102102697D01*
X149964506Y-102102690D01*
X149974999Y-101999986D01*
X149975000Y-101999973D01*
X149975000Y-101750000D01*
X149212500Y-101750000D01*
X149212500Y-102699999D01*
X148650019Y-102699999D01*
X148712499Y-102699998D01*
X148712500Y-102699998D01*
X148712500Y-101250000D01*
X149212500Y-101250000D01*
X149974999Y-101250000D01*
X149974999Y-101000028D01*
X149974998Y-101000013D01*
X149964505Y-100897302D01*
X149909358Y-100730880D01*
X149909356Y-100730875D01*
X149817315Y-100581654D01*
X149693345Y-100457684D01*
X149544124Y-100365643D01*
X149544119Y-100365641D01*
X149377697Y-100310494D01*
X149377690Y-100310493D01*
X149274986Y-100300000D01*
X149212500Y-100300000D01*
X149212500Y-101250000D01*
X148712500Y-101250000D01*
X148712500Y-100300000D01*
X148712499Y-100299999D01*
X148650028Y-100300000D01*
X148650011Y-100300001D01*
X148547302Y-100310494D01*
X148380880Y-100365641D01*
X148380875Y-100365643D01*
X148231657Y-100457682D01*
X148138034Y-100551305D01*
X148076710Y-100584789D01*
X148007019Y-100579805D01*
X147962672Y-100551304D01*
X147868657Y-100457289D01*
X147868656Y-100457288D01*
X147755033Y-100387205D01*
X147719336Y-100365187D01*
X147719331Y-100365185D01*
X147552795Y-100310000D01*
X147548533Y-100309088D01*
X147487102Y-100275801D01*
X147453419Y-100214586D01*
X147450500Y-100187837D01*
X147450500Y-99661976D01*
X147470185Y-99594937D01*
X147522989Y-99549182D01*
X147550135Y-99541736D01*
X147549932Y-99540876D01*
X147557479Y-99539092D01*
X147557481Y-99539091D01*
X147557483Y-99539091D01*
X147692331Y-99488796D01*
X147807546Y-99402546D01*
X147893796Y-99287331D01*
X147944091Y-99152483D01*
X147950500Y-99092873D01*
X147950499Y-97947128D01*
X147944091Y-97887517D01*
X147943065Y-97884767D01*
X147893797Y-97752671D01*
X147893796Y-97752670D01*
X147893796Y-97752669D01*
X147892967Y-97751562D01*
X147892485Y-97750268D01*
X147889546Y-97744886D01*
X147890319Y-97744463D01*
X147868551Y-97686099D01*
X147877675Y-97629798D01*
X147911089Y-97549132D01*
X147911089Y-97549131D01*
X147911091Y-97549127D01*
X147950500Y-97351003D01*
X147950500Y-97148997D01*
X147911091Y-96950873D01*
X147833786Y-96764244D01*
X147780094Y-96683889D01*
X147759217Y-96617214D01*
X147777701Y-96549834D01*
X147780078Y-96546134D01*
X147833786Y-96465756D01*
X147911091Y-96279127D01*
X147950500Y-96081003D01*
X147950500Y-95878997D01*
X147911091Y-95680873D01*
X147833786Y-95494244D01*
X147833784Y-95494241D01*
X147833782Y-95494237D01*
X147721398Y-95326042D01*
X147700520Y-95259364D01*
X147700500Y-95257151D01*
X147700500Y-90037242D01*
X147677215Y-89920185D01*
X147676591Y-89917048D01*
X147670536Y-89886609D01*
X147676762Y-89817023D01*
X147719623Y-89761844D01*
X147785512Y-89738598D01*
X147853510Y-89754664D01*
X147861043Y-89759317D01*
X147890226Y-89778816D01*
X147944505Y-89815084D01*
X147992382Y-89834915D01*
X147992383Y-89834916D01*
X147992384Y-89834916D01*
X148081088Y-89871659D01*
X148195592Y-89894435D01*
X148215918Y-89898478D01*
X148226081Y-89900500D01*
X148226082Y-89900500D01*
X150573920Y-89900500D01*
X150651308Y-89885106D01*
X150720899Y-89891333D01*
X150776077Y-89934195D01*
X150799322Y-90000085D01*
X150799500Y-90006723D01*
X150799500Y-90400028D01*
X150792542Y-90440982D01*
X150764631Y-90520747D01*
X150744435Y-90699996D01*
X150744435Y-90700003D01*
X150764630Y-90879249D01*
X150764631Y-90879254D01*
X150792542Y-90959017D01*
X150799500Y-90999972D01*
X150799500Y-91737770D01*
X150779815Y-91804809D01*
X150763181Y-91825451D01*
X150017047Y-92571584D01*
X150017045Y-92571586D01*
X149996271Y-92602678D01*
X149987983Y-92615084D01*
X149968581Y-92644121D01*
X149934914Y-92694507D01*
X149878343Y-92831082D01*
X149878340Y-92831092D01*
X149849500Y-92976079D01*
X149849500Y-94062770D01*
X149829815Y-94129809D01*
X149813181Y-94150451D01*
X149757289Y-94206342D01*
X149665187Y-94355663D01*
X149665185Y-94355668D01*
X149647566Y-94408840D01*
X149610001Y-94522203D01*
X149610001Y-94522204D01*
X149610000Y-94522204D01*
X149599500Y-94624983D01*
X149599500Y-95675001D01*
X149599501Y-95675019D01*
X149610000Y-95777796D01*
X149610001Y-95777799D01*
X149643534Y-95878992D01*
X149665186Y-95944334D01*
X149757096Y-96093345D01*
X149757289Y-96093657D01*
X149813181Y-96149549D01*
X149846666Y-96210872D01*
X149849500Y-96237230D01*
X149849500Y-97762769D01*
X149829815Y-97829808D01*
X149813182Y-97850450D01*
X149707287Y-97956345D01*
X149615187Y-98105663D01*
X149615185Y-98105668D01*
X149615115Y-98105880D01*
X149560001Y-98272203D01*
X149560001Y-98272204D01*
X149560000Y-98272204D01*
X149549500Y-98374983D01*
X149549500Y-99425001D01*
X149549501Y-99425019D01*
X149560000Y-99527796D01*
X149560001Y-99527799D01*
X149605302Y-99664505D01*
X149615186Y-99694334D01*
X149707288Y-99843656D01*
X149831344Y-99967712D01*
X149980666Y-100059814D01*
X150147203Y-100114999D01*
X150249991Y-100125500D01*
X150850008Y-100125499D01*
X150850016Y-100125498D01*
X150850019Y-100125498D01*
X150906302Y-100119748D01*
X150952797Y-100114999D01*
X151119334Y-100059814D01*
X151268656Y-99967712D01*
X151392712Y-99843656D01*
X151394752Y-99840347D01*
X151396745Y-99838555D01*
X151397193Y-99837989D01*
X151397289Y-99838065D01*
X151446694Y-99793623D01*
X151515656Y-99782395D01*
X151579740Y-99810234D01*
X151605829Y-99840339D01*
X151607681Y-99843341D01*
X151607683Y-99843344D01*
X151731654Y-99967315D01*
X151880875Y-100059356D01*
X151880880Y-100059358D01*
X152047302Y-100114505D01*
X152047309Y-100114506D01*
X152150019Y-100124999D01*
X152700000Y-100124999D01*
X152749972Y-100124999D01*
X152749986Y-100124998D01*
X152852697Y-100114505D01*
X153019119Y-100059358D01*
X153019124Y-100059356D01*
X153168345Y-99967315D01*
X153292315Y-99843345D01*
X153384356Y-99694124D01*
X153384358Y-99694119D01*
X153439505Y-99527697D01*
X153439506Y-99527690D01*
X153449999Y-99424986D01*
X153450000Y-99424973D01*
X153450000Y-99150000D01*
X152700000Y-99150000D01*
X152700000Y-100124999D01*
X152150019Y-100124999D01*
X152199999Y-100124998D01*
X152200000Y-100124998D01*
X152200000Y-98650000D01*
X152700000Y-98650000D01*
X153449999Y-98650000D01*
X153449999Y-98375028D01*
X153449998Y-98375013D01*
X153439505Y-98272302D01*
X153384358Y-98105880D01*
X153384356Y-98105875D01*
X153292315Y-97956654D01*
X153168345Y-97832684D01*
X153019124Y-97740643D01*
X153019119Y-97740641D01*
X152852697Y-97685494D01*
X152852690Y-97685493D01*
X152749986Y-97675000D01*
X152700000Y-97675000D01*
X152700000Y-98650000D01*
X152200000Y-98650000D01*
X152200000Y-97675000D01*
X152199999Y-97674999D01*
X152150029Y-97675000D01*
X152150011Y-97675001D01*
X152047302Y-97685494D01*
X151880880Y-97740641D01*
X151880875Y-97740643D01*
X151731654Y-97832684D01*
X151607683Y-97956655D01*
X151607679Y-97956660D01*
X151605826Y-97959665D01*
X151604018Y-97961290D01*
X151603202Y-97962323D01*
X151603025Y-97962183D01*
X151553874Y-98006385D01*
X151484911Y-98017601D01*
X151420831Y-97989752D01*
X151394753Y-97959653D01*
X151394737Y-97959628D01*
X151392712Y-97956344D01*
X151386819Y-97950451D01*
X151353334Y-97889128D01*
X151350500Y-97862770D01*
X151350500Y-96237230D01*
X151370185Y-96170191D01*
X151386819Y-96149549D01*
X151414443Y-96121925D01*
X151442712Y-96093656D01*
X151444752Y-96090347D01*
X151446745Y-96088555D01*
X151447193Y-96087989D01*
X151447289Y-96088065D01*
X151496694Y-96043623D01*
X151565656Y-96032395D01*
X151629740Y-96060234D01*
X151655829Y-96090339D01*
X151657681Y-96093341D01*
X151657683Y-96093344D01*
X151781654Y-96217315D01*
X151930875Y-96309356D01*
X151930880Y-96309358D01*
X152097302Y-96364505D01*
X152097309Y-96364506D01*
X152200019Y-96374999D01*
X152750000Y-96374999D01*
X152799972Y-96374999D01*
X152799986Y-96374998D01*
X152902697Y-96364505D01*
X153069119Y-96309358D01*
X153069124Y-96309356D01*
X153218345Y-96217315D01*
X153342315Y-96093345D01*
X153434356Y-95944124D01*
X153434358Y-95944119D01*
X153489505Y-95777697D01*
X153489506Y-95777690D01*
X153499999Y-95674986D01*
X153500000Y-95674973D01*
X153500000Y-95400000D01*
X152750000Y-95400000D01*
X152750000Y-96374999D01*
X152200019Y-96374999D01*
X152249999Y-96374998D01*
X152250000Y-96374998D01*
X152250000Y-94900000D01*
X152750000Y-94900000D01*
X153499999Y-94900000D01*
X153499999Y-94625028D01*
X153499998Y-94625013D01*
X153489505Y-94522302D01*
X153434358Y-94355880D01*
X153434356Y-94355875D01*
X153342315Y-94206654D01*
X153218345Y-94082684D01*
X153069124Y-93990643D01*
X153069119Y-93990641D01*
X152902697Y-93935494D01*
X152902690Y-93935493D01*
X152799986Y-93925000D01*
X152750000Y-93925000D01*
X152750000Y-94900000D01*
X152250000Y-94900000D01*
X152250000Y-93925000D01*
X152249999Y-93924999D01*
X152200029Y-93925000D01*
X152200011Y-93925001D01*
X152097302Y-93935494D01*
X151930880Y-93990641D01*
X151930875Y-93990643D01*
X151781654Y-94082684D01*
X151657683Y-94206655D01*
X151657679Y-94206660D01*
X151655826Y-94209665D01*
X151654018Y-94211290D01*
X151653202Y-94212323D01*
X151653025Y-94212183D01*
X151603874Y-94256385D01*
X151534911Y-94267601D01*
X151470831Y-94239752D01*
X151444753Y-94209653D01*
X151444737Y-94209628D01*
X151442712Y-94206344D01*
X151386819Y-94150451D01*
X151353334Y-94089128D01*
X151350500Y-94062770D01*
X151350500Y-93412230D01*
X151370185Y-93345191D01*
X151386819Y-93324549D01*
X151755872Y-92955496D01*
X152132952Y-92578416D01*
X152166384Y-92528379D01*
X152219994Y-92483575D01*
X152289318Y-92474866D01*
X152352347Y-92505020D01*
X152387192Y-92558265D01*
X152415642Y-92644121D01*
X152415643Y-92644124D01*
X152507684Y-92793345D01*
X152631654Y-92917315D01*
X152780875Y-93009356D01*
X152780880Y-93009358D01*
X152947302Y-93064505D01*
X152947309Y-93064506D01*
X153050019Y-93074999D01*
X153099999Y-93074998D01*
X153100000Y-93074998D01*
X153100000Y-90625000D01*
X153099999Y-90624999D01*
X153050029Y-90625000D01*
X153050011Y-90625001D01*
X152947302Y-90635494D01*
X152780880Y-90690641D01*
X152780875Y-90690643D01*
X152631657Y-90782682D01*
X152560586Y-90853753D01*
X152499262Y-90887237D01*
X152429571Y-90882252D01*
X152373637Y-90840381D01*
X152349221Y-90774916D01*
X152349685Y-90752187D01*
X152355565Y-90700002D01*
X152355565Y-90699996D01*
X152335368Y-90520747D01*
X152335368Y-90520745D01*
X152307458Y-90440982D01*
X152300500Y-90400028D01*
X152300500Y-90024500D01*
X152320185Y-89957461D01*
X152372989Y-89911706D01*
X152424500Y-89900500D01*
X155838769Y-89900500D01*
X155905808Y-89920185D01*
X155951563Y-89972989D01*
X155961507Y-90042147D01*
X155932482Y-90105703D01*
X155926450Y-90112181D01*
X155450450Y-90588181D01*
X155389127Y-90621666D01*
X155362769Y-90624500D01*
X154949998Y-90624500D01*
X154949980Y-90624501D01*
X154847203Y-90635000D01*
X154847200Y-90635001D01*
X154680668Y-90690185D01*
X154680663Y-90690187D01*
X154531342Y-90782289D01*
X154407288Y-90906343D01*
X154407283Y-90906349D01*
X154405241Y-90909661D01*
X154403247Y-90911453D01*
X154402807Y-90912011D01*
X154402711Y-90911935D01*
X154353291Y-90956383D01*
X154284328Y-90967602D01*
X154220247Y-90939755D01*
X154194168Y-90909656D01*
X154192319Y-90906659D01*
X154192316Y-90906655D01*
X154068345Y-90782684D01*
X153919124Y-90690643D01*
X153919119Y-90690641D01*
X153752697Y-90635494D01*
X153752690Y-90635493D01*
X153649986Y-90625000D01*
X153600000Y-90625000D01*
X153600000Y-93074999D01*
X153649972Y-93074999D01*
X153649986Y-93074998D01*
X153752697Y-93064505D01*
X153919119Y-93009358D01*
X153919124Y-93009356D01*
X154068345Y-92917315D01*
X154192318Y-92793342D01*
X154194165Y-92790348D01*
X154195969Y-92788724D01*
X154196798Y-92787677D01*
X154196976Y-92787818D01*
X154246110Y-92743621D01*
X154315073Y-92732396D01*
X154379156Y-92760236D01*
X154405243Y-92790341D01*
X154407288Y-92793656D01*
X154531344Y-92917712D01*
X154680666Y-93009814D01*
X154847203Y-93064999D01*
X154949991Y-93075500D01*
X155550008Y-93075499D01*
X155550016Y-93075498D01*
X155550019Y-93075498D01*
X155638690Y-93066440D01*
X155652797Y-93064999D01*
X155819334Y-93009814D01*
X155968656Y-92917712D01*
X156092712Y-92793656D01*
X156184814Y-92644334D01*
X156239999Y-92477797D01*
X156250500Y-92375009D01*
X156250499Y-91962228D01*
X156270183Y-91895190D01*
X156286813Y-91874552D01*
X157349548Y-90811817D01*
X157410871Y-90778333D01*
X157437229Y-90775499D01*
X157750002Y-90775499D01*
X157750008Y-90775499D01*
X157840303Y-90766275D01*
X157908995Y-90779045D01*
X157940585Y-90801952D01*
X158371585Y-91232952D01*
X158371590Y-91232956D01*
X158388764Y-91244430D01*
X158388769Y-91244436D01*
X158388771Y-91244435D01*
X158494505Y-91315084D01*
X158542382Y-91334915D01*
X158542383Y-91334916D01*
X158542384Y-91334916D01*
X158631088Y-91371659D01*
X158747241Y-91394763D01*
X158766468Y-91398587D01*
X158776081Y-91400500D01*
X158776082Y-91400500D01*
X158776083Y-91400500D01*
X158923918Y-91400500D01*
X160676269Y-91400500D01*
X160743308Y-91420185D01*
X160789063Y-91472989D01*
X160799007Y-91542147D01*
X160769982Y-91605703D01*
X160763950Y-91612181D01*
X160504548Y-91871584D01*
X158875451Y-93500681D01*
X158814128Y-93534166D01*
X158787770Y-93537000D01*
X158384298Y-93537000D01*
X158347432Y-93539901D01*
X158347426Y-93539902D01*
X158189606Y-93585754D01*
X158189603Y-93585755D01*
X158048137Y-93669417D01*
X158048129Y-93669423D01*
X157931923Y-93785629D01*
X157931917Y-93785637D01*
X157848255Y-93927103D01*
X157848254Y-93927106D01*
X157802402Y-94084926D01*
X157802401Y-94084932D01*
X157799500Y-94121798D01*
X157799500Y-94480577D01*
X157779815Y-94547616D01*
X157727011Y-94593371D01*
X157699692Y-94602194D01*
X157631093Y-94615839D01*
X157631087Y-94615841D01*
X157584729Y-94635044D01*
X157494509Y-94672414D01*
X157494505Y-94672416D01*
X157474022Y-94686102D01*
X157463710Y-94692993D01*
X157371583Y-94754549D01*
X157371580Y-94754552D01*
X156817050Y-95309081D01*
X156817044Y-95309089D01*
X156767812Y-95382769D01*
X156767813Y-95382770D01*
X156734921Y-95431997D01*
X156734914Y-95432009D01*
X156678342Y-95568587D01*
X156678340Y-95568593D01*
X156649500Y-95713580D01*
X156649500Y-99970500D01*
X156629815Y-100037539D01*
X156577011Y-100083294D01*
X156525500Y-100094500D01*
X156278110Y-100094500D01*
X156135703Y-100114974D01*
X156135691Y-100114977D01*
X155997741Y-100155483D01*
X155866863Y-100215252D01*
X155866861Y-100215254D01*
X155751523Y-100289376D01*
X155750083Y-100290196D01*
X155745901Y-100292988D01*
X155637169Y-100387207D01*
X155637166Y-100387210D01*
X155543018Y-100495864D01*
X155543015Y-100495867D01*
X155465231Y-100616905D01*
X155465223Y-100616918D01*
X155408263Y-100741643D01*
X155406015Y-100745939D01*
X155364966Y-100885738D01*
X155364965Y-100885744D01*
X155344503Y-101028059D01*
X155344503Y-101084399D01*
X155344500Y-101084409D01*
X155344500Y-101242770D01*
X155324815Y-101309809D01*
X155308181Y-101330451D01*
X153625451Y-103013181D01*
X153564128Y-103046666D01*
X153537770Y-103049500D01*
X143264376Y-103049500D01*
X143197337Y-103029815D01*
X143151582Y-102977011D01*
X143141018Y-102912897D01*
X143149999Y-102824986D01*
X143150000Y-102824973D01*
X143150000Y-102550000D01*
X142274000Y-102550000D01*
X142206961Y-102530315D01*
X142161206Y-102477511D01*
X142150000Y-102426000D01*
X142150000Y-102300000D01*
X142024000Y-102300000D01*
X141956961Y-102280315D01*
X141911206Y-102227511D01*
X141900000Y-102176000D01*
X141900000Y-102050000D01*
X142400000Y-102050000D01*
X143149999Y-102050000D01*
X143149999Y-101775028D01*
X143149998Y-101775013D01*
X143139505Y-101672302D01*
X143084358Y-101505880D01*
X143084356Y-101505875D01*
X142992315Y-101356654D01*
X142868345Y-101232684D01*
X142719124Y-101140643D01*
X142719119Y-101140641D01*
X142552697Y-101085494D01*
X142552690Y-101085493D01*
X142449986Y-101075000D01*
X142400000Y-101075000D01*
X142400000Y-102050000D01*
X141900000Y-102050000D01*
X141900000Y-101075000D01*
X141899999Y-101074999D01*
X141850029Y-101075000D01*
X141850011Y-101075001D01*
X141747302Y-101085494D01*
X141580880Y-101140641D01*
X141580875Y-101140643D01*
X141431654Y-101232684D01*
X141307683Y-101356655D01*
X141307679Y-101356660D01*
X141305826Y-101359665D01*
X141304018Y-101361290D01*
X141303202Y-101362323D01*
X141303025Y-101362183D01*
X141253874Y-101406385D01*
X141184911Y-101417601D01*
X141120831Y-101389752D01*
X141094753Y-101359653D01*
X141094737Y-101359628D01*
X141092712Y-101356344D01*
X141036819Y-101300451D01*
X141003334Y-101239128D01*
X141000500Y-101212770D01*
X141000500Y-99537230D01*
X141020185Y-99470191D01*
X141036819Y-99449549D01*
X141061864Y-99424504D01*
X141092712Y-99393656D01*
X141094752Y-99390347D01*
X141096745Y-99388555D01*
X141097193Y-99387989D01*
X141097289Y-99388065D01*
X141146694Y-99343623D01*
X141215656Y-99332395D01*
X141279740Y-99360234D01*
X141305829Y-99390339D01*
X141307681Y-99393341D01*
X141307683Y-99393344D01*
X141431654Y-99517315D01*
X141580875Y-99609356D01*
X141580880Y-99609358D01*
X141747302Y-99664505D01*
X141747309Y-99664506D01*
X141850019Y-99674999D01*
X142400000Y-99674999D01*
X142449972Y-99674999D01*
X142449986Y-99674998D01*
X142552697Y-99664505D01*
X142719119Y-99609358D01*
X142719124Y-99609356D01*
X142868345Y-99517315D01*
X142992315Y-99393345D01*
X143084356Y-99244124D01*
X143084358Y-99244119D01*
X143139505Y-99077697D01*
X143139506Y-99077690D01*
X143149999Y-98974986D01*
X143150000Y-98974973D01*
X143150000Y-98700000D01*
X142400000Y-98700000D01*
X142400000Y-99674999D01*
X141850019Y-99674999D01*
X141899999Y-99674998D01*
X141900000Y-99674998D01*
X141900000Y-98200000D01*
X142400000Y-98200000D01*
X143149999Y-98200000D01*
X143149999Y-97925028D01*
X143149998Y-97925013D01*
X143139505Y-97822302D01*
X143084358Y-97655880D01*
X143084356Y-97655875D01*
X142992315Y-97506654D01*
X142868345Y-97382684D01*
X142719124Y-97290643D01*
X142719119Y-97290641D01*
X142552697Y-97235494D01*
X142552690Y-97235493D01*
X142449986Y-97225000D01*
X142400000Y-97225000D01*
X142400000Y-98200000D01*
X141900000Y-98200000D01*
X141900000Y-97225000D01*
X141899999Y-97224999D01*
X141850029Y-97225000D01*
X141850011Y-97225001D01*
X141747302Y-97235494D01*
X141580880Y-97290641D01*
X141580875Y-97290643D01*
X141431654Y-97382684D01*
X141307683Y-97506655D01*
X141307679Y-97506660D01*
X141305826Y-97509665D01*
X141304018Y-97511290D01*
X141303202Y-97512323D01*
X141303025Y-97512183D01*
X141253874Y-97556385D01*
X141184911Y-97567601D01*
X141120831Y-97539752D01*
X141094753Y-97509653D01*
X141094737Y-97509628D01*
X141092712Y-97506344D01*
X140968656Y-97382288D01*
X140822426Y-97292093D01*
X140819336Y-97290187D01*
X140819331Y-97290185D01*
X140817862Y-97289698D01*
X140652797Y-97235001D01*
X140652795Y-97235000D01*
X140550016Y-97224500D01*
X140550009Y-97224500D01*
X140286228Y-97224500D01*
X140219189Y-97204815D01*
X140173434Y-97152011D01*
X140163490Y-97082853D01*
X140192515Y-97019297D01*
X140198547Y-97012819D01*
X141861815Y-95349551D01*
X143558059Y-93653306D01*
X143594132Y-93630657D01*
X143593244Y-93628813D01*
X143599515Y-93625792D01*
X143599516Y-93625790D01*
X143599522Y-93625789D01*
X143752262Y-93529816D01*
X143879816Y-93402262D01*
X143975789Y-93249522D01*
X144035368Y-93079255D01*
X144035791Y-93075500D01*
X144055565Y-92900003D01*
X144055565Y-92899996D01*
X144035369Y-92720750D01*
X144035368Y-92720745D01*
X144023119Y-92685739D01*
X143975789Y-92550478D01*
X143974038Y-92547692D01*
X143914820Y-92453447D01*
X143879816Y-92397738D01*
X143752262Y-92270184D01*
X143715618Y-92247159D01*
X143599523Y-92174211D01*
X143429254Y-92114631D01*
X143429249Y-92114630D01*
X143250004Y-92094435D01*
X143249996Y-92094435D01*
X143070750Y-92114630D01*
X143070745Y-92114631D01*
X142900476Y-92174211D01*
X142747737Y-92270184D01*
X142620184Y-92397737D01*
X142566249Y-92483575D01*
X142529763Y-92541643D01*
X142524208Y-92550483D01*
X142521186Y-92556758D01*
X142519361Y-92555878D01*
X142496692Y-92591939D01*
X138745451Y-96343181D01*
X138684128Y-96376666D01*
X138657770Y-96379500D01*
X136994849Y-96379500D01*
X136947396Y-96370061D01*
X136885236Y-96344313D01*
X136871171Y-96342461D01*
X136772727Y-96329500D01*
X136772720Y-96329500D01*
X135291228Y-96329500D01*
X135224189Y-96309815D01*
X135178434Y-96257011D01*
X135168490Y-96187853D01*
X135197515Y-96124297D01*
X135203547Y-96117819D01*
X136782949Y-94538417D01*
X136782951Y-94538415D01*
X136839594Y-94453642D01*
X136893203Y-94408840D01*
X136960338Y-94399797D01*
X137000000Y-94405500D01*
X137000005Y-94405500D01*
X137571886Y-94405500D01*
X137571889Y-94405500D01*
X137714304Y-94385024D01*
X137852259Y-94344517D01*
X137983137Y-94284747D01*
X138098477Y-94210622D01*
X138099915Y-94209804D01*
X138104098Y-94207011D01*
X138193192Y-94129809D01*
X138212832Y-94112791D01*
X138306986Y-94004130D01*
X138384770Y-93883094D01*
X138441742Y-93758342D01*
X138443986Y-93754053D01*
X138444498Y-93752308D01*
X138444499Y-93752308D01*
X138485035Y-93614256D01*
X138505497Y-93471941D01*
X138505497Y-93415601D01*
X138505500Y-93415590D01*
X138505500Y-92884426D01*
X138505497Y-92884399D01*
X138505497Y-92828060D01*
X138503897Y-92816935D01*
X138485035Y-92685744D01*
X138485035Y-92685743D01*
X138444498Y-92547691D01*
X138441736Y-92541643D01*
X138384776Y-92416918D01*
X138384773Y-92416914D01*
X138384770Y-92416906D01*
X138306986Y-92295870D01*
X138306985Y-92295869D01*
X138306984Y-92295867D01*
X138306981Y-92295863D01*
X138248658Y-92228554D01*
X138225527Y-92181279D01*
X138223426Y-92181917D01*
X138221659Y-92176095D01*
X138221658Y-92176087D01*
X138187837Y-92094435D01*
X138165087Y-92039511D01*
X138165085Y-92039507D01*
X138165084Y-92039505D01*
X138147765Y-92013586D01*
X138115272Y-91964956D01*
X138115270Y-91964953D01*
X138082954Y-91916586D01*
X138082952Y-91916584D01*
X133933421Y-87767052D01*
X133933420Y-87767051D01*
X133848992Y-87710639D01*
X133848991Y-87710638D01*
X133810500Y-87684919D01*
X133810488Y-87684912D01*
X133673917Y-87628343D01*
X133673907Y-87628340D01*
X133528920Y-87599500D01*
X133528918Y-87599500D01*
X133101858Y-87599500D01*
X133034819Y-87579815D01*
X132994471Y-87537500D01*
X132969647Y-87494503D01*
X132908959Y-87389388D01*
X132759371Y-87201811D01*
X132732964Y-87137126D01*
X132745719Y-87068431D01*
X132793590Y-87017537D01*
X132856319Y-87000500D01*
X134187770Y-87000500D01*
X134254809Y-87020185D01*
G37*
%TD.AperFunction*%
%TA.AperFunction,Conductor*%
G36*
X145054782Y-89906226D02*
G01*
X145063189Y-89913895D01*
X145663181Y-90513887D01*
X145696666Y-90575210D01*
X145699500Y-90601568D01*
X145699500Y-91038770D01*
X145679815Y-91105809D01*
X145627011Y-91151564D01*
X145557853Y-91161508D01*
X145494297Y-91132483D01*
X145487819Y-91126451D01*
X144567859Y-90206491D01*
X144534374Y-90145168D01*
X144539358Y-90075476D01*
X144581230Y-90019543D01*
X144618990Y-90000319D01*
X144620687Y-89999795D01*
X144823004Y-89937389D01*
X144921707Y-89889855D01*
X144990648Y-89878504D01*
X145054782Y-89906226D01*
G37*
%TD.AperFunction*%
%TA.AperFunction,Conductor*%
G36*
X163255700Y-82171067D02*
G01*
X163262180Y-82177100D01*
X165513181Y-84428101D01*
X165546666Y-84489424D01*
X165549500Y-84515782D01*
X165549500Y-86684218D01*
X165529815Y-86751257D01*
X165513181Y-86771899D01*
X164771899Y-87513181D01*
X164710576Y-87546666D01*
X164684218Y-87549500D01*
X163071159Y-87549500D01*
X163004120Y-87529815D01*
X162958365Y-87477011D01*
X162948421Y-87407853D01*
X162953453Y-87386496D01*
X162989505Y-87277697D01*
X162989506Y-87277690D01*
X162999999Y-87174986D01*
X163000000Y-87174973D01*
X163000000Y-87112500D01*
X160600001Y-87112500D01*
X160600001Y-87174986D01*
X160610494Y-87277697D01*
X160646547Y-87386496D01*
X160648949Y-87456324D01*
X160613217Y-87516366D01*
X160550697Y-87547559D01*
X160528841Y-87549500D01*
X158538585Y-87549500D01*
X158471546Y-87529815D01*
X158425791Y-87477011D01*
X158420879Y-87464504D01*
X158384814Y-87355666D01*
X158292712Y-87206344D01*
X158168656Y-87082288D01*
X158019334Y-86990186D01*
X157852797Y-86935001D01*
X157852795Y-86935000D01*
X157750010Y-86924500D01*
X156749998Y-86924500D01*
X156749980Y-86924501D01*
X156647203Y-86935000D01*
X156647200Y-86935001D01*
X156480668Y-86990185D01*
X156480663Y-86990187D01*
X156405061Y-87036819D01*
X156333368Y-87081039D01*
X156268273Y-87099500D01*
X153071891Y-87099500D01*
X153004852Y-87079815D01*
X152959097Y-87027011D01*
X152949153Y-86957853D01*
X152978178Y-86894297D01*
X152984210Y-86887819D01*
X154035210Y-85836819D01*
X154096533Y-85803334D01*
X154122891Y-85800500D01*
X160737770Y-85800500D01*
X160804809Y-85820185D01*
X160825451Y-85836819D01*
X160851304Y-85862672D01*
X160884789Y-85923995D01*
X160879805Y-85993687D01*
X160851305Y-86038034D01*
X160757682Y-86131657D01*
X160665643Y-86280875D01*
X160665641Y-86280880D01*
X160610494Y-86447302D01*
X160610493Y-86447309D01*
X160600000Y-86550013D01*
X160600000Y-86612500D01*
X162999999Y-86612500D01*
X162999999Y-86550028D01*
X162999998Y-86550013D01*
X162989505Y-86447302D01*
X162934358Y-86280880D01*
X162934356Y-86280875D01*
X162842315Y-86131654D01*
X162748695Y-86038034D01*
X162715210Y-85976711D01*
X162720194Y-85907019D01*
X162748691Y-85862676D01*
X162842712Y-85768656D01*
X162934814Y-85619334D01*
X162989999Y-85452797D01*
X163000500Y-85350009D01*
X163000499Y-84724992D01*
X162989999Y-84622203D01*
X162934814Y-84455666D01*
X162842712Y-84306344D01*
X162718656Y-84182288D01*
X162718655Y-84182287D01*
X162659402Y-84145739D01*
X162612678Y-84093791D01*
X162600500Y-84040201D01*
X162600500Y-83040638D01*
X162620185Y-82973599D01*
X162659401Y-82935100D01*
X162768656Y-82867712D01*
X162892712Y-82743656D01*
X162984814Y-82594334D01*
X163039999Y-82427797D01*
X163050500Y-82325009D01*
X163050499Y-82264780D01*
X163070183Y-82197743D01*
X163122986Y-82151987D01*
X163192144Y-82142043D01*
X163255700Y-82171067D01*
G37*
%TD.AperFunction*%
%TD*%
M02*
