M48
; DRILL file {KiCad 8.0.7} date 2025-10-24T17:03:05+0200
; FORMAT={-:-/ absolute / inch / decimal}
; #@! TF.CreationDate,2025-10-24T17:03:05+02:00
; #@! TF.GenerationSoftware,Kicad,Pcbnew,8.0.7
; #@! TF.FileFunction,Plated,1,2,PTH
FMAT,2
INCH
; #@! TA.AperFunction,Plated,PTH,ViaDrill
T1C0.0118
; #@! TA.AperFunction,Plated,PTH,ComponentDrill
T2C0.0276
; #@! TA.AperFunction,Plated,PTH,ComponentDrill
T3C0.0295
; #@! TA.AperFunction,Plated,PTH,ComponentDrill
T4C0.0394
; #@! TA.AperFunction,Plated,PTH,ComponentDrill
T5C0.0472
%
G90
G05
T1
X4.7717Y-3.3091
X4.7717Y-3.4272
X4.7717Y-3.5453
X4.7717Y-3.6634
X4.7717Y-4.2343
X4.7717Y-4.3524
X4.7717Y-4.4705
X4.9193Y-3.3091
X4.9193Y-3.4272
X4.9193Y-3.5453
X4.9193Y-3.6634
X5.0276Y-4.2933
X5.0276Y-4.4114
X5.0709Y-3.7244
X5.1063Y-2.9941
X5.1063Y-4.7461
X5.1909Y-4.3602
X5.1909Y-4.4783
X5.2244Y-2.9941
X5.2244Y-4.7461
X5.3425Y-2.9941
X5.3425Y-4.7461
X5.3504Y-4.2815
X5.3917Y-4.4764
X5.4409Y-3.2539
X5.4429Y-3.1339
X5.4469Y-4.4035
X5.4606Y-2.9941
X5.4606Y-4.7461
X5.4724Y-4.1673
X5.5551Y-4.2815
X5.5591Y-3.2539
X5.561Y-3.1339
X5.5787Y-2.9941
X5.5984Y-4.7461
X5.6398Y-3.6575
X5.6772Y-3.2539
X5.6791Y-3.1339
X5.685Y-4.0
X5.6969Y-2.9941
X5.7146Y-4.5295
X5.7165Y-3.5453
X5.7165Y-4.7461
X5.7283Y-4.3071
X5.7953Y-3.2539
X5.7972Y-3.1339
X5.8091Y-4.1417
X5.815Y-2.9941
X5.8346Y-4.7461
X5.8622Y-3.4094
X5.8642Y-4.5394
X5.9134Y-3.2539
X5.9134Y-4.3012
X5.9154Y-3.1339
X5.9331Y-2.9941
X5.9528Y-4.7461
X5.9665Y-3.5709
X5.9685Y-4.3661
X5.9921Y-3.3681
X6.0512Y-2.9941
X6.0906Y-4.7461
X6.0945Y-3.4055
X6.1693Y-2.9941
X6.1969Y-4.1201
X6.2028Y-4.4331
X6.2047Y-4.374
X6.2087Y-4.2126
X6.2087Y-4.7461
X6.2579Y-4.3012
X6.2638Y-3.8661
X6.2874Y-2.9941
X6.2953Y-3.9724
X6.3268Y-4.7461
X6.3563Y-3.624
X6.4055Y-2.9941
X6.4449Y-4.7461
X6.4469Y-4.3051
X6.4665Y-3.3661
X6.7992Y-3.3878
X6.7992Y-3.5059
X6.7992Y-3.624
X6.7992Y-3.7421
X6.8661Y-3.8957
X6.8661Y-4.0138
X6.8661Y-4.1319
X6.8661Y-4.25
X6.8661Y-4.3681
T2
X6.6457Y-4.0177
X6.7205Y-4.0177
T3
X5.7756Y-3.7787
X5.7756Y-3.8287
X5.7756Y-3.8787
T4
X5.185Y-4.628
X5.285Y-4.628
X5.385Y-4.628
X5.485Y-4.628
X5.585Y-4.628
X5.685Y-4.628
X5.785Y-4.628
X5.885Y-4.628
X5.985Y-4.628
X6.085Y-4.628
X6.185Y-4.628
X6.285Y-4.628
X6.385Y-4.628
X6.485Y-4.628
X6.76Y-4.2146
X6.76Y-4.3146
T5
X5.1772Y-3.4783
X5.2343Y-3.1969
X5.6772Y-3.4783
X6.1201Y-3.1969
M30
